<svg xmlns="http://www.w3.org/2000/svg" width="733" height="289" fill="none"><g clip-path="url(#a)"><rect width="733" height="289" fill="#fff" rx="130"/><path fill="#00A13E" d="M946.709 306.573C925.209 321.5 824.614 361 797 361c-27.614 0-347.141-389.927-334.641-418.927C477.359-74.927 650-79 687.5-79c24.5 0 267.209 358.573 259.209 385.573Z"/><path fill="#F6C206" d="M771.5 361c-21.5 14.927-113.866 36.5-141.481 36.5C602.405 397.5 262.5 18 275-11c15-17 175.209-4.927 212.709-4.927C512.209-15.927 779.5 334 771.5 361Z"/><path fill="#DA0322" d="M637.5 387c-21.5 14.928-211.196-3.295-238.81-3.295-27.614 0-363.85-362-351.35-391C62.34-24.295 252.5-24 290-24c24.5 0 355.5 384 347.5 411Z"/><path fill="#000" d="M440.779 353c0 27.668-150.534 26.5-180.345 26.5-29.812 0-335.495-300.95-322-330.007C-45.373 32.46 50.795-30 91.279-30c26.449 0 349.5 355.332 349.5 383Z"/><path fill="#0085C9" d="M229.472 313.5c0 27.27 35.508 7.5 5.966 7.5S-68.9 309.139-55.528 280.5C-39.48 263.712-35.145 81 4.972 81c26.21 0 224.5 205.23 224.5 232.5Z"/><path fill="#fff" d="M171 166v-2.85c-1.583 1.33-3.388 2.343-5.415 3.04-1.963.76-4.085 1.14-6.365 1.14-3.23 0-6.27-.602-9.12-1.805a24.272 24.272 0 0 1-7.6-5.32c-2.153-2.343-3.863-5.098-5.13-8.265-1.203-3.167-1.805-6.682-1.805-10.545 0-3.927.602-7.473 1.805-10.64 1.267-3.167 2.977-5.858 5.13-8.075 2.217-2.28 4.75-4.022 7.6-5.225 2.85-1.267 5.858-1.9 9.025-1.9 2.28 0 4.433.38 6.46 1.14 2.027.697 3.832 1.678 5.415 2.945v-2.755h15.675V166H171Zm-9.69-12.54c3.04 0 5.478-1.108 7.315-3.325 1.837-2.217 2.755-5.13 2.755-8.74 0-3.61-.918-6.492-2.755-8.645-1.837-2.217-4.275-3.325-7.315-3.325-3.103 0-5.573 1.077-7.41 3.23-1.773 2.153-2.66 5.067-2.66 8.74s.887 6.618 2.66 8.835c1.837 2.153 4.307 3.23 7.41 3.23Zm51.501 27.74h-15.675v-64.315h15.675v2.755c1.583-1.267 3.388-2.248 5.415-2.945 2.027-.76 4.18-1.14 6.46-1.14 3.167 0 6.175.633 9.025 1.9a21.981 21.981 0 0 1 7.505 5.225c2.217 2.28 3.927 5.003 5.13 8.17 1.267 3.167 1.9 6.682 1.9 10.545 0 3.8-.633 7.283-1.9 10.45-1.203 3.167-2.913 5.922-5.13 8.265a23.174 23.174 0 0 1-7.505 5.32c-2.85 1.267-5.89 1.9-9.12 1.9-2.28 0-4.433-.38-6.46-1.14a17.093 17.093 0 0 1-5.32-3.04v18.05Zm9.69-27.74c3.103 0 5.542-1.077 7.315-3.23 1.837-2.217 2.755-5.162 2.755-8.835 0-3.673-.918-6.587-2.755-8.74-1.773-2.153-4.212-3.23-7.315-3.23-3.04 0-5.478 1.108-7.315 3.325-1.837 2.153-2.755 5.035-2.755 8.645 0 3.61.918 6.523 2.755 8.74 1.837 2.217 4.275 3.325 7.315 3.325Zm41.906-42.18c-1.836 0-3.515-.443-5.035-1.33a10.378 10.378 0 0 1-3.515-3.515c-.886-1.457-1.33-3.072-1.33-4.845 0-1.773.444-3.357 1.33-4.75a10.378 10.378 0 0 1 3.515-3.515c1.52-.887 3.199-1.33 5.035-1.33 1.774 0 3.389.443 4.845 1.33 1.52.887 2.724 2.058 3.61 3.515.887 1.393 1.33 2.977 1.33 4.75 0 1.773-.443 3.388-1.33 4.845-.886 1.457-2.09 2.628-3.61 3.515-1.456.887-3.071 1.33-4.845 1.33ZM256.522 166v-49.115h15.675V166h-15.675Zm31.745 0v-35.055h-7.695v-14.06h7.695v-13.11h15.675v13.11h8.93v14.06h-8.93V166h-15.675Zm64.476 0v-2.85c-1.583 1.33-3.388 2.343-5.415 3.04-1.963.76-4.085 1.14-6.365 1.14-3.23 0-6.27-.602-9.12-1.805a24.272 24.272 0 0 1-7.6-5.32c-2.153-2.343-3.863-5.098-5.13-8.265-1.203-3.167-1.805-6.682-1.805-10.545 0-3.927.602-7.473 1.805-10.64 1.267-3.167 2.977-5.858 5.13-8.075 2.217-2.28 4.75-4.022 7.6-5.225 2.85-1.267 5.858-1.9 9.025-1.9 2.28 0 4.433.38 6.46 1.14 2.027.697 3.832 1.678 5.415 2.945v-2.755h15.675V166h-15.675Zm-9.69-12.54c3.04 0 5.478-1.108 7.315-3.325 1.837-2.217 2.755-5.13 2.755-8.74 0-3.61-.918-6.492-2.755-8.645-1.837-2.217-4.275-3.325-7.315-3.325-3.103 0-5.573 1.077-7.41 3.23-1.773 2.153-2.66 5.067-2.66 8.74s.887 6.618 2.66 8.835c1.837 2.153 4.307 3.23 7.41 3.23ZM379.354 166V96.65h15.675V166h-15.675Zm31.175 15.2c1.267-3.357 2.565-6.745 3.895-10.165a412.717 412.717 0 0 0 3.99-9.975 2794.286 2794.286 0 0 0-9.12-22.04c-3.04-7.473-6.048-14.852-9.025-22.135h16.625c1.647 4.053 3.293 8.17 4.94 12.35 1.71 4.18 3.388 8.328 5.035 12.445 1.52-4.117 3.072-8.265 4.655-12.445 1.583-4.18 3.135-8.297 4.655-12.35h16.34a6971.467 6971.467 0 0 0-12.825 32.205 4265.189 4265.189 0 0 1-12.73 32.11H410.529Zm46.744-15.2v-49.115h15.675v2.47a18.735 18.735 0 0 1 5.51-2.755 19.15 19.15 0 0 1 6.27-1.045c2.343 0 4.497.412 6.46 1.235 1.963.76 3.642 1.9 5.035 3.42 2.027-1.457 4.307-2.597 6.84-3.42a26.262 26.262 0 0 1 7.98-1.235c3.863 0 7.188.792 9.975 2.375 2.85 1.583 5.035 3.832 6.555 6.745 1.583 2.913 2.375 6.428 2.375 10.545V166h-15.675v-28.88c0-2.153-.507-3.895-1.52-5.225-.95-1.393-2.502-2.09-4.655-2.09-2.09 0-3.737.665-4.94 1.995-1.14 1.267-1.71 3.04-1.71 5.32V166h-15.675v-28.88c0-2.153-.507-3.895-1.52-5.225-.95-1.393-2.502-2.09-4.655-2.09-2.09 0-3.737.665-4.94 1.995-1.14 1.267-1.71 3.04-1.71 5.32V166h-15.675Zm98.058 15.2h-15.675v-64.315h15.675v2.755c1.583-1.267 3.388-2.248 5.415-2.945 2.026-.76 4.18-1.14 6.46-1.14 3.166 0 6.175.633 9.025 1.9a21.991 21.991 0 0 1 7.505 5.225c2.216 2.28 3.926 5.003 5.13 8.17 1.266 3.167 1.9 6.682 1.9 10.545 0 3.8-.634 7.283-1.9 10.45-1.204 3.167-2.914 5.922-5.13 8.265a23.185 23.185 0 0 1-7.505 5.32c-2.85 1.267-5.89 1.9-9.12 1.9-2.28 0-4.434-.38-6.46-1.14a17.082 17.082 0 0 1-5.32-3.04v18.05Zm9.69-27.74c3.103 0 5.541-1.077 7.315-3.23 1.836-2.217 2.755-5.162 2.755-8.835 0-3.673-.919-6.587-2.755-8.74-1.774-2.153-4.212-3.23-7.315-3.23-3.04 0-5.479 1.108-7.315 3.325-1.837 2.153-2.755 5.035-2.755 8.645 0 3.61.918 6.523 2.755 8.74 1.836 2.217 4.275 3.325 7.315 3.325Zm41.906-42.18c-1.837 0-3.515-.443-5.035-1.33a10.36 10.36 0 0 1-3.515-3.515c-.887-1.457-1.33-3.072-1.33-4.845 0-1.773.443-3.357 1.33-4.75a10.36 10.36 0 0 1 3.515-3.515c1.52-.887 3.198-1.33 5.035-1.33 1.773 0 3.388.443 4.845 1.33 1.52.887 2.723 2.058 3.61 3.515.886 1.393 1.33 2.977 1.33 4.75 0 1.773-.444 3.388-1.33 4.845-.887 1.457-2.09 2.628-3.61 3.515-1.457.887-3.072 1.33-4.845 1.33ZM599.042 166v-49.115h15.675V166h-15.675Zm23.955-24.605c0-4.813.981-9.025 2.945-12.635 1.963-3.673 4.686-6.618 8.17-8.835 3.483-2.217 7.536-3.547 12.16-3.99 4.623-.507 9.563.032 14.82 1.615v14.63c-3.674-1.773-7.189-2.597-10.545-2.47-3.357.127-6.112 1.172-8.265 3.135-2.154 1.9-3.23 4.75-3.23 8.55 0 3.8 1.076 6.682 3.23 8.645 2.153 1.9 4.908 2.913 8.265 3.04 3.356.063 6.871-.76 10.545-2.47v14.63c-5.257 1.583-10.197 2.122-14.82 1.615-4.624-.443-8.677-1.773-12.16-3.99-3.484-2.217-6.207-5.13-8.17-8.74-1.964-3.673-2.945-7.917-2.945-12.73Zm85.365 9.405c0 3.927-1.108 7.157-3.325 9.69-2.153 2.47-5.066 4.275-8.74 5.415-3.673 1.14-7.79 1.615-12.35 1.425-4.496-.127-9.088-.855-13.775-2.185v-14.82a50.305 50.305 0 0 0 7.98 2.85c2.66.633 5.067 1.013 7.22 1.14 2.154.127 3.895-.032 5.225-.475 1.33-.507 1.995-1.33 1.995-2.47 0-.887-.57-1.583-1.71-2.09-1.076-.507-2.501-.95-4.275-1.33-1.773-.443-3.673-.95-5.7-1.52a26.346 26.346 0 0 1-5.605-2.565c-1.773-1.14-3.23-2.628-4.37-4.465-1.076-1.9-1.615-4.338-1.615-7.315 0-3.547 1.014-6.555 3.04-9.025 2.09-2.533 4.877-4.433 8.36-5.7 3.484-1.33 7.379-1.995 11.685-1.995 4.307 0 8.709.728 13.205 2.185v14.82c-3.546-1.71-6.871-2.85-9.975-3.42-3.103-.57-5.605-.633-7.505-.19-1.9.38-2.85 1.235-2.85 2.565 0 .887.539 1.583 1.615 2.09 1.14.443 2.565.855 4.275 1.235 1.774.38 3.642.887 5.605 1.52a21.712 21.712 0 0 1 5.605 2.66c1.774 1.077 3.199 2.597 4.275 4.56 1.14 1.9 1.71 4.37 1.71 7.41Z"/><path fill="#000" d="M171 166h-1v1h1v-1Zm0-2.85h1v-2.146l-1.643 1.38.643.766Zm-5.415 3.04-.325-.946-.018.007-.018.006.361.933Zm-15.485-.665-.406.914.008.004.009.003.389-.921Zm-7.6-5.32-.736.677.009.01.01.01.717-.697Zm-5.13-8.265-.935.355.003.008.004.008.928-.371Zm0-21.185-.928-.371-.004.008-.003.008.935.355Zm5.13-8.075-.717-.697.717.697Zm7.6-5.225.389.921.009-.003.008-.004-.406-.914Zm15.485-.76-.351.936.013.005.013.005.325-.946ZM171 119.64l-.625.781 1.625 1.3v-2.081h-1Zm0-2.755v-1h-1v1h1Zm15.675 0h1v-1h-1v1Zm0 49.115v1h1v-1h-1Zm-18.05-15.865.77.638-.77-.638Zm0-17.385-.77.638.005.006.004.005.761-.649Zm-14.725-.095-.761-.649-.005.007-.006.006.772.636Zm0 17.575-.781.625.01.012.01.012.761-.649ZM172 166V164.575h-2V166h2Zm0-1.425V163.15h-2V164.575h2Zm-1.643-2.191a15.85 15.85 0 0 1-5.097 2.86l.65 1.892a17.845 17.845 0 0 0 5.733-3.22l-1.286-1.532Zm-5.133 2.873c-1.839.712-3.837 1.073-6.004 1.073v2c2.393 0 4.638-.399 6.726-1.207l-.722-1.866Zm-6.004 1.073c-3.102 0-6.01-.577-8.731-1.726l-.778 1.842c2.979 1.258 6.151 1.884 9.509 1.884v-2Zm-8.714-1.719a23.278 23.278 0 0 1-7.289-5.103l-1.434 1.394a25.266 25.266 0 0 0 7.911 5.537l.812-1.828Zm-7.27-5.083c-2.065-2.247-3.713-4.897-4.938-7.959l-1.856.742c1.308 3.271 3.081 6.132 5.322 8.571l1.472-1.354Zm-4.931-7.943c-1.155-3.039-1.74-6.431-1.74-10.19h-2c0 3.968.618 7.605 1.87 10.9l1.87-.71Zm-1.74-10.19c0-3.824.586-7.248 1.74-10.285l-1.87-.71c-1.253 3.296-1.87 6.966-1.87 10.995h2Zm1.733-10.269c1.224-3.058 2.866-5.635 4.919-7.749l-1.434-1.394c-2.254 2.32-4.031 5.125-5.341 8.401l1.856.742Zm4.919-7.749c2.126-2.187 4.549-3.851 7.272-5.001l-.778-1.842c-2.977 1.257-5.621 3.076-7.928 5.449l1.434 1.394Zm7.289-5.008a20.975 20.975 0 0 1 8.619-1.814v-2c-3.304 0-6.451.662-9.431 1.986l.812 1.828Zm8.619-1.814c2.167 0 4.2.361 6.109 1.076l.702-1.872c-2.145-.805-4.418-1.204-6.811-1.204v2Zm6.135 1.086c1.924.661 3.627 1.589 5.115 2.78l1.25-1.562c-1.678-1.342-3.586-2.378-5.715-3.11l-.65 1.892Zm6.74 1.999V118.215h-2V119.64h2Zm0-1.425V116.885h-2V118.215h2Zm-1-.33H178.885v-2H171v2Zm7.885 0H186.675v-2H178.885v2Zm6.79-1V141.49h2V116.885h-2Zm0 24.605V166h2V141.49h-2Zm1 23.51H178.885v2H186.675v-2Zm-7.79 0H171v2H178.885v-2Zm-17.575-10.54c3.319 0 6.047-1.227 8.085-3.687l-1.54-1.276c-1.635 1.973-3.784 2.963-6.545 2.963v2Zm8.085-3.687c2.02-2.438 2.985-5.596 2.985-9.378h-2c0 3.438-.872 6.107-2.525 8.102l1.54 1.276Zm2.985-9.378c0-3.781-.965-6.914-2.994-9.294l-1.522 1.298c1.644 1.927 2.516 4.557 2.516 7.996h2Zm-2.985-9.283c-2.039-2.46-4.766-3.687-8.085-3.687v2c2.761 0 4.91.99 6.545 2.963l1.54-1.276Zm-8.085-3.687c-3.364 0-6.124 1.182-8.171 3.581l1.522 1.298c1.627-1.907 3.807-2.879 6.649-2.879v-2Zm-8.182 3.594c-1.962 2.383-2.888 5.545-2.888 9.376h2c0-3.516.847-6.18 2.432-8.104l-1.544-1.272Zm-2.888 9.376c0 3.833.927 7.019 2.879 9.46l1.562-1.25c-1.595-1.993-2.441-4.696-2.441-8.21h-2Zm2.899 9.484c2.047 2.399 4.807 3.581 8.171 3.581v-2c-2.842 0-5.022-.972-6.649-2.879l-1.522 1.298Zm59.672 30.321v1h1v-1h-1Zm-15.675 0h-1v1h1v-1Zm0-64.315v-1h-1v1h1Zm15.675 0h1v-1h-1v1Zm0 2.755h-1v2.081l1.625-1.3-.625-.781Zm5.415-2.945.325.946.013-.005.013-.005-.351-.936Zm15.485.76-.406.914.009.004.008.003.389-.921Zm7.505 5.225-.727.687.005.005.005.005.717-.697Zm5.13 8.17-.935.355.003.008.004.008.928-.371Zm0 20.995-.928-.371-.004.008-.003.008.935.355Zm-5.13 8.265-.726-.687h-.001l.727.687Zm-7.505 5.32.406.914-.406-.914Zm-15.58.76.351-.936-.008-.003-.008-.003-.335.942Zm-5.32-3.04.643-.766-1.643-1.38v2.146h1Zm17.005-12.92-.77-.638-.002.002.772.636Zm0-17.575-.772.636.006.006.005.007.761-.649Zm-14.63.095.761.649.005-.005.004-.006-.77-.638Zm0 17.385-.77.638.77-.638Zm-2.375 30.065H205.021v2H212.811v-2Zm-7.79 0H197.136v2H205.021v-2Zm-6.885 1V149.09h-2V181.2h2Zm0-32.11V116.885h-2V149.09h2Zm-1-31.205H205.021v-2H197.136v2Zm7.885 0H212.811v-2H205.021v2Zm6.79-1V118.215h2V116.885h-2Zm0 1.33V119.64h2V118.215h-2Zm1.625 2.206c1.488-1.191 3.191-2.119 5.115-2.78l-.65-1.892c-2.129.732-4.037 1.768-5.715 3.11l1.25 1.562Zm5.141-2.79c1.909-.715 3.943-1.076 6.109-1.076v-2c-2.393 0-4.666.399-6.811 1.204l.702 1.872Zm6.109-1.076c3.029 0 5.899.605 8.619 1.814l.812-1.828a22.98 22.98 0 0 0-9.431-1.986v2Zm8.636 1.821a20.981 20.981 0 0 1 7.167 4.991l1.454-1.374a22.986 22.986 0 0 0-7.843-5.459l-.778 1.842Zm7.177 5.001c2.116 2.176 3.754 4.781 4.912 7.828l1.87-.71c-1.249-3.286-3.03-6.128-5.348-8.512l-1.434 1.394Zm4.919 7.844c1.213 3.034 1.828 6.421 1.828 10.174h2c0-3.974-.652-7.617-1.971-10.916l-1.857.742Zm1.828 10.174c0 3.687-.614 7.043-1.828 10.079l1.857.742c1.319-3.297 1.971-6.908 1.971-10.821h-2Zm-1.835 10.095c-1.159 3.049-2.8 5.69-4.921 7.933l1.453 1.374c2.311-2.444 4.09-5.313 5.338-8.597l-1.87-.71Zm-4.922 7.933a22.158 22.158 0 0 1-7.184 5.093l.812 1.828a24.186 24.186 0 0 0 7.826-5.547l-1.454-1.374Zm-7.184 5.093c-2.718 1.208-5.619 1.814-8.714 1.814v2c3.365 0 6.544-.661 9.526-1.986l-.812-1.828Zm-8.714 1.814c-2.166 0-4.2-.361-6.109-1.076l-.702 1.872c2.145.805 4.418 1.204 6.811 1.204v-2Zm-6.125-1.082a16.076 16.076 0 0 1-5.012-2.864l-1.286 1.532a18.094 18.094 0 0 0 5.629 3.216l.669-1.884Zm-6.655-2.098V172.175h2V163.15h-2Zm0 9.025V181.2h2V172.175h-2Zm10.69-17.715c3.364 0 6.101-1.182 8.087-3.594l-1.544-1.272c-1.56 1.895-3.7 2.866-6.543 2.866v2Zm8.085-3.592c2.023-2.441 2.985-5.632 2.985-9.473h-2c0 3.506-.874 6.204-2.525 8.197l1.54 1.276Zm2.985-9.473c0-3.839-.962-7.006-2.994-9.389l-1.522 1.298c1.641 1.924 2.516 4.583 2.516 8.091h2Zm-2.983-9.376c-1.986-2.412-4.723-3.594-8.087-3.594v2c2.843 0 4.983.971 6.543 2.866l1.544-1.272Zm-8.087-3.594c-3.319 0-6.046 1.227-8.085 3.687l1.54 1.276c1.635-1.973 3.784-2.963 6.545-2.963v-2Zm-8.076 3.676c-2.029 2.38-2.994 5.513-2.994 9.294h2c0-3.439.872-6.069 2.516-7.996l-1.522-1.298Zm-2.994 9.294c0 3.782.965 6.94 2.985 9.378l1.54-1.276c-1.653-1.995-2.525-4.664-2.525-8.102h-2Zm2.985 9.378c2.039 2.46 4.766 3.687 8.085 3.687v-2c-2.761 0-4.91-.99-6.545-2.963l-1.54 1.276Zm44.956-40.823-.52.854.008.005.008.005.504-.864Zm-3.515-3.515.854-.52-.854.52Zm0-9.595.844.537.005-.008.005-.01-.854-.519Zm3.515-3.515-.504-.864-.008.005-.008.005.52.854Zm9.88 0-.52.854.008.005.008.005.504-.864Zm3.61 3.515-.854.52.005.008.006.009.843-.537Zm-3.61 13.11-.504-.864-.008.005-.008.005.52.854ZM256.522 166h-1v1h1v-1Zm0-49.115v-1h-1v1h1Zm15.675 0h1v-1h-1v1Zm0 49.115v1h1v-1h-1Zm-7.79-55.72c-1.667 0-3.171-.4-4.531-1.194l-1.008 1.728c1.68.98 3.534 1.466 5.539 1.466v-2Zm-4.515-1.184a9.381 9.381 0 0 1-3.181-3.181l-1.708 1.04a11.375 11.375 0 0 0 3.849 3.849l1.04-1.708Zm-3.181-3.181c-.787-1.294-1.184-2.727-1.184-4.325h-2c0 1.949.49 3.745 1.476 5.365l1.708-1.04Zm-1.184-4.325c0-1.598.397-2.992 1.174-4.213l-1.687-1.074c-.997 1.566-1.487 3.338-1.487 5.287h2Zm1.184-4.23a9.376 9.376 0 0 1 3.181-3.18l-1.04-1.71a11.373 11.373 0 0 0-3.849 3.85l1.708 1.04Zm3.165-3.171c1.36-.794 2.864-1.194 4.531-1.194v-2c-2.005 0-3.859.486-5.539 1.466l1.008 1.728Zm4.531-1.194c1.598 0 3.032.397 4.325 1.184l1.04-1.708c-1.62-.986-3.416-1.476-5.365-1.476v2Zm4.341 1.194c1.382.806 2.463 1.86 3.26 3.17l1.708-1.039c-.975-1.603-2.301-2.891-3.96-3.859l-1.008 1.728Zm3.271 3.188c.777 1.22 1.173 2.615 1.173 4.213h2c0-1.949-.49-3.721-1.486-5.287l-1.687 1.074Zm1.173 4.213c0 1.598-.397 3.031-1.184 4.325l1.708 1.04c.986-1.62 1.476-3.416 1.476-5.365h-2Zm-1.184 4.325c-.797 1.31-1.878 2.365-3.26 3.171l1.008 1.728c1.659-.968 2.985-2.256 3.96-3.859l-1.708-1.04Zm-3.276 3.181c-1.293.787-2.727 1.184-4.325 1.184v2c1.949 0 3.745-.49 5.365-1.476l-1.04-1.708ZM257.522 166V141.49h-2V166h2Zm0-24.51V116.885h-2V141.49h2Zm-1-23.605H264.407v-2H256.522v2Zm7.885 0H272.197v-2H264.407v2Zm6.79-1V141.49h2V116.885h-2Zm0 24.605V166h2V141.49h-2Zm1 23.51H264.407v2H272.197v-2Zm-7.79 0H256.522v2H264.407v-2Zm23.86 1h-1v1h1v-1Zm0-35.055h1v-1h-1v1Zm-7.695 0h-1v1h1v-1Zm0-14.06v-1h-1v1h1Zm7.695 0v1h1v-1h-1Zm0-13.11v-1h-1v1h1Zm15.675 0h1v-1h-1v1Zm0 13.11h-1v1h1v-1Zm8.93 0h1v-1h-1v1Zm0 14.06v1h1v-1h-1Zm-8.93 0v-1h-1v1h1Zm0 35.055v1h1v-1h-1Zm-14.675 0V148.425h-2V166h2Zm0-17.575V130.945h-2V148.425h2Zm-1-18.48H284.372v2H288.267v-2Zm-3.895 0H280.572v2H284.372v-2Zm-2.8 1V123.915h-2V130.945h2Zm0-7.03V116.885h-2V123.915h2Zm-1-6.03H284.372v-2H280.572v2Zm3.8 0H288.267v-2H284.372v2Zm4.895-1V110.33h-2V116.885h2Zm0-6.555V103.775h-2V110.33h2Zm-1-5.555H296.152v-2H288.267v2Zm7.885 0H303.942v-2H296.152v2Zm6.79-1V110.33h2V103.775h-2Zm0 6.555V116.885h2V110.33h-2Zm1 7.555H308.407v-2H303.942v2Zm4.465 0H312.872v-2H308.407v2Zm3.465-1V123.915h2V116.885h-2Zm0 7.03V130.945h2V123.915h-2Zm1 6.03H308.407v2H312.872v-2Zm-4.465 0H303.942v2H308.407v-2Zm-5.465 1V148.425h2V130.945h-2Zm0 17.48V166h2V148.425h-2Zm1 16.575H296.152v2H303.942v-2Zm-7.79 0H288.267v2H296.152v-2Zm56.591 1h-1v1h1v-1Zm0-2.85h1v-2.146l-1.643 1.38.643.766Zm-5.415 3.04-.325-.946-.018.007-.018.006.361.933Zm-15.485-.665-.406.914.009.004.008.003.389-.921Zm-7.6-5.32-.736.677.009.01.01.01.717-.697Zm-5.13-8.265-.935.355.003.008.004.008.928-.371Zm0-21.185-.928-.371-.004.008-.003.008.935.355Zm5.13-8.075-.717-.697.717.697Zm7.6-5.225.389.921.009-.003.008-.004-.406-.914Zm15.485-.76-.351.936.013.005.013.005.325-.946Zm5.415 2.945-.625.781 1.625 1.3v-2.081h-1Zm0-2.755v-1h-1v1h1Zm15.675 0h1v-1h-1v1Zm0 49.115v1h1v-1h-1Zm-18.05-15.865.77.638-.77-.638Zm0-17.385-.77.638.005.006.004.005.761-.649Zm-14.725-.095-.761-.649-.005.007-.006.006.772.636Zm0 17.575-.781.625.01.012.01.012.761-.649Zm18.1 15.77V164.575h-2V166h2Zm0-1.425V163.15h-2V164.575h2Zm-1.643-2.191a15.85 15.85 0 0 1-5.097 2.86l.65 1.892a17.834 17.834 0 0 0 5.733-3.22l-1.286-1.532Zm-5.133 2.873c-1.839.712-3.837 1.073-6.004 1.073v2c2.393 0 4.638-.399 6.726-1.207l-.722-1.866Zm-6.004 1.073c-3.102 0-6.009-.577-8.731-1.726l-.778 1.842c2.979 1.258 6.152 1.884 9.509 1.884v-2Zm-8.714-1.719a23.278 23.278 0 0 1-7.289-5.103l-1.434 1.394a25.266 25.266 0 0 0 7.911 5.537l.812-1.828Zm-7.27-5.083c-2.065-2.247-3.712-4.897-4.937-7.959l-1.857.742c1.308 3.271 3.081 6.132 5.322 8.571l1.472-1.354Zm-4.931-7.943c-1.155-3.039-1.74-6.431-1.74-10.19h-2c0 3.968.618 7.605 1.87 10.9l1.87-.71Zm-1.74-10.19c0-3.824.586-7.248 1.74-10.285l-1.87-.71c-1.252 3.296-1.87 6.966-1.87 10.995h2Zm1.734-10.269c1.223-3.058 2.865-5.635 4.918-7.749l-1.434-1.394c-2.253 2.32-4.031 5.125-5.341 8.401l1.857.742Zm4.918-7.749c2.126-2.187 4.549-3.851 7.272-5.001l-.778-1.842c-2.977 1.257-5.621 3.076-7.928 5.449l1.434 1.394Zm7.289-5.008a20.975 20.975 0 0 1 8.619-1.814v-2c-3.304 0-6.451.662-9.431 1.986l.812 1.828Zm8.619-1.814c2.167 0 4.201.361 6.109 1.076l.702-1.872c-2.145-.805-4.417-1.204-6.811-1.204v2Zm6.135 1.086c1.924.661 3.627 1.589 5.115 2.78l1.25-1.562c-1.678-1.342-3.586-2.378-5.715-3.11l-.65 1.892Zm6.74 1.999V118.215h-2V119.64h2Zm0-1.425V116.885h-2V118.215h2Zm-1-.33H360.628v-2H352.743v2Zm7.885 0H368.418v-2H360.628v2Zm6.79-1V141.49h2V116.885h-2Zm0 24.605V166h2V141.49h-2Zm1 23.51H360.628v2H368.418v-2Zm-7.79 0H352.743v2H360.628v-2Zm-17.575-10.54c3.319 0 6.047-1.227 8.085-3.687l-1.54-1.276c-1.635 1.973-3.783 2.963-6.545 2.963v2Zm8.085-3.687c2.02-2.438 2.985-5.596 2.985-9.378h-2c0 3.438-.871 6.107-2.525 8.102l1.54 1.276Zm2.985-9.378c0-3.781-.964-6.914-2.994-9.294l-1.522 1.298c1.644 1.927 2.516 4.557 2.516 7.996h2Zm-2.985-9.283c-2.038-2.46-4.766-3.687-8.085-3.687v2c2.762 0 4.91.99 6.545 2.963l1.54-1.276Zm-8.085-3.687c-3.364 0-6.124 1.182-8.171 3.581l1.522 1.298c1.627-1.907 3.807-2.879 6.649-2.879v-2Zm-8.182 3.594c-1.962 2.383-2.888 5.545-2.888 9.376h2c0-3.516.847-6.18 2.432-8.104l-1.544-1.272Zm-2.888 9.376c0 3.833.927 7.019 2.879 9.46l1.562-1.25c-1.594-1.993-2.441-4.696-2.441-8.21h-2Zm2.899 9.484c2.047 2.399 4.807 3.581 8.171 3.581v-2c-2.842 0-5.022-.972-6.649-2.879l-1.522 1.298ZM379.354 166h-1v1h1v-1Zm0-69.35v-1h-1v1h1Zm15.675 0h1v-1h-1v1Zm0 69.35v1h1v-1h-1Zm-14.675 0V131.325h-2V166h2Zm0-34.675V96.65h-2V131.325h2Zm-1-33.675H387.239v-2H379.354v2Zm7.885 0H395.029v-2H387.239v2Zm6.79-1V131.325h2V96.65h-2Zm0 34.675V166h2V131.325h-2Zm1 33.675H387.239v2H395.029v-2Zm-7.79 0H379.354v2H387.239v-2Zm23.29 16.2-.935-.353-.511 1.353h1.446v-1Zm3.895-10.165-.923-.383-.005.01-.004.011.932.362Zm3.99-9.975.933.359.143-.37-.15-.367-.926.378Zm-9.12-22.04-.926.377.004.009.922-.386Zm-9.025-22.135v-1h-1.489l.563 1.378.926-.378Zm16.625 0 .927-.376-.254-.624h-.673v1Zm4.94 12.35-.93.367.005.012.925-.379Zm5.035 12.445-.928.371.965 2.415.901-2.44-.938-.346Zm4.655-12.445-.935-.354.935.354Zm4.655-12.35v-1h-.693l-.243.649.936.351Zm16.34 0 .928.372.551-1.372h-1.479v1Zm-12.825 32.205-.93-.368-.001.003.931.365Zm-12.73 32.11v1h.676l.252-.628-.928-.372Zm-15.499.353a1069.44 1069.44 0 0 1 3.891-10.156l-1.864-.724a1062.949 1062.949 0 0 0-3.898 10.174l1.871.706Zm3.883-10.135a407.363 407.363 0 0 0 3.999-9.999l-1.866-.718a410.706 410.706 0 0 1-3.98 9.951l1.847.766Zm3.992-10.736a2780.542 2780.542 0 0 0-9.123-22.048l-1.845.772a2769.906 2769.906 0 0 1 9.116 22.032l1.852-.756Zm-9.12-22.039c-3.04-7.474-6.048-14.852-9.025-22.136l-1.852.756c2.977 7.283 5.985 14.661 9.025 22.134l1.852-.754Zm-9.951-20.758H408.629v-2H400.269v2Zm8.36 0H416.894v-2H408.629v2Zm7.339-.624c1.645 4.05 3.29 8.164 4.936 12.341l1.861-.734a1252.08 1252.08 0 0 0-4.944-12.359l-1.853.752Zm4.941 12.353c1.709 4.177 3.386 8.323 5.032 12.437l1.857-.742c-1.648-4.12-3.327-8.27-5.038-12.453l-1.851.758Zm6.898 12.412c1.519-4.114 3.07-8.259 4.652-12.437l-1.87-.708a1580.314 1580.314 0 0 0-4.658 12.453l1.876.692Zm4.652-12.437c1.584-4.181 3.136-8.298 4.656-12.353l-1.872-.702c-1.52 4.052-3.071 8.168-4.654 12.347l1.87.708Zm3.72-11.704H444.349v-2H436.179v2Zm8.17 0H452.519v-2H444.349v2Zm7.242-1.372a6818.676 6818.676 0 0 0-12.827 32.209l1.86.736a6925.494 6925.494 0 0 1 12.823-32.201l-1.856-.744Zm-12.828 32.212a4246.588 4246.588 0 0 1-12.727 32.103l1.856.744a4224.884 4224.884 0 0 0 12.733-32.117l-1.862-.73ZM426.964 180.2H418.699v2H426.964v-2Zm-8.265 0H410.529v2H418.699v-2Zm38.574-14.2h-1v1h1v-1Zm0-49.115v-1h-1v1h1Zm15.675 0h1v-1h-1v1Zm0 2.47h-1v1.969l1.59-1.162-.59-.807Zm5.51-2.755.298.954.014-.004.013-.004-.325-.946Zm12.73.19-.387.922.013.006.013.005.361-.933Zm5.035 3.42-.737.676.6.654.72-.518-.583-.812Zm6.84-3.42-.302-.953-.007.002.309.951Zm17.955 1.14-.494.869.008.005.486-.874Zm6.555 6.745-.887.463.004.007.004.008.879-.478ZM529.948 166v1h1v-1h-1Zm-15.675 0h-1v1h1v-1Zm-1.52-34.105-.826.563.014.022.016.021.796-.606Zm-9.595-.095-.742-.671-.001.002.743.669Zm-1.71 34.2v1h1v-1h-1Zm-15.675 0h-1v1h1v-1Zm-1.52-34.105-.826.563.014.022.016.021.796-.606Zm-9.595-.095-.742-.671-.001.002.743.669Zm-1.71 34.2v1h1v-1h-1Zm-14.675 0V141.49h-2V166h2Zm0-24.51V116.885h-2V141.49h2Zm-1-23.605H465.158v-2H457.273v2Zm7.885 0H472.948v-2H465.158v2Zm6.79-1V118.12h2V116.885h-2Zm0 1.235V119.355h2V118.12h-2Zm1.59 2.042a17.732 17.732 0 0 1 5.218-2.608l-.596-1.908a19.713 19.713 0 0 0-5.802 2.902l1.18 1.614Zm5.245-2.616a18.143 18.143 0 0 1 5.945-.991v-2c-2.264 0-4.463.367-6.595 1.099l.65 1.892Zm5.945-.991c2.224 0 4.244.39 6.073 1.157l.774-1.844c-2.098-.88-4.384-1.313-6.847-1.313v2Zm6.099 1.168a12.184 12.184 0 0 1 4.659 3.163l1.474-1.352a14.198 14.198 0 0 0-5.411-3.677l-.722 1.866Zm5.979 3.299c1.938-1.392 4.124-2.487 6.566-3.281l-.618-1.902c-2.625.853-4.999 2.038-7.115 3.559l1.167 1.624Zm6.559-3.279a25.26 25.26 0 0 1 7.678-1.188v-2c-2.826 0-5.588.427-8.282 1.282l.604 1.906Zm7.678-1.188c3.726 0 6.873.763 9.481 2.244l.988-1.738c-2.966-1.685-6.468-2.506-10.469-2.506v2Zm9.489 2.249c2.678 1.488 4.724 3.592 6.154 6.334l1.773-.926c-1.609-3.085-3.933-5.477-6.956-7.156l-.971 1.748Zm6.162 6.349c1.487 2.735 2.254 6.077 2.254 10.067h2c0-4.244-.817-7.931-2.497-11.023l-1.757.956Zm2.254 10.067V150.61h2V135.22h-2Zm0 15.39V166h2V150.61h-2Zm1 14.39H522.158v2H529.948v-2Zm-7.79 0H514.273v2H522.158v-2Zm-6.885 1V151.56h-2V166h2Zm0-14.44V137.12h-2V151.56h2Zm0-14.44c0-2.309-.545-4.282-1.725-5.831l-1.591 1.212c.847 1.111 1.316 2.621 1.316 4.619h2Zm-1.694-5.788c-1.187-1.742-3.1-2.527-5.481-2.527v2c1.925 0 3.116.608 3.829 1.653l1.652-1.126Zm-5.481-2.527c-2.321 0-4.257.749-5.682 2.324l1.483 1.342c.982-1.085 2.34-1.666 4.199-1.666v-2Zm-5.683 2.326c-1.355 1.505-1.967 3.547-1.967 5.989h2c0-2.118.528-3.623 1.453-4.651l-1.486-1.338Zm-1.967 5.989V151.56h2V137.12h-2Zm0 14.44V166h2V151.56h-2Zm1 13.44H493.658v2H501.448v-2Zm-7.79 0H485.773v2H493.658v-2Zm-6.885 1V151.56h-2V166h2Zm0-14.44V137.12h-2V151.56h2Zm0-14.44c0-2.309-.545-4.282-1.725-5.831l-1.591 1.212c.847 1.111 1.316 2.621 1.316 4.619h2Zm-1.694-5.788c-1.187-1.742-3.1-2.527-5.481-2.527v2c1.925 0 3.116.608 3.829 1.653l1.652-1.126Zm-5.481-2.527c-2.321 0-4.257.749-5.682 2.324l1.483 1.342c.982-1.085 2.34-1.666 4.199-1.666v-2Zm-5.683 2.326c-1.355 1.505-1.967 3.547-1.967 5.989h2c0-2.118.527-3.623 1.453-4.651l-1.486-1.338Zm-1.967 5.989V151.56h2V137.12h-2Zm0 14.44V166h2V151.56h-2Zm1 13.44H465.158v2H472.948v-2Zm-7.79 0H457.273v2H465.158v-2Zm90.173 16.2v1h1v-1h-1Zm-15.675 0h-1v1h1v-1Zm0-64.315v-1h-1v1h1Zm15.675 0h1v-1h-1v1Zm0 2.755h-1v2.081l1.624-1.3-.624-.781Zm5.415-2.945.325.946.013-.005.013-.005-.351-.936Zm15.485.76-.406.914.008.004.009.003.389-.921Zm7.505 5.225-.727.687.005.005.005.005.717-.697Zm5.13 8.17-.935.355.003.008.003.008.929-.371Zm0 20.995-.929-.371-.003.008-.003.008.935.355Zm-5.13 8.265-.727-.687.727.687Zm-7.505 5.32.406.914-.406-.914Zm-15.58.76.351-.936-.009-.003-.008-.003-.334.942Zm-5.32-3.04.643-.766-1.643-1.38v2.146h1Zm17.005-12.92-.77-.638-.002.002.772.636Zm0-17.575-.772.636.005.006.006.007.761-.649Zm-14.63.095.76.649.005-.005.005-.006-.77-.638Zm0 17.385-.77.638.77-.638Zm-2.375 30.065H547.541v2H555.331v-2Zm-7.79 0H539.656v2H547.541v-2Zm-6.885 1V149.09h-2V181.2h2Zm0-32.11V116.885h-2V149.09h2Zm-1-31.205H547.541v-2H539.656v2Zm7.885 0H555.331v-2H547.541v2Zm6.79-1V118.215h2V116.885h-2Zm0 1.33V119.64h2V118.215h-2Zm1.624 2.206c1.489-1.191 3.191-2.119 5.116-2.78l-.65-1.892c-2.129.732-4.037 1.768-5.715 3.11l1.249 1.562Zm5.142-2.79c1.908-.715 3.942-1.076 6.109-1.076v-2c-2.394 0-4.667.399-6.811 1.204l.702 1.872Zm6.109-1.076c3.029 0 5.898.605 8.619 1.814l.812-1.828a22.983 22.983 0 0 0-9.431-1.986v2Zm8.636 1.821a21 21 0 0 1 7.167 4.991l1.454-1.374a23.005 23.005 0 0 0-7.843-5.459l-.778 1.842Zm7.177 5.001c2.115 2.176 3.754 4.781 4.912 7.828l1.869-.71c-1.248-3.286-3.029-6.128-5.347-8.512l-1.434 1.394Zm4.918 7.844c1.214 3.034 1.829 6.421 1.829 10.174h2c0-3.974-.652-7.617-1.972-10.916l-1.857.742Zm1.829 10.174c0 3.687-.614 7.043-1.829 10.079l1.857.742c1.319-3.297 1.972-6.908 1.972-10.821h-2Zm-1.835 10.095c-1.159 3.049-2.8 5.69-4.922 7.933l1.453 1.374c2.312-2.444 4.091-5.313 5.338-8.597l-1.869-.71Zm-4.922 7.933a22.158 22.158 0 0 1-7.184 5.093l.812 1.828a24.197 24.197 0 0 0 7.826-5.547l-1.454-1.374Zm-7.184 5.093c-2.718 1.208-5.619 1.814-8.714 1.814v2c3.364 0 6.543-.661 9.526-1.986l-.812-1.828Zm-8.714 1.814c-2.167 0-4.201-.361-6.109-1.076l-.702 1.872c2.144.805 4.417 1.204 6.811 1.204v-2Zm-6.126-1.082a16.083 16.083 0 0 1-5.011-2.864l-1.287 1.532a18.094 18.094 0 0 0 5.629 3.216l.669-1.884Zm-6.654-2.098V172.175h2V163.15h-2Zm0 9.025V181.2h2V172.175h-2Zm10.69-17.715c3.364 0 6.1-1.182 8.087-3.594l-1.544-1.272c-1.561 1.895-3.701 2.866-6.543 2.866v2Zm8.085-3.592c2.022-2.441 2.985-5.632 2.985-9.473h-2c0 3.506-.874 6.204-2.525 8.197l1.54 1.276Zm2.985-9.473c0-3.839-.962-7.006-2.995-9.389l-1.521 1.298c1.641 1.924 2.516 4.583 2.516 8.091h2Zm-2.983-9.376c-1.987-2.412-4.723-3.594-8.087-3.594v2c2.842 0 4.982.971 6.543 2.866l1.544-1.272Zm-8.087-3.594c-3.319 0-6.047 1.227-8.085 3.687l1.54 1.276c1.634-1.973 3.783-2.963 6.545-2.963v-2Zm-8.076 3.676c-2.03 2.38-2.994 5.513-2.994 9.294h2c0-3.439.872-6.069 2.515-7.996l-1.521-1.298Zm-2.994 9.294c0 3.782.965 6.94 2.985 9.378l1.54-1.276c-1.654-1.995-2.525-4.664-2.525-8.102h-2Zm2.985 9.378c2.038 2.46 4.766 3.687 8.085 3.687v-2c-2.762 0-4.911-.99-6.545-2.963l-1.54 1.276Zm44.956-40.823-.52.854.008.005.008.005.504-.864Zm-3.515-3.515.854-.52-.854.52Zm0-9.595.843.537.006-.008.005-.01-.854-.519Zm3.515-3.515-.504-.864-.008.005-.008.005.52.854Zm9.88 0-.52.854.008.005.008.005.504-.864Zm3.61 3.515-.854.52.005.008.005.009.844-.537Zm-3.61 13.11-.504-.864-.008.005-.008.005.52.854ZM599.042 166h-1v1h1v-1Zm0-49.115v-1h-1v1h1Zm15.675 0h1v-1h-1v1Zm0 49.115v1h1v-1h-1Zm-7.79-55.72c-1.668 0-3.171-.4-4.531-1.194l-1.008 1.728c1.68.98 3.533 1.466 5.539 1.466v-2Zm-4.515-1.184a9.381 9.381 0 0 1-3.181-3.181l-1.708 1.04a11.366 11.366 0 0 0 3.849 3.849l1.04-1.708Zm-3.181-3.181c-.787-1.294-1.184-2.727-1.184-4.325h-2c0 1.949.49 3.745 1.476 5.365l1.708-1.04Zm-1.184-4.325c0-1.598.396-2.992 1.173-4.213l-1.687-1.074c-.996 1.566-1.486 3.338-1.486 5.287h2Zm1.184-4.23a9.376 9.376 0 0 1 3.181-3.18l-1.04-1.71a11.364 11.364 0 0 0-3.849 3.85l1.708 1.04Zm3.165-3.171c1.36-.794 2.863-1.194 4.531-1.194v-2c-2.006 0-3.859.486-5.539 1.466l1.008 1.728Zm4.531-1.194c1.597 0 3.031.397 4.325 1.184l1.04-1.708c-1.62-.986-3.416-1.476-5.365-1.476v2Zm4.341 1.194c1.381.806 2.462 1.86 3.26 3.17l1.708-1.039c-.976-1.603-2.302-2.891-3.96-3.859l-1.008 1.728Zm3.27 3.188c.777 1.22 1.174 2.615 1.174 4.213h2c0-1.949-.49-3.721-1.487-5.287l-1.687 1.074Zm1.174 4.213c0 1.598-.397 3.031-1.184 4.325l1.708 1.04c.986-1.62 1.476-3.416 1.476-5.365h-2Zm-1.184 4.325c-.798 1.31-1.879 2.365-3.26 3.171l1.008 1.728c1.658-.968 2.984-2.256 3.96-3.859l-1.708-1.04Zm-3.276 3.181c-1.294.787-2.728 1.184-4.325 1.184v2c1.949 0 3.745-.49 5.365-1.476l-1.04-1.708ZM600.042 166V141.49h-2V166h2Zm0-24.51V116.885h-2V141.49h2Zm-1-23.605H606.927v-2H599.042v2Zm7.885 0H614.717v-2H606.927v2Zm6.79-1V141.49h2V116.885h-2Zm0 24.605V166h2V141.49h-2Zm1 23.51H606.927v2H614.717v-2Zm-7.79 0H599.042v2H606.927v-2Zm19.015-36.24.878.478.004-.007-.882-.471Zm8.17-8.835.537.844-.537-.844Zm12.16-3.99.095.996.014-.002-.109-.994Zm14.82 1.615h1v-.743l-.712-.215-.288.958Zm0 14.63-.435.901 1.435.692v-1.593h-1Zm-10.545-2.47-.038-.999.038.999Zm-8.265 3.135.661.75.006-.006.006-.005-.673-.739Zm0 17.195-.674.739.006.005.006.006.662-.75Zm8.265 3.04-.038.999.009.001h.01l.019-1Zm10.545-2.47h1v-1.569l-1.422.662.422.907Zm0 14.63.288.958.712-.215v-.743h-1Zm-14.82 1.615.109-.994-.014-.001-.095.995Zm-12.16-3.99-.537.844.537-.844Zm-8.17-8.74-.882.471.003.007.879-.478Zm-1.945-12.73c0-4.675.952-8.717 2.823-12.157l-1.757-.956c-2.056 3.78-3.066 8.161-3.066 13.113h2Zm2.827-12.164c1.883-3.523 4.488-6.339 7.825-8.462l-1.074-1.688c-3.63 2.31-6.472 5.384-8.515 9.208l1.764.942Zm7.825-8.462c3.334-2.122 7.232-3.408 11.718-3.839l-.191-1.99c-4.76.456-8.969 1.83-12.601 4.141l1.074 1.688Zm11.732-3.84c4.468-.49 9.271.027 14.422 1.579l.577-1.916c-5.362-1.615-10.439-2.175-15.217-1.651l.218 1.988Zm13.711.621V124.865h2V117.55h-2Zm0 7.315V132.18h2V124.865h-2Zm1.434 6.414c-3.789-1.829-7.466-2.702-11.017-2.568l.075 1.998c3.162-.119 6.515.654 10.073 2.372l.869-1.802Zm-11.017-2.568c-3.555.134-6.547 1.249-8.901 3.395l1.347 1.478c1.953-1.78 4.471-2.756 7.629-2.875l-.075-1.998Zm-8.889 3.384c-2.432 2.146-3.568 5.311-3.568 9.3h2c0-3.611 1.017-6.146 2.891-7.8l-1.323-1.5Zm-3.568 9.3c0 3.991 1.136 7.178 3.556 9.384l1.347-1.478c-1.887-1.72-2.903-4.297-2.903-7.906h-2Zm3.568 9.395c2.355 2.078 5.343 3.155 8.889 3.289l.075-1.998c-3.167-.12-5.689-1.069-7.641-2.791l-1.323 1.5Zm8.908 3.29c3.537.067 7.203-.802 10.986-2.563l-.844-1.814c-3.564 1.659-6.928 2.437-10.104 2.377l-.038 2Zm9.564-3.47V157.925h2V150.61h-2Zm0 7.315V165.24h2V157.925h-2Zm.711 6.357c-5.151 1.552-9.954 2.069-14.422 1.579l-.218 1.988c4.778.524 9.855-.036 15.217-1.651l-.577-1.916Zm-14.436 1.578c-4.486-.431-8.384-1.717-11.718-3.839l-1.074 1.688c3.632 2.311 7.841 3.685 12.601 4.141l.191-1.99Zm-11.718-3.839c-3.341-2.126-5.947-4.913-7.829-8.374l-1.757.956c2.045 3.759 4.886 6.798 8.512 9.106l1.074-1.688Zm-7.825-8.367c-1.875-3.508-2.827-7.584-2.827-12.259h-2c0 4.952 1.011 9.362 3.063 13.201l1.764-.942Zm78.213 6.836-.752-.659-.001.002.753.657Zm-8.74 5.415.297.955-.297-.955Zm-12.35 1.425.042-.999-.014-.001-.028 1Zm-13.775-2.185h-1v.756l.727.206.273-.962Zm0-14.82.412-.911-1.412-.639v1.55h1Zm7.98 2.85-.253.967.011.003.011.003.231-.973Zm7.22 1.14-.058.998.058-.998Zm5.225-.475.317.949.02-.007.019-.008-.356-.934Zm.285-4.56-.425.905.009.004.01.005.406-.914Zm-4.275-1.33-.242.97.016.004.017.004.209-.978Zm-5.7-1.52-.307.952.018.006.019.005.27-.963Zm-5.605-2.565-.54.841.01.007.011.007.519-.855Zm-4.37-4.465-.87.493.01.017.011.017.849-.527Zm1.425-16.34-.771-.636-.002.002.773.634Zm8.36-5.7.342.94.008-.003.007-.003-.357-.934Zm24.89.19h1v-.727l-.692-.224-.308.951Zm0 14.82-.434.901 1.434.691v-1.592h-1Zm-17.48-3.61.196.981.016-.004.016-.003-.228-.974Zm-1.235 4.655-.425.905.031.015.032.012.362-.932Zm4.275 1.235-.217.976.008.002.209-.978Zm5.605 1.52-.307.952.009.002.298-.954Zm5.605 2.66-.554.832.017.012.018.011.519-.855Zm4.275 4.56-.877.481.01.017.01.016.857-.514Zm.71 7.41c0 3.727-1.046 6.71-3.077 9.031l1.505 1.318c2.402-2.746 3.572-6.223 3.572-10.349h-2Zm-3.078 9.033c-2.012 2.307-4.756 4.022-8.283 5.117l.593 1.91c3.819-1.185 6.902-3.08 9.197-5.713l-1.507-1.314Zm-8.283 5.117c-3.546 1.1-7.546 1.567-12.012 1.381l-.083 1.998c4.653.194 8.887-.289 12.688-1.469l-.593-1.91Zm-12.026 1.38c-4.407-.124-8.916-.838-13.53-2.147l-.546 1.924c4.76 1.351 9.434 2.093 14.02 2.223l.056-2Zm-12.803-1.185V157.735h-2V165.145h2Zm0-7.41V150.325h-2V157.735h2Zm-1.412-6.499a51.157 51.157 0 0 0 8.139 2.906l.507-1.934a49.33 49.33 0 0 1-7.822-2.794l-.824 1.822Zm8.161 2.912c2.702.643 5.168 1.034 7.393 1.165l.117-1.996c-2.082-.123-4.43-.492-7.047-1.115l-.463 1.946Zm7.393 1.165c2.219.131 4.102-.025 5.6-.524l-.633-1.898c-1.162.388-2.762.549-4.85.426l-.117 1.996Zm5.639-.539c.776-.295 1.443-.714 1.918-1.303.488-.604.721-1.321.721-2.101h-2c0 .36-.099.625-.276.844-.19.235-.52.48-1.075.692l.712 1.868Zm2.639-3.404c0-1.441-.975-2.413-2.304-3.004l-.812 1.828c.951.422 1.116.844 1.116 1.176h2Zm-2.284-2.995c-1.172-.551-2.678-1.014-4.491-1.403l-.419 1.956c1.733.371 3.077.795 4.059 1.257l.851-1.81Zm-4.458-1.395a202.24 202.24 0 0 1-5.672-1.513l-.541 1.926c2.034.572 3.944 1.081 5.728 1.527l.485-1.94Zm-5.636-1.502a25.33 25.33 0 0 1-5.393-2.468l-1.038 1.71a27.389 27.389 0 0 0 5.817 2.662l.614-1.904Zm-5.371-2.454c-1.645-1.058-2.997-2.438-4.061-4.151l-1.699 1.054c1.216 1.96 2.777 3.557 4.679 4.779l1.081-1.682Zm-4.041-4.117c-.966-1.705-1.485-3.958-1.485-6.822h-2c0 3.089.558 5.713 1.745 7.808l1.74-.986Zm-1.485-6.822c0-3.342.95-6.119 2.813-8.391l-1.546-1.268c-2.189 2.668-3.267 5.908-3.267 9.659h2Zm2.812-8.389c1.962-2.378 4.592-4.183 7.93-5.396l-.683-1.88c-3.629 1.32-6.572 3.316-8.79 6.004l1.543 1.272Zm7.945-5.402c3.353-1.28 7.125-1.929 11.328-1.929v-2c-4.41 0-8.428.681-12.041 2.061l.713 1.868Zm11.328-1.929c4.193 0 8.49.709 12.897 2.136l.616-1.902c-4.586-1.486-9.092-2.234-13.513-2.234v2Zm12.205 1.185V124.96h2V117.55h-2Zm0 7.41V132.37h2V124.96h-2Zm1.435 6.509c-3.609-1.739-7.019-2.913-10.229-3.503l-.361 1.968c2.997.55 6.236 1.656 9.721 3.337l.869-1.802Zm-10.229-3.503c-3.165-.581-5.822-.668-7.913-.18l.455 1.948c1.708-.399 4.055-.359 7.097.2l.361-1.968Zm-7.882-.187c-1.042.209-1.95.57-2.61 1.164-.695.626-1.044 1.447-1.044 2.382h2c0-.395.127-.666.382-.895.29-.261.807-.518 1.664-.689l-.392-1.962Zm-3.654 3.546c0 1.409.904 2.39 2.19 2.995l.851-1.81c-.868-.408-1.041-.821-1.041-1.185h-2Zm2.253 3.022c1.203.468 2.68.892 4.42 1.279l.434-1.952c-1.679-.373-3.052-.772-4.129-1.191l-.725 1.864Zm4.428 1.281c1.736.372 3.572.869 5.507 1.494l.614-1.904a58.805 58.805 0 0 0-5.702-1.546l-.419 1.956Zm5.516 1.496a20.761 20.761 0 0 1 5.349 2.538l1.109-1.664a22.694 22.694 0 0 0-5.861-2.782l-.597 1.908Zm5.384 2.561c1.612.978 2.918 2.364 3.917 4.186l1.754-.962c-1.154-2.104-2.698-3.759-4.633-4.934l-1.038 1.71Zm3.937 4.219c1.018 1.698 1.567 3.972 1.567 6.896h2c0-3.156-.59-5.822-1.852-7.924l-1.715 1.028Z"/><path fill="#fff" d="M33.58 138.8c0-9.24 1.44-17.64 4.32-25.2 3-7.68 7.2-14.34 12.6-19.98 5.4-5.64 11.88-10.02 19.44-13.14 7.56-3.12 15.9-4.8 25.02-5.04 9.24-.24 19.08 1.2 29.52 4.32v30.42c-7.08-3.36-14.1-5.28-21.06-5.76-6.96-.48-13.26.48-18.9 2.88-5.64 2.4-10.14 6.24-13.5 11.52-3.36 5.16-5.04 11.82-5.04 19.98s1.68 14.88 5.04 20.16c3.36 5.16 7.86 8.94 13.5 11.34 5.64 2.4 11.94 3.36 18.9 2.88 6.96-.48 13.98-2.4 21.06-5.76v30.42c-10.44 3.12-20.28 4.56-29.52 4.32-9.12-.24-17.46-1.92-25.02-5.04-7.56-3.12-14.04-7.5-19.44-13.14-5.4-5.64-9.6-12.24-12.6-19.8-2.88-7.68-4.32-16.14-4.32-25.38Z"/><path fill="#000" d="m37.9 113.6-.931-.364-.004.008.935.356Zm12.6-19.98-.722-.692.722.692Zm19.44-13.14.382.924-.382-.924Zm25.02-5.04-.026-1 .026 1Zm29.52 4.32h1v-.745l-.714-.213-.286.958Zm0 30.42-.429.903 1.429.678v-1.581h-1Zm-39.96-2.88-.392-.92.392.92Zm-13.5 11.52.838.546.006-.009-.844-.537Zm0 40.14-.844.537.006.009.838-.546Zm13.5 11.34-.392.92.392-.92Zm18.9 2.88.069.998-.069-.998Zm21.06-5.76h1v-1.581l-1.429.678.429.903Zm0 30.42.286.958.714-.213v-.745h-1Zm-29.52 4.32-.026 1 .026-1Zm-25.02-5.04.382-.924-.382.924ZM50.5 183.98l-.722.692.722-.692Zm-12.6-19.8-.936.351.003.009.004.009.929-.369Zm-3.32-25.38c0-9.135 1.424-17.413 4.255-24.844l-1.87-.712c-2.929 7.689-4.385 16.211-4.385 25.556h2Zm4.252-24.836c2.955-7.565 7.086-14.112 12.39-19.652l-1.444-1.384c-5.496 5.74-9.765 12.513-12.81 20.308l1.863.728Zm12.39-19.652c5.3-5.535 11.662-9.838 19.1-12.908l-.764-1.848c-7.682 3.17-14.28 7.627-19.78 13.372l1.444 1.384Zm19.1-12.908c7.434-3.068 15.652-4.727 24.664-4.964l-.052-2c-9.228.243-17.69 1.944-25.376 5.116l.763 1.848Zm24.664-4.964c9.117-.237 18.851 1.183 29.208 4.278l.572-1.916c-10.523-3.145-20.469-4.605-29.832-4.362l.052 2Zm28.494 3.32V95.06h2V79.76h-2Zm0 15.3V110.18h2V95.06h-2Zm1.429 14.217c-7.179-3.407-14.321-5.365-21.42-5.855l-.138 1.996c6.821.47 13.719 2.352 20.7 5.665l.858-1.806Zm-21.42-5.855c-7.096-.489-13.556.488-19.36 2.958l.783 1.84c5.475-2.33 11.615-3.273 18.439-2.802l.138-1.996Zm-19.36 2.958c-5.83 2.481-10.487 6.456-13.953 11.903l1.688 1.074c3.254-5.113 7.598-8.818 13.048-11.137l-.784-1.84Zm-13.947 11.894c-3.495 5.368-5.202 12.234-5.202 20.526h2c0-8.028 1.653-14.482 4.878-19.434l-1.676-1.092ZM64.98 138.8c0 8.293 1.707 15.214 5.196 20.697l1.688-1.074c-3.232-5.077-4.884-11.596-4.884-19.623h-2Zm5.202 20.706c3.468 5.325 8.123 9.236 13.946 11.714l.784-1.84c-5.457-2.322-9.802-5.971-13.054-10.966l-1.676 1.092Zm13.946 11.714c5.805 2.47 12.265 3.447 19.361 2.958l-.138-1.996c-6.824.471-12.964-.472-18.44-2.802l-.783 1.84Zm19.361 2.958c7.099-.49 14.241-2.448 21.42-5.855l-.858-1.806c-6.981 3.313-13.879 5.195-20.7 5.665l.138 1.996Zm19.991-6.758V182.72h2V167.42h-2Zm0 15.3V197.84h2V182.72h-2Zm.714 14.162c-10.357 3.095-20.091 4.515-29.208 4.278l-.052 2c9.363.243 19.309-1.217 29.832-4.362l-.572-1.916Zm-29.208 4.278c-9.012-.237-17.23-1.896-24.665-4.964l-.763 1.848c7.686 3.172 16.148 4.873 25.376 5.116l.052-2Zm-24.665-4.964c-7.437-3.07-13.8-7.373-19.099-12.908l-1.444 1.384c5.5 5.745 12.098 10.202 19.78 13.372l.763-1.848Zm-19.099-12.908c-5.307-5.543-9.438-12.032-12.392-19.477l-1.86.738c3.046 7.675 7.315 14.385 12.808 20.123l1.444-1.384Zm-12.386-19.459c-2.833-7.555-4.256-15.894-4.256-25.029h-2c0 9.345 1.457 17.926 4.384 25.731l1.872-.702Z"/></g><defs><clipPath id="a"><rect width="733" height="289" fill="#fff" rx="130"/></clipPath></defs></svg>