<svg width="341" height="169" viewBox="0 0 341 169" fill="none" xmlns="http://www.w3.org/2000/svg">
<g clip-path="url(#clip0_204_3)">
<rect width="341" height="169" fill="white"/>
<line x1="-33.961" y1="-16.0819" x2="243.039" y2="249.918" stroke="black" stroke-width="3"/>
<line x1="55.0796" y1="-37.0413" x2="327.08" y2="244.959" stroke="#DA0322" stroke-width="3"/>
<line x1="152.091" y1="-37.0293" x2="418.091" y2="244.971" stroke="#F6C206" stroke-width="3"/>
<line x1="252.117" y1="-37.0017" x2="505.117" y2="244.998" stroke="#00A13E" stroke-width="3"/>
<path d="M406 84C392.36 91.942 363.519 107 346 107C328.481 107 208.467 -8.17177 216.397 -23.601C225.914 -32.6457 290.709 -30 314.5 -30C330.043 -30 411.075 69.6349 406 84Z" fill="#00A13E"/>
<path d="M352.5 128.5C332.22 143.454 402.547 220 376.5 220C350.453 220 110.8 35.1 122.591 6.04866C136.739 -10.9815 198.05 -4.97083 233.421 -4.97084C256.53 -4.97084 360.046 101.452 352.5 128.5Z" fill="#F6C206"/>
<path d="M318.724 196.056C297.224 210.983 242.838 203.056 215.224 203.056C187.61 203.056 0.0973635 26.5555 12.5974 -2.44446C27.5974 -19.4445 101.724 -2.44443 139.224 -2.44444C163.724 -2.44445 326.724 169.056 318.724 196.056Z" fill="#DA0322"/>
<path d="M214.5 187C214.5 214.668 134.384 183.431 104.573 183.431C74.7613 183.431 -74.6349 44.1588 -61.1403 15.102C-44.9469 -1.93124 -12.9836 -5.49999 27.5 -5.5C53.9493 -5.50001 214.5 159.332 214.5 187Z" fill="black"/>
<path d="M99.5 187.5C99.5 214.77 101.217 257.211 71.6756 257.211C42.1338 257.211 -69.2635 126.639 -55.8909 98C-39.8439 81.2119 -70.0085 67 -29.891 67C-3.68081 67 99.5 160.23 99.5 187.5Z" fill="#0085C9"/>
<path d="M93 90C93 89.7867 93 89.5867 93 89.4C93 89.1867 93 88.9867 93 88.8C92.3333 89.36 91.5733 89.7867 90.72 90.08C89.8933 90.4 89 90.56 88.04 90.56C86.68 90.56 85.4 90.3067 84.2 89.8C83 89.2667 81.9333 88.52 81 87.56C80.0933 86.5733 79.3733 85.4133 78.84 84.08C78.3333 82.7467 78.08 81.2667 78.08 79.64C78.08 77.9867 78.3333 76.4933 78.84 75.16C79.3733 73.8267 80.0933 72.6933 81 71.76C81.9333 70.8 83 70.0667 84.2 69.56C85.4 69.0267 86.6667 68.76 88 68.76C88.96 68.76 89.8667 68.92 90.72 69.24C91.5733 69.5333 92.3333 69.9467 93 70.48C93 70.2667 93 70.0667 93 69.88C93 69.6933 93 69.5067 93 69.32C94.0933 69.32 95.2 69.32 96.32 69.32C97.44 69.32 98.5333 69.32 99.6 69.32C99.6 72.7333 99.6 76.1867 99.6 79.68C99.6 83.1467 99.6 86.5867 99.6 90C98.5333 90 97.44 90 96.32 90C95.2 90 94.0933 90 93 90ZM88.92 84.72C90.2 84.72 91.2267 84.2533 92 83.32C92.7733 82.3867 93.16 81.16 93.16 79.64C93.16 78.12 92.7733 76.9067 92 76C91.2267 75.0667 90.2 74.6 88.92 74.6C87.6133 74.6 86.5733 75.0533 85.8 75.96C85.0533 76.8667 84.68 78.0933 84.68 79.64C84.68 81.1867 85.0533 82.4267 85.8 83.36C86.5733 84.2667 87.6133 84.72 88.92 84.72ZM110.605 96.4C109.538 96.4 108.445 96.4 107.325 96.4C106.205 96.4 105.098 96.4 104.005 96.4C104.005 91.9467 104.005 87.44 104.005 82.88C104.005 78.2933 104.005 73.7733 104.005 69.32C105.098 69.32 106.205 69.32 107.325 69.32C108.445 69.32 109.538 69.32 110.605 69.32C110.605 69.5067 110.605 69.6933 110.605 69.88C110.605 70.0667 110.605 70.2667 110.605 70.48C111.271 69.9467 112.031 69.5333 112.885 69.24C113.738 68.92 114.645 68.76 115.605 68.76C116.938 68.76 118.205 69.0267 119.405 69.56C120.605 70.0667 121.658 70.8 122.565 71.76C123.498 72.72 124.218 73.8667 124.725 75.2C125.258 76.5333 125.525 78.0133 125.525 79.64C125.525 81.24 125.258 82.7067 124.725 84.04C124.218 85.3733 123.498 86.5333 122.565 87.52C121.658 88.48 120.605 89.2267 119.405 89.76C118.205 90.2933 116.925 90.56 115.565 90.56C114.605 90.56 113.698 90.4 112.845 90.08C112.018 89.7867 111.271 89.36 110.605 88.8C110.605 90.0533 110.605 91.32 110.605 92.6C110.605 93.88 110.605 95.1467 110.605 96.4ZM114.685 84.72C115.991 84.72 117.018 84.2667 117.765 83.36C118.538 82.4267 118.925 81.1867 118.925 79.64C118.925 78.0933 118.538 76.8667 117.765 75.96C117.018 75.0533 115.991 74.6 114.685 74.6C113.405 74.6 112.378 75.0667 111.605 76C110.831 76.9067 110.445 78.12 110.445 79.64C110.445 81.16 110.831 82.3867 111.605 83.32C112.378 84.2533 113.405 84.72 114.685 84.72ZM132.329 66.96C131.556 66.96 130.849 66.7733 130.209 66.4C129.596 66.0267 129.103 65.5333 128.729 64.92C128.356 64.3067 128.169 63.6267 128.169 62.88C128.169 62.1333 128.356 61.4667 128.729 60.88C129.103 60.2667 129.596 59.7733 130.209 59.4C130.849 59.0267 131.556 58.84 132.329 58.84C133.076 58.84 133.756 59.0267 134.369 59.4C135.009 59.7733 135.516 60.2667 135.889 60.88C136.263 61.4667 136.449 62.1333 136.449 62.88C136.449 63.6267 136.263 64.3067 135.889 64.92C135.516 65.5333 135.009 66.0267 134.369 66.4C133.756 66.7733 133.076 66.96 132.329 66.96ZM129.009 90C129.009 86.5867 129.009 83.1467 129.009 79.68C129.009 76.1867 129.009 72.7333 129.009 69.32C130.103 69.32 131.209 69.32 132.329 69.32C133.449 69.32 134.543 69.32 135.609 69.32C135.609 72.7333 135.609 76.1867 135.609 79.68C135.609 83.1467 135.609 86.5867 135.609 90C134.543 90 133.449 90 132.329 90C131.209 90 130.103 90 129.009 90ZM142.376 90C142.376 87.5467 142.376 85.08 142.376 82.6C142.376 80.12 142.376 77.6667 142.376 75.24C141.842 75.24 141.296 75.24 140.736 75.24C140.202 75.24 139.669 75.24 139.136 75.24C139.136 74.2533 139.136 73.2667 139.136 72.28C139.136 71.2933 139.136 70.3067 139.136 69.32C139.669 69.32 140.202 69.32 140.736 69.32C141.296 69.32 141.842 69.32 142.376 69.32C142.376 68.3867 142.376 67.4667 142.376 66.56C142.376 65.6267 142.376 64.7067 142.376 63.8C143.469 63.8 144.576 63.8 145.696 63.8C146.816 63.8 147.909 63.8 148.976 63.8C148.976 64.7067 148.976 65.6267 148.976 66.56C148.976 67.4667 148.976 68.3867 148.976 69.32C149.589 69.32 150.216 69.32 150.856 69.32C151.496 69.32 152.122 69.32 152.736 69.32C152.736 70.3067 152.736 71.2933 152.736 72.28C152.736 73.2667 152.736 74.2533 152.736 75.24C152.122 75.24 151.496 75.24 150.856 75.24C150.216 75.24 149.589 75.24 148.976 75.24C148.976 77.6667 148.976 80.12 148.976 82.6C148.976 85.08 148.976 87.5467 148.976 90C147.909 90 146.816 90 145.696 90C144.576 90 143.469 90 142.376 90ZM169.523 90C169.523 89.7867 169.523 89.5867 169.523 89.4C169.523 89.1867 169.523 88.9867 169.523 88.8C168.857 89.36 168.097 89.7867 167.243 90.08C166.417 90.4 165.523 90.56 164.563 90.56C163.203 90.56 161.923 90.3067 160.723 89.8C159.523 89.2667 158.457 88.52 157.523 87.56C156.617 86.5733 155.897 85.4133 155.363 84.08C154.857 82.7467 154.603 81.2667 154.603 79.64C154.603 77.9867 154.857 76.4933 155.363 75.16C155.897 73.8267 156.617 72.6933 157.523 71.76C158.457 70.8 159.523 70.0667 160.723 69.56C161.923 69.0267 163.19 68.76 164.523 68.76C165.483 68.76 166.39 68.92 167.243 69.24C168.097 69.5333 168.857 69.9467 169.523 70.48C169.523 70.2667 169.523 70.0667 169.523 69.88C169.523 69.6933 169.523 69.5067 169.523 69.32C170.617 69.32 171.723 69.32 172.843 69.32C173.963 69.32 175.057 69.32 176.123 69.32C176.123 72.7333 176.123 76.1867 176.123 79.68C176.123 83.1467 176.123 86.5867 176.123 90C175.057 90 173.963 90 172.843 90C171.723 90 170.617 90 169.523 90ZM165.443 84.72C166.723 84.72 167.75 84.2533 168.523 83.32C169.297 82.3867 169.683 81.16 169.683 79.64C169.683 78.12 169.297 76.9067 168.523 76C167.75 75.0667 166.723 74.6 165.443 74.6C164.137 74.6 163.097 75.0533 162.323 75.96C161.577 76.8667 161.203 78.0933 161.203 79.64C161.203 81.1867 161.577 82.4267 162.323 83.36C163.097 84.2667 164.137 84.72 165.443 84.72ZM180.728 90C180.728 85.1733 180.728 80.3067 180.728 75.4C180.728 70.4933 180.728 65.6267 180.728 60.8C181.821 60.8 182.928 60.8 184.048 60.8C185.168 60.8 186.261 60.8 187.328 60.8C187.328 65.6267 187.328 70.4933 187.328 75.4C187.328 80.3067 187.328 85.1733 187.328 90C186.261 90 185.168 90 184.048 90C182.928 90 181.821 90 180.728 90ZM193.854 96.4C194.388 94.9867 194.934 93.56 195.494 92.12C196.081 90.7067 196.641 89.3067 197.174 87.92C195.921 84.8533 194.641 81.76 193.334 78.64C192.054 75.4933 190.788 72.3867 189.534 69.32C190.708 69.32 191.881 69.32 193.054 69.32C194.228 69.32 195.388 69.32 196.534 69.32C197.228 71.0267 197.921 72.76 198.614 74.52C199.334 76.28 200.041 78.0267 200.734 79.76C201.374 78.0267 202.028 76.28 202.694 74.52C203.361 72.76 204.014 71.0267 204.654 69.32C205.801 69.32 206.948 69.32 208.094 69.32C209.241 69.32 210.388 69.32 211.534 69.32C209.748 73.7733 207.948 78.2933 206.134 82.88C204.348 87.44 202.561 91.9467 200.774 96.4C199.628 96.4 198.468 96.4 197.294 96.4C196.148 96.4 195.001 96.4 193.854 96.4ZM213.536 90C213.536 86.5867 213.536 83.1467 213.536 79.68C213.536 76.1867 213.536 72.7333 213.536 69.32C214.629 69.32 215.736 69.32 216.856 69.32C217.976 69.32 219.069 69.32 220.136 69.32C220.136 69.5067 220.136 69.68 220.136 69.84C220.136 70 220.136 70.1733 220.136 70.36C220.829 69.8533 221.603 69.4667 222.456 69.2C223.309 68.9067 224.189 68.76 225.096 68.76C226.083 68.76 226.989 68.9333 227.816 69.28C228.643 69.6 229.349 70.08 229.936 70.72C230.789 70.1067 231.749 69.6267 232.816 69.28C233.909 68.9333 235.029 68.76 236.176 68.76C237.803 68.76 239.203 69.0933 240.376 69.76C241.576 70.4267 242.496 71.3733 243.136 72.6C243.803 73.8267 244.136 75.3067 244.136 77.04C244.136 79.1733 244.136 81.3333 244.136 83.52C244.136 85.7067 244.136 87.8667 244.136 90C243.069 90 241.976 90 240.856 90C239.736 90 238.629 90 237.536 90C237.536 88 237.536 85.9733 237.536 83.92C237.536 81.8667 237.536 79.84 237.536 77.84C237.536 76.9333 237.323 76.2 236.896 75.64C236.496 75.0533 235.843 74.76 234.936 74.76C234.056 74.76 233.363 75.04 232.856 75.6C232.376 76.1333 232.136 76.88 232.136 77.84C232.136 79.84 232.136 81.8667 232.136 83.92C232.136 85.9733 232.136 88 232.136 90C231.069 90 229.976 90 228.856 90C227.736 90 226.629 90 225.536 90C225.536 88 225.536 85.9733 225.536 83.92C225.536 81.8667 225.536 79.84 225.536 77.84C225.536 76.9333 225.323 76.2 224.896 75.64C224.496 75.0533 223.843 74.76 222.936 74.76C222.056 74.76 221.363 75.04 220.856 75.6C220.376 76.1333 220.136 76.88 220.136 77.84C220.136 79.84 220.136 81.8667 220.136 83.92C220.136 85.9733 220.136 88 220.136 90C219.069 90 217.976 90 216.856 90C215.736 90 214.629 90 213.536 90ZM254.823 96.4C253.757 96.4 252.663 96.4 251.543 96.4C250.423 96.4 249.317 96.4 248.223 96.4C248.223 91.9467 248.223 87.44 248.223 82.88C248.223 78.2933 248.223 73.7733 248.223 69.32C249.317 69.32 250.423 69.32 251.543 69.32C252.663 69.32 253.757 69.32 254.823 69.32C254.823 69.5067 254.823 69.6933 254.823 69.88C254.823 70.0667 254.823 70.2667 254.823 70.48C255.49 69.9467 256.25 69.5333 257.103 69.24C257.957 68.92 258.863 68.76 259.823 68.76C261.157 68.76 262.423 69.0267 263.623 69.56C264.823 70.0667 265.877 70.8 266.783 71.76C267.717 72.72 268.437 73.8667 268.943 75.2C269.477 76.5333 269.743 78.0133 269.743 79.64C269.743 81.24 269.477 82.7067 268.943 84.04C268.437 85.3733 267.717 86.5333 266.783 87.52C265.877 88.48 264.823 89.2267 263.623 89.76C262.423 90.2933 261.143 90.56 259.783 90.56C258.823 90.56 257.917 90.4 257.063 90.08C256.237 89.7867 255.49 89.36 254.823 88.8C254.823 90.0533 254.823 91.32 254.823 92.6C254.823 93.88 254.823 95.1467 254.823 96.4ZM258.903 84.72C260.21 84.72 261.237 84.2667 261.983 83.36C262.757 82.4267 263.143 81.1867 263.143 79.64C263.143 78.0933 262.757 76.8667 261.983 75.96C261.237 75.0533 260.21 74.6 258.903 74.6C257.623 74.6 256.597 75.0667 255.823 76C255.05 76.9067 254.663 78.12 254.663 79.64C254.663 81.16 255.05 82.3867 255.823 83.32C256.597 84.2533 257.623 84.72 258.903 84.72ZM276.548 66.96C275.775 66.96 275.068 66.7733 274.428 66.4C273.815 66.0267 273.321 65.5333 272.948 64.92C272.575 64.3067 272.388 63.6267 272.388 62.88C272.388 62.1333 272.575 61.4667 272.948 60.88C273.321 60.2667 273.815 59.7733 274.428 59.4C275.068 59.0267 275.775 58.84 276.548 58.84C277.295 58.84 277.975 59.0267 278.588 59.4C279.228 59.7733 279.735 60.2667 280.108 60.88C280.481 61.4667 280.668 62.1333 280.668 62.88C280.668 63.6267 280.481 64.3067 280.108 64.92C279.735 65.5333 279.228 66.0267 278.588 66.4C277.975 66.7733 277.295 66.96 276.548 66.96ZM273.228 90C273.228 86.5867 273.228 83.1467 273.228 79.68C273.228 76.1867 273.228 72.7333 273.228 69.32C274.321 69.32 275.428 69.32 276.548 69.32C277.668 69.32 278.761 69.32 279.828 69.32C279.828 72.7333 279.828 76.1867 279.828 79.68C279.828 83.1467 279.828 86.5867 279.828 90C278.761 90 277.668 90 276.548 90C275.428 90 274.321 90 273.228 90ZM283.314 79.64C283.314 77.6133 283.728 75.84 284.554 74.32C285.381 72.7733 286.528 71.5333 287.994 70.6C289.461 69.6667 291.168 69.1067 293.114 68.92C295.061 68.7067 297.141 68.9333 299.354 69.6C299.354 70.6133 299.354 71.64 299.354 72.68C299.354 73.72 299.354 74.7467 299.354 75.76C297.808 75.0133 296.328 74.6667 294.914 74.72C293.501 74.7733 292.341 75.2133 291.434 76.04C290.528 76.84 290.074 78.04 290.074 79.64C290.074 81.24 290.528 82.4533 291.434 83.28C292.341 84.08 293.501 84.5067 294.914 84.56C296.328 84.5867 297.808 84.24 299.354 83.52C299.354 84.5333 299.354 85.56 299.354 86.6C299.354 87.64 299.354 88.6667 299.354 89.68C297.141 90.3467 295.061 90.5733 293.114 90.36C291.168 90.1733 289.461 89.6133 287.994 88.68C286.528 87.7467 285.381 86.52 284.554 85C283.728 83.4533 283.314 81.6667 283.314 79.64ZM319.258 83.6C319.258 85.2533 318.791 86.6133 317.858 87.68C316.951 88.72 315.724 89.48 314.178 89.96C312.631 90.44 310.898 90.64 308.978 90.56C307.084 90.5067 305.151 90.2 303.178 89.64C303.178 88.6267 303.178 87.5867 303.178 86.52C303.178 85.4533 303.178 84.4133 303.178 83.4C304.298 83.9067 305.418 84.3067 306.538 84.6C307.658 84.8667 308.671 85.0267 309.578 85.08C310.484 85.1333 311.218 85.0667 311.778 84.88C312.338 84.6667 312.618 84.32 312.618 83.84C312.618 83.4667 312.378 83.1733 311.898 82.96C311.444 82.7467 310.844 82.56 310.098 82.4C309.351 82.2133 308.551 82 307.698 81.76C306.871 81.4933 306.084 81.1333 305.338 80.68C304.591 80.2 303.978 79.5733 303.498 78.8C303.044 78 302.818 76.9733 302.818 75.72C302.818 74.2267 303.244 72.96 304.098 71.92C304.978 70.8533 306.151 70.0533 307.618 69.52C309.084 68.96 310.724 68.68 312.538 68.68C314.351 68.68 316.204 68.9867 318.098 69.6C318.098 70.6133 318.098 71.6533 318.098 72.72C318.098 73.7867 318.098 74.8267 318.098 75.84C316.604 75.12 315.204 74.64 313.898 74.4C312.591 74.16 311.538 74.1333 310.738 74.32C309.938 74.48 309.538 74.84 309.538 75.4C309.538 75.7733 309.764 76.0667 310.218 76.28C310.698 76.4667 311.298 76.64 312.018 76.8C312.764 76.96 313.551 77.1733 314.378 77.44C315.231 77.7067 316.018 78.08 316.738 78.56C317.484 79.0133 318.084 79.6533 318.538 80.48C319.018 81.28 319.258 82.32 319.258 83.6Z" fill="white"/>
<path d="M21.976 78.36C21.976 73.432 22.744 68.952 24.28 64.92C25.88 60.824 28.12 57.272 31 54.264C33.88 51.256 37.336 48.92 41.368 47.256C45.4 45.592 49.848 44.696 54.712 44.568C59.64 44.44 64.888 45.208 70.456 46.872C70.456 49.56 70.456 52.28 70.456 55.032C70.456 57.72 70.456 60.408 70.456 63.096C66.68 61.304 62.936 60.28 59.224 60.024C55.512 59.768 52.152 60.28 49.144 61.56C46.136 62.84 43.736 64.888 41.944 67.704C40.152 70.456 39.256 74.008 39.256 78.36C39.256 82.712 40.152 86.296 41.944 89.112C43.736 91.864 46.136 93.88 49.144 95.16C52.152 96.44 55.512 96.952 59.224 96.696C62.936 96.44 66.68 95.416 70.456 93.624C70.456 96.312 70.456 99.032 70.456 101.784C70.456 104.472 70.456 107.16 70.456 109.848C64.888 111.512 59.64 112.28 54.712 112.152C49.848 112.024 45.4 111.128 41.368 109.464C37.336 107.8 33.88 105.464 31 102.456C28.12 99.448 25.88 95.928 24.28 91.896C22.744 87.8 21.976 83.288 21.976 78.36Z" fill="white"/>
</g>
<defs>
<clipPath id="clip0_204_3">
<rect width="341" height="169" fill="white"/>
</clipPath>
</defs>
</svg>
