<svg xmlns="http://www.w3.org/2000/svg" xmlns:xlink="http://www.w3.org/1999/xlink" class="A" id="A" viewBox="0 0 500 500" xmlns:v="https://vecta.io/nano"><style><![CDATA[svg#A.A #B{animation:1s 1 forwards cubic-bezier(.36,-0.01,.5,1.38) slideUp,6s Infinite linear spin;animation-delay:0s,1s}svg#A.A #C{animation:1.5s Infinite linear wind;animation-delay:0s}@keyframes slideUp{0%{opacity:0;transform:translateY(30px)}100%{opacity:1;transform:inherit}} @keyframes spin{from{transform:rotate(0)}to{transform:rotate(360deg)}} @keyframes wind{0%{transform:rotate( 0deg )}25%{transform:rotate( 1deg )}75%{transform:rotate( -1deg )}} @keyframes slideUp{0%{opacity:0;transform:translateY(30px)}100%{opacity:1;transform:inherit}} @keyframes spin{from{transform:rotate(0)}to{transform:rotate(360deg)}} @keyframes wind{0%{transform:rotate( 0deg )}25%{transform:rotate( 1deg )}75%{transform:rotate( -1deg )}}.C{stroke-linejoin:round}.D{stroke:#263238}.E{fill:#407bff}.F{fill:#263238}.G{fill:#fff}.H{fill:none}.I{stroke-linecap:round}.J{stroke:#7f7f7f}.K{opacity:.9}.L{opacity:.7}.M{fill:#757575}.N{stroke-miterlimit:10}]]></style><g class="B"><path d="M446.09 244.25c36 101-37.81 185-138.78 221S89.8 433.29 53.77 332.32 93.58 161 194.56 125s215.51 18.28 251.53 119.25z" class="E" transform-origin="250.005px 294.433px"/><path d="M446.06,244.16c36,101-37.81,185-138.78,221S89.77,433.2,53.74,332.23,93.55,161,194.53,124.93,410,143.19,446.06,244.16Z" class="G L" transform-origin="249.975px 294.338px"/></g><g id="B" class="B" transform-origin="253.008px 313.47px"><circle cx="253" cy="313.47" r="129.85" class="E" transform-origin="253px 313.47px"/><g clip-path="url(#D)" transform-origin="253.008px 313.47px"><g class="G"><circle cx="253" cy="313.47" r="129.85" opacity=".3" transform-origin="253px 313.47px"/></g><g clip-path="url(#E)" transform-origin="253.028px 308.264px"><path d="M186.85 236.92c-1.51-1.13-8.69 1.32-8.72-.81 0-1.42 4.84-5.4 5.75-7.17 1.34-2.63.64-6.3 1.89-8.77a23 23 0 0 1 4.07-5.79c7.31-6.16 18.44-12.85 27.72-13.31 3.34-.17 7.92 5.56 8.67 10 .45 2.65 0 10.53-2.34 13.29-3.54 4.17-11.29 4.21-15.41 7.46-4.79 3.77-7.12 12.66-12.64 15.62-1.54.82-4.46-.79-5.46-1.63-1.83-1.53-1.8-7.58-3.53-8.89z" class="E" transform-origin="202.258px 224.366px"/><path d="M337.4 370.57a4.54 4.54 0 0 0-2.59.16c-2.14 1.24-5.28 5.91-6.39 8.22-1.26 2.63-2.79 8.33-2.67 10.79.07 1.38.87 4.12 2 4.26.87.1 3.15-1.59 4-2.56 4.14-5 9.12-12.7 8.75-18.86-.1-.92-2.16-1.78-3.1-2.01z" class="E" transform-origin="333.131px 382.228px"/><path d="M258.67 251.75c1.56-.15 5-1 6-2.4 1.54-2.28 2.12-9.1.52-11-.68-.81-3.2-.64-4.06.07-1.12.92-.82 4.84-1.93 5.83s-4.27-.41-5.25.69-1.23 4.68-.48 5.78 3.84 1.16 5.2 1.03z" class="E" transform-origin="259.588px 244.805px"/><path d="M336.14,213.72a6.21,6.21,0,0,0-2.35,3.92c-.05,1.07,2.09,4.11,1.82,5.05-.67,2.29-6.05,3.91-8.75,2.47-.83-.44-1.55-3-2.35-3.52-3.34-2.32-9.72-.75-12.95-.95a26.31,26.31,0,0,1-4.63-.26c-5.49-1.69-11.18-7.37-16.75-7.59-2.78-.11-9.05,3.87-11,6.8a26.62,26.62,0,0,0-4.33,14c0,2.06,1.88,6.45,3.51,7.55s6.2,1.33,7.7,0c1-.89.44-4.7,1.29-5.79s4.33-3.19,5.35-2.23c3.1,2.91,3.84,11,2,14.51-2,3.78-10.35,7.69-14.67,5.67-1.59-.74-.27-6.71-1.64-8.13s-5.43-2.4-6.75-1.15c-1.61,1.52,1.13,7.43-.18,9.3-1.46,2.06-7.26,1.41-9.24,3-1.46,1.15-3.93,4.53-4.12,6.42-.15,1.62,3.4,4.38,2.53,5.77-1.24,2-7.4-1.7-8.92.1-2,2.41-.57,10.17,1.71,12.13,1.7,1.46,7.27,1.35,9.12-.07,1.31-1,.51-5.42,1.84-6.39,1.76-1.28,6.39,1.06,8.45.55,1.61-.41,4-3.78,5.64-3.5,2.16.38,5.29,4.75,5.69,7,.31,1.67-3.47,5.23-2.23,6.38,1.52,1.41,6.63-1.55,7.39-3.46,1-2.41-4.47-7.47-3.56-9.89a3.93,3.93,0,0,1,3.32-1.72c3.13.75,5,9.61,8.19,10.49,2.24.63,6.13-3.92,8.38-3.39,2.67.64,7,5.5,7.79,8.17.57,1.86-.15,6.31-1.45,7.48-4.49,4-12.85,4.92-19,4.54-2.92-.18-8.88-2.58-11-4.67-1.49-1.44-1.81-6.58-3.48-7.55-4.34-2.52-11.25-2.12-16-.55C254,287,243.73,295,239,302.78c-1.7,2.82,0,10.41-1.7,13.23-.53.88-3,1.37-3.43,2.28-1.43,2.78-1.05,9.94.49,12.63a29.52,29.52,0,0,0,14.27,11.71c5.9,2,14-1.24,20.26.18,2,.45,6.24,2.75,7.32,4.66,1.43,2.51-.77,9.1.58,11.63,1.11,2.08,7.18,2,8,4,3.07,7.32-4.26,17.18-3.14,25,.38,2.65,4.46,6.75,4.84,9.24.71,4.63-1.85,10.91-.05,15.07,1.18,2.74,8.13,3.83,10.74,2.46,5.62-2.95,11.8-10,14.44-15.71,2.41-5.17.35-13.25,3-17.76,2.11-3.66,8.92-5.4,11.18-9.07,3.35-5.44.76-15.44,3.92-21.1,2.47-4.44,9.66-7,12-11.68.93-1.83.46-7.35-.87-8.43-3.26-2.66-10.95-.81-14.08-3.75-1.36-1.28.63-7-.21-9.14s-5-4.27-5.69-6.28c-.75-2.17-1.11-7.61.57-9.18.73-.69,3.22-.46,4.06,0,4.52,2.54,8.3,8.1,9.81,13.11.52,1.71-1.81,5.86-.85,7.4.71,1.11,3.79,1.84,5.11,1.63,5.78-.9,15.7-5.23,16.65-9.74,1.15-5.53-13.91-11.8-12.3-18,.51-2,8.17-1.89,10.4-.45,1.56,1,1.42,5.39,2.55,6.71,3.07,3.6,7.88,6.07,12.21,8.31,2,1.05,7.46,1.35,8.6,3.21,1.49,2.43-2.87,8.9-2,11.44a31.68,31.68,0,0,0,5.28,9.23,130,130,0,0,0-44.81-122Z" class="E" transform-origin="307.922px 314.149px"/><path d="M185.05 397.4c-4.86-4.6-10.48-11.89-11-17.71-.61-6.72 12.5-9.77 13.21-17.28.25-2.71-6.27-9.82-5.75-12.66s7.8-5.75 7.49-8.75c-.66-6.27-7.32-13.34-12.55-16.72-2.82-1.82-11 .45-13.44-1.92-1.16-1.12.72-4.8-.47-5.85-1.52-1.33-6.22.65-8.12-.11-2.22-.89-4.55-5.61-6.65-6.32-7.15-2.38-17.57 3.5-24.58.7v2.74.64a6.91 6.91 0 0 1 2.93 2.76c.57 1.53-.37 4.85-1.53 5.86a2 2 0 0 1-1.06.3q.41 5.57 1.27 11c3.58 2.28 8.29 3.79 10.63 6.91 1.42 1.9-1.63 6.3 0 8.16 3.22 3.66 10.5 4 14.08 7.21 8.35 7.58 9.73 22.89 19.14 31.54 1.64 1.51 5.58 3 7.18 4.53 2.27 2.21 3.21 6.32 5.65 8.43 4.18 3.62 11.25 9.59 15.12 9.26.7-.06-2-6-4.21-8.39-1.68-1.83-5.59-2.66-7.34-4.33z" class="E" transform-origin="159.951px 359.816px"/><path d="M128 290.13c.71.3 2.74.41 3.45-.14 1.65-1.3.2-5.52 1.57-7 5.78-6.23 17.47-5.79 22.9-12.5 1.52-1.88-.81-6.76 1.25-8.18 6.49-4.47 16.81 4.89 22.49.78 3.36-2.42 6.35-10.8 4.79-14.59-.29-.7-3.93 1-4.67.46-1.48-1.06 1-7.63-.36-8.09-3.88-1.31-10.34 2.1-14.4 4.33-1.12.61-3.08 3.09-4.17 3.44-2.32.73-6.87-.86-5.64-2.52 2.7-3.7 9.72-4.68 13.59-7.66 3.4-2.63 9.39-8.08 9.31-10.89-.1-3.81-16.31.48-20.36 2.53-2.39 1.2-7.56 6.18-10 7.36a129.29 129.29 0 0 0-21.78 49.22c.52 1.41 1.03 3.02 2.03 3.45z" class="E" transform-origin="155.423px 258.213px"/><g><g opacity=".2" transform-origin="253.028px 308.264px"><path d="M186.85 236.92c-1.51-1.13-8.69 1.32-8.72-.81 0-1.42 4.84-5.4 5.75-7.17 1.34-2.63.64-6.3 1.89-8.77a23 23 0 0 1 4.07-5.79c7.31-6.16 18.44-12.85 27.72-13.31 3.34-.17 7.92 5.56 8.67 10 .45 2.65 0 10.53-2.34 13.29-3.54 4.17-11.29 4.21-15.41 7.46-4.79 3.77-7.12 12.66-12.64 15.62-1.54.82-4.46-.79-5.46-1.63-1.83-1.53-1.8-7.58-3.53-8.89z" transform-origin="202.258px 224.366px"/><path d="M337.4 370.57a4.54 4.54 0 0 0-2.59.16c-2.14 1.24-5.28 5.91-6.39 8.22-1.26 2.63-2.79 8.33-2.67 10.79.07 1.38.87 4.12 2 4.26.87.1 3.15-1.59 4-2.56 4.14-5 9.12-12.7 8.75-18.86-.1-.92-2.16-1.78-3.1-2.01z" transform-origin="333.131px 382.228px"/><path d="M258.67 251.75c1.56-.15 5-1 6-2.4 1.54-2.28 2.12-9.1.52-11-.68-.81-3.2-.64-4.06.07-1.12.92-.82 4.84-1.93 5.83s-4.27-.41-5.25.69-1.23 4.68-.48 5.78 3.84 1.16 5.2 1.03z" transform-origin="259.588px 244.805px"/><path d="M336.14,213.72a6.21,6.21,0,0,0-2.35,3.92c-.05,1.07,2.09,4.11,1.82,5.05-.67,2.29-6.05,3.91-8.75,2.47-.83-.44-1.55-3-2.35-3.52-3.34-2.32-9.72-.75-12.95-.95a26.31,26.31,0,0,1-4.63-.26c-5.49-1.69-11.18-7.37-16.75-7.59-2.78-.11-9.05,3.87-11,6.8a26.62,26.62,0,0,0-4.33,14c0,2.06,1.88,6.45,3.51,7.55s6.2,1.33,7.7,0c1-.89.44-4.7,1.29-5.79s4.33-3.19,5.35-2.23c3.1,2.91,3.84,11,2,14.51-2,3.78-10.35,7.69-14.67,5.67-1.59-.74-.27-6.71-1.64-8.13s-5.43-2.4-6.75-1.15c-1.61,1.52,1.13,7.43-.18,9.3-1.46,2.06-7.26,1.41-9.24,3-1.46,1.15-3.93,4.53-4.12,6.42-.15,1.62,3.4,4.38,2.53,5.77-1.24,2-7.4-1.7-8.92.1-2,2.41-.57,10.17,1.71,12.13,1.7,1.46,7.27,1.35,9.12-.07,1.31-1,.51-5.42,1.84-6.39,1.76-1.28,6.39,1.06,8.45.55,1.61-.41,4-3.78,5.64-3.5,2.16.38,5.29,4.75,5.69,7,.31,1.67-3.47,5.23-2.23,6.38,1.52,1.41,6.63-1.55,7.39-3.46,1-2.41-4.47-7.47-3.56-9.89a3.93,3.93,0,0,1,3.32-1.72c3.13.75,5,9.61,8.19,10.49,2.24.63,6.13-3.92,8.38-3.39,2.67.64,7,5.5,7.79,8.17.57,1.86-.15,6.31-1.45,7.48-4.49,4-12.85,4.92-19,4.54-2.92-.18-8.88-2.58-11-4.67-1.49-1.44-1.81-6.58-3.48-7.55-4.34-2.52-11.25-2.12-16-.55C254,287,243.73,295,239,302.78c-1.7,2.82,0,10.41-1.7,13.23-.53.88-3,1.37-3.43,2.28-1.43,2.78-1.05,9.94.49,12.63a29.52,29.52,0,0,0,14.27,11.71c5.9,2,14-1.24,20.26.18,2,.45,6.24,2.75,7.32,4.66,1.43,2.51-.77,9.1.58,11.63,1.11,2.08,7.18,2,8,4,3.07,7.32-4.26,17.18-3.14,25,.38,2.65,4.46,6.75,4.84,9.24.71,4.63-1.85,10.91-.05,15.07,1.18,2.74,8.13,3.83,10.74,2.46,5.62-2.95,11.8-10,14.44-15.71,2.41-5.17.35-13.25,3-17.76,2.11-3.66,8.92-5.4,11.18-9.07,3.35-5.44.76-15.44,3.92-21.1,2.47-4.44,9.66-7,12-11.68.93-1.83.46-7.35-.87-8.43-3.26-2.66-10.95-.81-14.08-3.75-1.36-1.28.63-7-.21-9.14s-5-4.27-5.69-6.28c-.75-2.17-1.11-7.61.57-9.18.73-.69,3.22-.46,4.06,0,4.52,2.54,8.3,8.1,9.81,13.11.52,1.71-1.81,5.86-.85,7.4.71,1.11,3.79,1.84,5.11,1.63,5.78-.9,15.7-5.23,16.65-9.74,1.15-5.53-13.91-11.8-12.3-18,.51-2,8.17-1.89,10.4-.45,1.56,1,1.42,5.39,2.55,6.71,3.07,3.6,7.88,6.07,12.21,8.31,2,1.05,7.46,1.35,8.6,3.21,1.49,2.43-2.87,8.9-2,11.44a31.68,31.68,0,0,0,5.28,9.23,130,130,0,0,0-44.81-122Z" transform-origin="307.922px 314.149px"/><path d="M185.05 397.4c-4.86-4.6-10.48-11.89-11-17.71-.61-6.72 12.5-9.77 13.21-17.28.25-2.71-6.27-9.82-5.75-12.66s7.8-5.75 7.49-8.75c-.66-6.27-7.32-13.34-12.55-16.72-2.82-1.82-11 .45-13.44-1.92-1.16-1.12.72-4.8-.47-5.85-1.52-1.33-6.22.65-8.12-.11-2.22-.89-4.55-5.61-6.65-6.32-7.15-2.38-17.57 3.5-24.58.7v2.74.64a6.91 6.91 0 0 1 2.93 2.76c.57 1.53-.37 4.85-1.53 5.86a2 2 0 0 1-1.06.3q.41 5.57 1.27 11c3.58 2.28 8.29 3.79 10.63 6.91 1.42 1.9-1.63 6.3 0 8.16 3.22 3.66 10.5 4 14.08 7.21 8.35 7.58 9.73 22.89 19.14 31.54 1.64 1.51 5.58 3 7.18 4.53 2.27 2.21 3.21 6.32 5.65 8.43 4.18 3.62 11.25 9.59 15.12 9.26.7-.06-2-6-4.21-8.39-1.68-1.83-5.59-2.66-7.34-4.33z" transform-origin="159.951px 359.816px"/><path d="M128 290.13c.71.3 2.74.41 3.45-.14 1.65-1.3.2-5.52 1.57-7 5.78-6.23 17.47-5.79 22.9-12.5 1.52-1.88-.81-6.76 1.25-8.18 6.49-4.47 16.81 4.89 22.49.78 3.36-2.42 6.35-10.8 4.79-14.59-.29-.7-3.93 1-4.67.46-1.48-1.06 1-7.63-.36-8.09-3.88-1.31-10.34 2.1-14.4 4.33-1.12.61-3.08 3.09-4.17 3.44-2.32.73-6.87-.86-5.64-2.52 2.7-3.7 9.72-4.68 13.59-7.66 3.4-2.63 9.39-8.08 9.31-10.89-.1-3.81-16.31.48-20.36 2.53-2.39 1.2-7.56 6.18-10 7.36a129.29 129.29 0 0 0-21.78 49.22c.52 1.41 1.03 3.02 2.03 3.45z" transform-origin="155.423px 258.213px"/></g></g></g></g><circle cx="253" cy="313.47" r="129.85" class="C D H" transform-origin="253px 313.47px"/></g><g class="B C D"><g class="H I"><path d="M316.09,299.56s1.44-.39,3.91-.79" transform-origin="318.045px 299.165px"/><path d="M324.84,298.18a62.73,62.73,0,0,1,22.7,2.14" stroke-dasharray="7.80341, 4.87713, 7.80341, 4.87713" transform-origin="336.19px 299.127px"/><path d="M349.87,301.06c9.6,3.31,19.49,9.81,27.05,22" stroke-dasharray="7.80341, 4.87713, 7.80341, 4.87713, 7.80341, 4.87713" transform-origin="363.395px 312.06px"/><path d="M378.16 325.2l1.87 3.54" transform-origin="379.095px 326.97px"/><path d="M307.82,299.1a27.74,27.74,0,0,0-3.74-1.4" transform-origin="305.95px 298.4px"/><path d="M299.71,296.67c-5.62-.95-13.28-.81-20.11,4.29" stroke-dasharray="7.19804, 4.49878, 7.19804, 4.49878" transform-origin="289.655px 298.586px"/><path d="M277.86,302.39a28.25,28.25,0,0,0-2.77,2.88" transform-origin="276.475px 303.83px"/><path d="M266.71 304.82l-.36-4" transform-origin="266.53px 302.82px"/><path d="M266,297.17c-.54-4.68-1.42-10.95-2.72-17.13" stroke-dasharray="5.9089, 3.69306, 5.9089, 3.69306" transform-origin="264.64px 288.605px"/><path d="M262.84,278.24c-2.66-11.78-6.9-22.63-13.41-20.8" stroke-dasharray="5.9089, 3.69306, 5.9089, 3.69306, 5.9089, 3.69306" transform-origin="256.135px 267.739px"/><path d="M247.73,258.18a14.27,14.27,0,0,0-3.06,2.57" transform-origin="246.2px 259.465px"/><path d="M236.4,260.86s-1.35-.61-3.74-1.41" transform-origin="234.53px 260.155px"/><path d="M226.85,257.78a70.12,70.12,0,0,0-28.22-1.27" stroke-dasharray="9.68271, 6.05169, 9.68271, 6.05169" transform-origin="212.74px 256.709px"/><path d="M195.66,257.11c-12.06,2.74-24.79,9.75-35.14,25" stroke-dasharray="9.68271, 6.05169, 9.68271, 6.05169, 9.68271, 6.05169" transform-origin="178.09px 269.61px"/><path d="M158.87 284.62l-2 3.44" transform-origin="157.87px 286.34px"/><path d="M151.15,291.5s-1.64-.88-3.53,1.23" transform-origin="149.385px 292.024px"/><path d="M146.09,295.13c-1.19,2.47-2.34,6.5-3.1,13" stroke-dasharray="4.56728, 2.85455, 4.56728, 2.85455" transform-origin="144.54px 301.63px"/><path d="M142.83,309.55a188.67,188.67,0,0,0-.76,20.81" stroke-dasharray="4.56728, 2.85455, 4.56728, 2.85455, 4.56728, 2.85455" transform-origin="142.433px 319.955px"/><path d="M142.09 331.81l.08 4" transform-origin="142.13px 333.81px"/><path d="M384.75,332.28a34.36,34.36,0,0,0,2.43-3.18" transform-origin="385.965px 330.69px"/><path d="M388.06,327.68c1.56-2.7,2.56-5.79-.11-6.88" stroke-dasharray="2.68594, 1.67871, 2.68594, 1.67871" transform-origin="388.779px 324.24px"/><path d="M387.15,320.56a12.18,12.18,0,0,0-4,0" transform-origin="385.15px 320.477px"/><path d="M139.08 337.13l-1.11-3.84" transform-origin="138.525px 335.21px"/><path d="M136.55,328.89c-3-8.74-7.94-20.08-11.13-10.76" stroke-dasharray="7.39873, 4.62421, 7.39873, 4.62421" transform-origin="130.985px 321.765px"/><path d="M124.79,320.36q-.41,1.67-.75,3.93" transform-origin="124.415px 322.325px"/></g><g class="G"><path d="M311.86 293a5.79 5.79 0 0 0-5.79 5.78c0 2.34 3.09 6.48 4.75 8.55a1.34 1.34 0 0 0 2.08 0c1.66-2.07 4.75-6.21 4.75-8.55a5.78 5.78 0 0 0-5.79-5.78zm0 8.64a2.86 2.86 0 1 1 2.85-2.86 2.86 2.86 0 0 1-2.85 2.86z" transform-origin="311.86px 300.412px"/><path d="M295.19 323.14a5.78 5.78 0 0 0-5.78 5.79c0 2.33 3.08 6.48 4.75 8.54a1.33 1.33 0 0 0 2.07 0c1.67-2.06 4.75-6.21 4.75-8.54a5.79 5.79 0 0 0-5.79-5.79zm0 8.64a2.85 2.85 0 1 1 2.85-2.85 2.86 2.86 0 0 1-2.85 2.85z" transform-origin="295.195px 330.552px"/><path d="M333.57 369.39a5.78 5.78 0 0 0-5.78 5.79c0 2.33 3.08 6.47 4.75 8.54a1.33 1.33 0 0 0 2.07 0c1.66-2.07 4.75-6.21 4.75-8.54a5.79 5.79 0 0 0-5.79-5.79zm0 8.64a2.86 2.86 0 1 1 0-.03z" transform-origin="333.575px 376.802px"/><path d="M357.21 240.88a5.78 5.78 0 0 0-5.78 5.79c0 2.33 3.08 6.47 4.75 8.54a1.33 1.33 0 0 0 2.07 0c1.66-2.07 4.75-6.21 4.75-8.54a5.79 5.79 0 0 0-5.79-5.79zm0 8.64a2.85 2.85 0 1 1 2.85-2.85 2.86 2.86 0 0 1-2.85 2.85z" transform-origin="357.215px 248.292px"/><path d="M190 391.07a5.78 5.78 0 0 0-5.78 5.79c0 2.33 3.08 6.47 4.75 8.54a1.33 1.33 0 0 0 2.07 0c1.67-2.07 4.75-6.21 4.75-8.54a5.79 5.79 0 0 0-5.79-5.79zm0 8.64a2.85 2.85 0 1 1 2.86-2.85 2.86 2.86 0 0 1-2.86 2.85z" transform-origin="190.005px 398.482px"/><path d="M148 242.11a5.79 5.79 0 0 0-5.79 5.78c0 2.33 3.09 6.48 4.75 8.54a1.33 1.33 0 0 0 2.08 0c1.66-2.06 4.75-6.21 4.75-8.54a5.78 5.78 0 0 0-5.79-5.78zm0 8.63a2.85 2.85 0 1 1 2.85-2.85 2.85 2.85 0 0 1-2.85 2.85z" transform-origin="148px 249.52px"/><path d="M203.94 207.75a5.78 5.78 0 0 0-5.79 5.78c0 2.34 3.08 6.48 4.75 8.55a1.33 1.33 0 0 0 2.07 0c1.67-2.07 4.75-6.21 4.75-8.55a5.78 5.78 0 0 0-5.78-5.78zm0 8.63a2.85 2.85 0 1 1 2.85-2.85 2.85 2.85 0 0 1-2.85 2.85z" transform-origin="203.935px 215.162px"/><use xlink:href="#N" transform-origin="327.455px 235.602px"/><path d="M240.35 254.42a5.78 5.78 0 0 0-5.78 5.78c0 2.34 3.08 6.48 4.75 8.55a1.33 1.33 0 0 0 2.07 0c1.67-2.07 4.75-6.21 4.75-8.55a5.78 5.78 0 0 0-5.79-5.78zm0 8.63a2.85 2.85 0 1 1 2.85-2.85 2.85 2.85 0 0 1-2.85 2.85z" transform-origin="240.355px 261.832px"/><use xlink:href="#N" x="-174.71" y="53.94" transform-origin="152.745px 289.543px"/><path d="M142.17 333.56a5.78 5.78 0 0 0-5.78 5.79c0 2.33 3.08 6.48 4.75 8.54a1.32 1.32 0 0 0 2.07 0c1.67-2.06 4.75-6.21 4.75-8.54a5.79 5.79 0 0 0-5.79-5.79zm0 8.64a2.85 2.85 0 1 1 2.85-2.85 2.86 2.86 0 0 1-2.85 2.85z" transform-origin="142.175px 340.975px"/><path d="M380.75 326.83a5.78 5.78 0 0 0-5.78 5.78c0 2.33 3.08 6.48 4.75 8.54a1.32 1.32 0 0 0 2.07 0c1.66-2.06 4.75-6.21 4.75-8.54a5.78 5.78 0 0 0-5.79-5.78zm0 8.63a2.85 2.85 0 1 1 2.85-2.85 2.85 2.85 0 0 1-2.85 2.85z" transform-origin="380.755px 334.24px"/><path d="M270.85 298.89a5.79 5.79 0 0 0-5.79 5.79c0 2.33 3.09 6.47 4.75 8.54a1.33 1.33 0 0 0 2.07 0c1.67-2.07 4.75-6.21 4.75-8.54a5.78 5.78 0 0 0-5.78-5.79zm0 8.64a2.85 2.85 0 1 1 2.85-2.85 2.85 2.85 0 0 1-2.85 2.85z" transform-origin="270.845px 306.302px"/></g><g class="H I"><path d="M282.73,132.17q2.67.57,5.31,1.22" transform-origin="285.385px 132.78px"/><path d="M199.46,135.67a167.27,167.27,0,0,1,78.27-4.49" transform-origin="238.595px 132.085px"/><path d="M174.61,145.5q2.94-1.45,5.95-2.78" transform-origin="177.585px 144.11px"/><path d="M131,176.62a166.89,166.89,0,0,1,39.62-29.08" transform-origin="150.81px 162.08px"/><path d="M271.57,118.69q3.1.42,6.16.93" transform-origin="274.65px 119.155px"/><path d="M237.37,117.43c3.48-.2,7-.31,10.51-.31a180.41,180.41,0,0,1,18.25.93" transform-origin="251.75px 117.585px"/><path d="M181.85,129.81a176,176,0,0,1,37.59-10.42" transform-origin="200.645px 124.6px"/><path d="M114.7,177.3a178,178,0,0,1,54.1-41.63" transform-origin="141.75px 156.485px"/><path d="M160 126.8l5-2.54" transform-origin="162.5px 125.53px"/><path d="M113.55,161.15a190.06,190.06,0,0,1,42.08-32" transform-origin="134.59px 145.15px"/><path d="M272.38 106.81l4.33.61" transform-origin="274.545px 107.115px"/><path d="M247.88,105.24a190.71,190.71,0,0,1,20.94,1.15" transform-origin="258.35px 105.815px"/><path d="M217.22 80l7.77-1" transform-origin="221.105px 79.5px"/><path d="M146.94,102.79a215.07,215.07,0,0,1,62-21.41" transform-origin="177.94px 92.085px"/><path d="M139.19 107.08l3.23-1.84" transform-origin="140.805px 106.16px"/><path d="M190 52.55l4.54-1" transform-origin="192.27px 52.05px"/><path d="M150.39,65.6a248,248,0,0,1,36.17-12.21" transform-origin="168.475px 59.495px"/><path d="M212.74,287.1a4.12,4.12,0,0,1-5.81,0,4.1,4.1,0,0,1-5.8,0,4.1,4.1,0,0,1-5.8,0,4.1,4.1,0,0,1-5.8,0,4.1,4.1,0,0,1-5.8,0" transform-origin="198.235px 287.701px"/><path d="M209.93,290.51a4.1,4.1,0,0,1-5.8,0,4.1,4.1,0,0,1-5.8,0,4.1,4.1,0,0,1-5.8,0,4.1,4.1,0,0,1-5.8,0,4.1,4.1,0,0,1-5.8,0" transform-origin="195.43px 291.111px"/><path d="M213.16,293.93a4.1,4.1,0,0,1-5.8,0,4.1,4.1,0,0,1-5.8,0,4.1,4.1,0,0,1-5.8,0,4.1,4.1,0,0,1-5.8,0,4.1,4.1,0,0,1-5.8,0" transform-origin="198.66px 294.531px"/><path d="M255.34,384.11a4.1,4.1,0,0,1-5.8,0,4.1,4.1,0,0,1-5.8,0,4.1,4.1,0,0,1-5.8,0,4.12,4.12,0,0,1-5.81,0,4.1,4.1,0,0,1-5.8,0" transform-origin="240.835px 384.711px"/><path d="M252.54,387.53a4.12,4.12,0,0,1-5.81,0,4.1,4.1,0,0,1-5.8,0,4.1,4.1,0,0,1-5.8,0,4.1,4.1,0,0,1-5.8,0,4.1,4.1,0,0,1-5.8,0" transform-origin="238.035px 388.131px"/><path d="M255.76,390.94a4.1,4.1,0,0,1-5.8,0,4.1,4.1,0,0,1-5.8,0,4.1,4.1,0,0,1-5.8,0,4.1,4.1,0,0,1-5.8,0,4.1,4.1,0,0,1-5.8,0" transform-origin="241.26px 391.541px"/><path d="M366.83,350.83a4.09,4.09,0,0,1-5.8,0,4.1,4.1,0,0,1-5.81,0,4.09,4.09,0,0,1-5.8,0,4.09,4.09,0,0,1-5.8,0,4.09,4.09,0,0,1-5.8,0" transform-origin="352.325px 351.433px"/><path d="M364,354.25a4.1,4.1,0,0,1-5.8,0,4.1,4.1,0,0,1-5.8,0,4.1,4.1,0,0,1-5.8,0,4.1,4.1,0,0,1-5.8,0,4.1,4.1,0,0,1-5.8,0" transform-origin="349.5px 354.851px"/><path d="M367.25,357.66a4.09,4.09,0,0,1-5.8,0,4.09,4.09,0,0,1-5.8,0,4.09,4.09,0,0,1-5.8,0,4.09,4.09,0,0,1-5.8,0,4.09,4.09,0,0,1-5.8,0" transform-origin="352.75px 358.263px"/></g></g><g class="B"><path class="C D G" d="M263.85 244.2h10.53v25.51h-10.53z" transform-origin="269.115px 256.955px"/><g transform="rotate(270)"><rect x="270.99" y="266.42" width="1.78" height="1.78" rx=".5" class="F" transform-origin="271.88px 267.31px"/><rect x="270.99" y="263.83" width="1.78" height="1.78" rx=".5" class="E" transform-origin="271.88px 264.72px"/><g class="F"><rect x="270.99" y="261.24" width="1.78" height="1.78" rx=".5" transform-origin="271.88px 262.13px"/><rect x="270.99" y="258.65" width="1.78" height="1.78" rx=".5" transform-origin="271.88px 259.54px"/></g><rect x="270.99" y="256.06" width="1.78" height="1.78" rx=".5" class="E" transform-origin="271.88px 256.95px"/><g class="F"><rect x="270.99" y="253.47" width="1.78" height="1.78" rx=".5" transform-origin="271.88px 254.36px"/><rect x="270.99" y="250.88" width="1.78" height="1.78" rx=".5" transform-origin="271.88px 251.77px"/><rect x="270.99" y="248.29" width="1.78" height="1.78" rx=".5" transform-origin="271.88px 249.18px"/></g><g class="E"><rect x="270.99" y="245.71" width="1.78" height="1.78" rx=".5" transform-origin="271.88px 246.6px"/><rect x="268.18" y="266.42" width="1.78" height="1.78" rx=".5" transform-origin="269.07px 267.31px"/></g><rect x="268.18" y="263.83" width="1.78" height="1.78" rx=".5" class="F" transform-origin="269.07px 264.72px"/><g class="E"><rect x="268.18" y="261.24" width="1.78" height="1.78" rx=".5" transform-origin="269.07px 262.13px"/><rect x="268.18" y="258.65" width="1.78" height="1.78" rx=".5" transform-origin="269.07px 259.54px"/></g><rect x="268.18" y="256.06" width="1.78" height="1.78" rx=".5" class="F" transform-origin="269.07px 256.95px"/><g class="E"><rect x="268.18" y="253.47" width="1.78" height="1.78" rx=".5" transform-origin="269.07px 254.36px"/><rect x="268.18" y="250.88" width="1.78" height="1.78" rx=".5" transform-origin="269.07px 251.77px"/><rect x="268.18" y="248.29" width="1.78" height="1.78" rx=".5" transform-origin="269.07px 249.18px"/></g><g class="F"><rect x="268.18" y="245.71" width="1.78" height="1.78" rx=".5" transform-origin="269.07px 246.6px"/><rect x="265.37" y="266.42" width="1.78" height="1.78" rx=".5" transform-origin="266.26px 267.31px"/><rect x="265.37" y="263.83" width="1.78" height="1.78" rx=".5" transform-origin="266.26px 264.72px"/><rect x="265.37" y="261.24" width="1.78" height="1.78" rx=".5" transform-origin="266.26px 262.13px"/></g><rect x="265.37" y="258.65" width="1.78" height="1.78" rx=".5" class="E" transform-origin="266.26px 259.54px"/><g class="F"><rect x="265.37" y="256.06" width="1.78" height="1.78" rx=".5" transform-origin="266.26px 256.95px"/><rect x="265.37" y="253.47" width="1.78" height="1.78" rx=".5" transform-origin="266.26px 254.36px"/></g><rect x="265.37" y="250.88" width="1.78" height="1.78" rx=".5" class="E" transform-origin="266.26px 251.77px"/><g class="F"><rect x="265.37" y="248.29" width="1.78" height="1.78" rx=".5" transform-origin="266.26px 249.18px"/><rect x="265.37" y="245.71" width="1.78" height="1.78" rx=".5" transform-origin="266.26px 246.6px"/></g></g><path class="C D G" d="M276.29 256.11h5.61v13.6h-5.61z" transform-origin="279.095px 262.91px"/><g class="F"><use xlink:href="#O" transform-origin="280.565px 268.435px"/><use xlink:href="#O" y="-1.38" transform-origin="280.565px 267.055px"/><use xlink:href="#O" y="-2.76" transform-origin="280.565px 265.675px"/></g><use xlink:href="#O" y="-4.14" class="G" transform-origin="280.565px 264.295px"/><g class="F"><use xlink:href="#O" y="-5.52" transform-origin="280.565px 262.915px"/><use xlink:href="#O" y="-6.9" transform-origin="280.565px 261.535px"/></g><g class="G"><use xlink:href="#O" y="-8.28" transform-origin="280.565px 260.155px"/><use xlink:href="#O" y="-9.66" transform-origin="280.565px 258.775px"/></g><use xlink:href="#O" y="-11.04" class="F" transform-origin="280.565px 257.395px"/><g class="G"><use xlink:href="#P" transform-origin="279.075px 268.435px"/><use xlink:href="#P" y="-1.38" transform-origin="279.075px 267.055px"/></g><g class="F"><use xlink:href="#P" y="-2.76" transform-origin="279.075px 265.675px"/><use xlink:href="#P" y="-4.14" transform-origin="279.075px 264.295px"/></g><use xlink:href="#P" y="-5.52" class="G" transform-origin="279.075px 262.915px"/><g class="F"><use xlink:href="#P" y="-6.9" transform-origin="279.075px 261.535px"/><use xlink:href="#P" y="-8.28" transform-origin="279.075px 260.155px"/><use xlink:href="#P" y="-9.66" transform-origin="279.075px 258.775px"/></g><use xlink:href="#P" y="-11.04" class="G" transform-origin="279.075px 257.395px"/><use xlink:href="#Q" class="F" transform-origin="277.575px 268.435px"/><use xlink:href="#Q" y="-1.38" class="G" transform-origin="277.575px 267.055px"/><g class="F"><use xlink:href="#Q" y="-2.76" transform-origin="277.575px 265.675px"/><use xlink:href="#Q" y="-4.14" transform-origin="277.575px 264.295px"/><use xlink:href="#Q" y="-5.52" transform-origin="277.575px 262.915px"/></g><use xlink:href="#Q" y="-6.9" class="G" transform-origin="277.575px 261.535px"/><g class="F"><use xlink:href="#Q" y="-8.28" transform-origin="277.575px 260.155px"/><use xlink:href="#Q" y="-9.66" transform-origin="277.575px 258.775px"/><use xlink:href="#Q" y="-11.04" transform-origin="277.575px 257.395px"/></g><path class="C D G" d="M330.18 262.26h10.53v25.51h-10.53z" transform-origin="335.445px 275.015px" transform="rotate(180)"/><g transform="rotate(270)" class="F"><rect x="331.79" y="284.48" width="1.78" height="1.78" rx=".5" transform-origin="332.68px 285.37px"/><rect x="331.79" y="281.89" width="1.78" height="1.78" rx=".5" transform-origin="332.68px 282.78px"/></g><g class="E"><rect x="331.79" y="279.3" width="1.78" height="1.78" rx=".5" transform-origin="332.68px 280.19px" transform="rotate(270)"/><rect x="331.79" y="276.71" width="1.78" height="1.78" rx=".5" transform-origin="332.68px 277.6px" transform="rotate(270)"/></g><g class="F"><rect x="331.79" y="274.12" width="1.78" height="1.78" rx=".5" transform-origin="332.68px 275.01px" transform="rotate(270)"/><rect x="331.79" y="271.53" width="1.78" height="1.78" rx=".5" transform-origin="332.68px 272.42px" transform="rotate(270)"/></g><rect x="331.79" y="268.94" width="1.78" height="1.78" rx=".5" class="E" transform-origin="332.68px 269.83px" transform="rotate(270)"/><g class="F"><rect x="331.79" y="266.35" width="1.78" height="1.78" rx=".5" transform-origin="332.68px 267.24px" transform="rotate(270)"/><rect x="331.79" y="263.76" width="1.78" height="1.78" rx=".5" transform-origin="332.68px 264.65px" transform="rotate(270)"/><rect x="334.6" y="284.48" width="1.78" height="1.78" rx=".5" transform-origin="335.49px 285.37px" transform="rotate(270)"/></g><rect x="334.6" y="281.89" width="1.78" height="1.78" rx=".5" class="E" transform-origin="335.49px 282.78px" transform="rotate(270)"/><rect x="334.6" y="279.3" width="1.78" height="1.78" rx=".5" class="F" transform-origin="335.49px 280.19px" transform="rotate(270)"/><rect x="334.6" y="276.71" width="1.78" height="1.78" rx=".5" class="E" transform-origin="335.49px 277.6px" transform="rotate(270)"/><rect x="334.6" y="274.12" width="1.78" height="1.78" rx=".5" class="F" transform-origin="335.49px 275.01px" transform="rotate(270)"/><g class="E"><rect x="334.6" y="271.53" width="1.78" height="1.78" rx=".5" transform-origin="335.49px 272.42px" transform="rotate(270)"/><rect x="334.6" y="268.94" width="1.78" height="1.78" rx=".5" transform-origin="335.49px 269.83px" transform="rotate(270)"/><rect x="334.6" y="266.35" width="1.78" height="1.78" rx=".5" transform-origin="335.49px 267.24px" transform="rotate(270)"/><rect x="334.6" y="263.76" width="1.78" height="1.78" rx=".5" transform-origin="335.49px 264.65px" transform="rotate(270)"/><rect x="337.41" y="284.48" width="1.78" height="1.78" rx=".5" transform-origin="338.3px 285.37px" transform="rotate(270)"/></g><g class="F"><rect x="337.41" y="281.89" width="1.78" height="1.78" rx=".5" transform-origin="338.3px 282.78px" transform="rotate(270)"/><rect x="337.41" y="279.3" width="1.78" height="1.78" rx=".5" transform-origin="338.3px 280.19px" transform="rotate(270)"/><rect x="337.41" y="276.71" width="1.78" height="1.78" rx=".5" transform-origin="338.3px 277.6px" transform="rotate(270)"/><rect x="337.41" y="274.12" width="1.78" height="1.78" rx=".5" transform-origin="338.3px 275.01px" transform="rotate(270)"/><rect x="337.41" y="271.53" width="1.78" height="1.78" rx=".5" transform-origin="338.3px 272.42px" transform="rotate(270)"/></g><g class="E"><rect x="337.41" y="268.94" width="1.78" height="1.78" rx=".5" transform-origin="338.3px 269.83px" transform="rotate(270)"/><rect x="337.41" y="266.35" width="1.78" height="1.78" rx=".5" transform-origin="338.3px 267.24px" transform="rotate(270)"/></g><rect x="337.41" y="263.76" width="1.78" height="1.78" rx=".5" class="F" transform-origin="338.3px 264.65px" transform="rotate(270)"/><path class="C D G" d="M322.66 274.17h5.61v13.6h-5.61z" transform-origin="325.465px 280.97px" transform="rotate(180)"/><path d="M324.47 286.49h0a.48.48 0 0 1-.48.47h0a.47.47 0 0 1-.47-.47h0a.48.48 0 0 1 .48-.49h0a.49.49 0 0 1 .47.49z" class="F" transform-origin="323.995px 286.48px"/><use xlink:href="#R" class="G" transform-origin="323.995px 285.105px"/><g class="F"><use xlink:href="#R" y="-1.38" transform-origin="323.995px 283.725px"/><use xlink:href="#R" y="-2.76" transform-origin="323.995px 282.345px"/></g><use xlink:href="#R" y="-4.11" class="G" transform-origin="323.995px 280.995px"/><g class="F"><use xlink:href="#R" y="-5.52" transform-origin="323.995px 279.585px"/><use xlink:href="#R" y="-6.9" transform-origin="323.995px 278.205px"/><use xlink:href="#R" y="-8.28" transform-origin="323.995px 276.825px"/></g><path d="M324.47 275.45h0a.48.48 0 0 1-.48.47h0a.47.47 0 0 1-.47-.47h0a.48.48 0 0 1 .48-.45h0a.49.49 0 0 1 .47.45z" class="G" transform-origin="323.995px 275.46px"/><g class="F"><use xlink:href="#S" transform-origin="325.525px 286.485px"/><use xlink:href="#S" y="-1.38" transform-origin="325.525px 285.105px"/></g><use xlink:href="#S" y="-2.76" class="G" transform-origin="325.525px 283.725px"/><g class="F"><use xlink:href="#S" y="-4.14" transform-origin="325.525px 282.345px"/><path d="M326 281h0a.47.47 0 0 1-.47.47h0a.48.48 0 0 1-.53-.47h0a.49.49 0 0 1 .48-.48h0a.48.48 0 0 1 .52.48z" transform-origin="325.5px 280.995px"/></g><g class="G"><use xlink:href="#S" y="-6.9" transform-origin="325.525px 279.585px"/><use xlink:href="#S" y="-8.28" transform-origin="325.525px 278.205px"/></g><g class="F"><use xlink:href="#S" y="-9.66" transform-origin="325.525px 276.825px"/><use xlink:href="#S" y="-11.04" transform-origin="325.525px 275.445px"/></g><path d="M327.46 286.49h0a.47.47 0 0 1-.48.47h0a.47.47 0 0 1-.47-.47h0a.48.48 0 0 1 .49-.49h0a.48.48 0 0 1 .46.49z" class="G" transform-origin="326.985px 286.48px"/><g class="F"><use xlink:href="#T" transform-origin="326.985px 285.105px"/><use xlink:href="#T" y="-1.38" transform-origin="326.985px 283.725px"/></g><use xlink:href="#T" y="-2.76" class="G" transform-origin="326.985px 282.345px"/><use xlink:href="#T" y="-4.11" class="F" transform-origin="326.985px 280.995px"/><use xlink:href="#T" y="-5.52" class="G" transform-origin="326.985px 279.585px"/><use xlink:href="#T" y="-6.9" class="F" transform-origin="326.985px 278.205px"/><g class="G"><use xlink:href="#T" y="-8.28" transform-origin="326.985px 276.825px"/><path d="M327.46 275.45h0a.47.47 0 0 1-.48.47h0a.47.47 0 0 1-.47-.47h0a.48.48 0 0 1 .49-.45h0a.48.48 0 0 1 .46.45z" transform-origin="326.985px 275.46px"/><path class="C D" d="M160.41 311.37h10.53v25.51h-10.53z" transform-origin="165.675px 324.125px" transform="rotate(180)"/></g><g transform="rotate(270)" class="F"><rect x="162.02" y="333.59" width="1.78" height="1.78" rx=".5" transform-origin="162.91px 334.48px"/><rect x="162.02" y="331" width="1.78" height="1.78" rx=".5" transform-origin="162.91px 331.89px"/></g><g class="E"><rect x="162.02" y="328.41" width="1.78" height="1.78" rx=".5" transform-origin="162.91px 329.3px" transform="rotate(270)"/><rect x="162.02" y="325.82" width="1.78" height="1.78" rx=".5" transform-origin="162.91px 326.71px" transform="rotate(270)"/></g><g class="F"><rect x="162.02" y="323.23" width="1.78" height="1.78" rx=".5" transform-origin="162.91px 324.12px" transform="rotate(270)"/><rect x="162.02" y="320.64" width="1.78" height="1.78" rx=".5" transform-origin="162.91px 321.53px" transform="rotate(270)"/></g><rect x="162.02" y="318.05" width="1.78" height="1.78" rx=".5" class="E" transform-origin="162.91px 318.94px" transform="rotate(270)"/><g class="F"><rect x="162.02" y="315.46" width="1.78" height="1.78" rx=".5" transform-origin="162.91px 316.35px" transform="rotate(270)"/><rect x="162.02" y="312.87" width="1.78" height="1.78" rx=".5" transform-origin="162.91px 313.76px" transform="rotate(270)"/><rect x="164.83" y="333.59" width="1.78" height="1.78" rx=".5" transform-origin="165.72px 334.48px" transform="rotate(270)"/></g><rect x="164.83" y="331" width="1.78" height="1.78" rx=".5" class="E" transform-origin="165.72px 331.89px" transform="rotate(270)"/><rect x="164.83" y="328.41" width="1.78" height="1.78" rx=".5" class="F" transform-origin="165.72px 329.3px" transform="rotate(270)"/><rect x="164.83" y="325.82" width="1.78" height="1.78" rx=".5" class="E" transform-origin="165.72px 326.71px" transform="rotate(270)"/><rect x="164.83" y="323.23" width="1.78" height="1.78" rx=".5" class="F" transform-origin="165.72px 324.12px" transform="rotate(270)"/><g class="E"><rect x="164.83" y="320.64" width="1.78" height="1.78" rx=".5" transform-origin="165.72px 321.53px" transform="rotate(270)"/><rect x="164.83" y="318.05" width="1.78" height="1.78" rx=".5" transform-origin="165.72px 318.94px" transform="rotate(270)"/><rect x="164.83" y="315.46" width="1.78" height="1.78" rx=".5" transform-origin="165.72px 316.35px" transform="rotate(270)"/><rect x="164.83" y="312.87" width="1.78" height="1.78" rx=".5" transform-origin="165.72px 313.76px" transform="rotate(270)"/><rect x="167.64" y="333.59" width="1.78" height="1.78" rx=".5" transform-origin="168.53px 334.48px" transform="rotate(270)"/></g><g class="F"><rect x="167.64" y="331" width="1.78" height="1.78" rx=".5" transform-origin="168.53px 331.89px" transform="rotate(270)"/><rect x="167.64" y="328.41" width="1.78" height="1.78" rx=".5" transform-origin="168.53px 329.3px" transform="rotate(270)"/><rect x="167.64" y="325.82" width="1.78" height="1.78" rx=".5" transform-origin="168.53px 326.71px" transform="rotate(270)"/><rect x="167.64" y="323.23" width="1.78" height="1.78" rx=".5" transform-origin="168.53px 324.12px" transform="rotate(270)"/><rect x="167.64" y="320.64" width="1.78" height="1.78" rx=".5" transform-origin="168.53px 321.53px" transform="rotate(270)"/></g><g class="E"><rect x="167.64" y="318.05" width="1.78" height="1.78" rx=".5" transform-origin="168.53px 318.94px" transform="rotate(270)"/><rect x="167.64" y="315.46" width="1.78" height="1.78" rx=".5" transform-origin="168.53px 316.35px" transform="rotate(270)"/></g><rect x="167.64" y="312.87" width="1.78" height="1.78" rx=".5" class="F" transform-origin="168.53px 313.76px" transform="rotate(270)"/><path class="C D G" d="M152.89 323.28h5.61v13.6h-5.61z" transform-origin="155.695px 330.08px" transform="rotate(180)"/><use xlink:href="#U" class="F" transform-origin="154.225px 335.605px"/><use xlink:href="#U" y="-1.38" class="G" transform-origin="154.225px 334.225px"/><g class="F"><use xlink:href="#U" y="-2.76" transform-origin="154.225px 332.845px"/><use xlink:href="#U" y="-4.14" transform-origin="154.225px 331.465px"/></g><use xlink:href="#U" y="-5.52" class="G" transform-origin="154.225px 330.085px"/><g class="F"><use xlink:href="#U" y="-6.9" transform-origin="154.225px 328.705px"/><use xlink:href="#U" y="-8.28" transform-origin="154.225px 327.325px"/><use xlink:href="#U" y="-9.66" transform-origin="154.225px 325.945px"/></g><use xlink:href="#U" y="-11.04" class="G" transform-origin="154.225px 324.565px"/><g class="F"><use xlink:href="#V" transform-origin="155.715px 335.605px"/><use xlink:href="#V" y="-1.38" transform-origin="155.715px 334.225px"/></g><use xlink:href="#V" y="-2.76" class="G" transform-origin="155.715px 332.845px"/><g class="F"><use xlink:href="#V" y="-4.14" transform-origin="155.715px 331.465px"/><use xlink:href="#V" y="-5.52" transform-origin="155.715px 330.085px"/></g><g class="G"><use xlink:href="#V" y="-6.9" transform-origin="155.715px 328.705px"/><use xlink:href="#V" y="-8.28" transform-origin="155.715px 327.325px"/></g><g class="F"><use xlink:href="#V" y="-9.66" transform-origin="155.715px 325.945px"/><use xlink:href="#V" y="-11.04" transform-origin="155.715px 324.565px"/></g><use xlink:href="#W" class="G" transform-origin="157.215px 335.605px"/><g class="F"><use xlink:href="#W" y="-1.38" transform-origin="157.215px 334.225px"/><use xlink:href="#W" y="-2.76" transform-origin="157.215px 332.845px"/></g><use xlink:href="#W" y="-4.14" class="G" transform-origin="157.215px 331.465px"/><use xlink:href="#W" y="-5.52" class="F" transform-origin="157.215px 330.085px"/><use xlink:href="#W" y="-6.9" class="G" transform-origin="157.215px 328.705px"/><use xlink:href="#W" y="-8.28" class="F" transform-origin="157.215px 327.325px"/><g class="G"><use xlink:href="#W" y="-9.66" transform-origin="157.215px 325.945px"/><use xlink:href="#W" y="-11.04" transform-origin="157.215px 324.565px"/></g><g class="C D"><path d="M110.05,312.5l-11.13-5.73,10-32.34,12.26,2.07,1.94-6.28,2.62-4L138,270l-.87,2.83a5.75,5.75,0,1,0-3.4,11l-6.37,20.59a5.75,5.75,0,1,0-3.4,11l-.53,1.71-13.5-4.18Z" class="F" transform-origin="118.46px 291.675px"/><path class="M" d="M123.13 271.18l-4.79 15.5-10.49-3.62 2.59-8.37 10.75 1.81 1.67-5.41.27.09z" transform-origin="115.49px 278.885px"/><path d="M134.06 282.72a4.6 4.6 0 1 0-3-5.76 4.6 4.6 0 0 0 3 5.76z" class="F" transform-origin="135.45px 278.335px"/><path d="M134.74 280.52a2.3 2.3 0 1 0-1.52-2.88 2.28 2.28 0 0 0 1.52 2.88z" class="E" transform-origin="135.414px 278.322px"/><path d="M124.29 314.29a4.6 4.6 0 1 0-3-5.75 4.58 4.58 0 0 0 3 5.75z" class="F" transform-origin="125.68px 309.906px"/><g class="E"><path d="M125,312.1a2.3,2.3,0,1,0-1.52-2.88A2.32,2.32,0,0,0,125,312.1Z" transform-origin="125.679px 309.902px"/><path d="M120.15 314.78a7.34 7.34 0 0 1 3.72-12l6-19.55a7.34 7.34 0 0 1 3.72-12l.71-2.31L138 270l-.87 2.83a5.75 5.75 0 1 0-3.4 11l-6.37 20.59a5.75 5.75 0 1 0-3.4 11l-.53 1.71-3.65-1.13z" transform-origin="128.148px 293.025px"/></g><path class="F" d="M120.15 278.74l.31-1-.63-.19-.02-.59-1.04.26-1.69-.53-.3 1.01 3.37 1.04z" transform-origin="118.62px 277.715px"/><g class="M"><path d="M104.55 293.74l2.77-8.97 10.53 3.5-3.23 10.43-10.07-4.96z" transform-origin="111.2px 291.735px"/><path d="M114.23 299.96l-3.51 11.34-9.91-5.49 3.35-10.81 10.07 4.96z" transform-origin="107.52px 303.15px"/></g></g><g class="H J C"><path d="M129.92 283.21l-2 6.43-9.59-3 3.12-10.09 6.62 2a7.35 7.35 0 0 0 1.85 4.66z" transform-origin="124.125px 283.095px"/><path d="M117.81 288.4l-3.12 10.09 9.58 2.96 2-6.43 1.13-3.66-9.59-2.96z" transform-origin="121.045px 294.925px"/></g><g class="E"><path d="M371.27 258.24l13.16-3.94 12.83 25.44-11.26 7.7 3.25 6.44 1 5.15-12.55 6.34-1.46-2.9a6.31 6.31 0 1 0-5.69-11.27l-6.74-13.39a6.31 6.31 0 0 0-5.69-11.27l-.88-1.75 13.85-7z" class="C D" transform-origin="377.25px 279.835px"/><use xlink:href="#X" transform-origin="381.155px 266.05px"/></g><g class="G" clip-path="url(#F)" transform-origin="381.155px 266.05px"><use xlink:href="#X" class="L" transform-origin="381.155px 266.05px"/></g><use xlink:href="#X" class="C D H" transform-origin="381.155px 266.05px"/><use xlink:href="#Y" class="E" transform-origin="388.185px 282.615px"/><g class="G" clip-path="url(#G)" transform-origin="388.185px 282.615px"><use xlink:href="#Y" class="L" transform-origin="388.185px 282.615px"/></g><g class="C D"><use xlink:href="#Y" class="H" transform-origin="388.185px 282.615px"/><path d="M371.09 292.32a5.05 5.05 0 1 0 6.78 2.24 5 5 0 0 0-6.78-2.24z" class="F" transform-origin="373.36px 296.823px"/><path d="M372.23 294.58a2.52 2.52 0 1 0 3.39 1.12 2.52 2.52 0 0 0-3.39-1.12z" class="E" transform-origin="373.367px 296.829px"/><path d="M358.66 267.67a5.05 5.05 0 1 0 6.78 2.24 5 5 0 0 0-6.78-2.24z" class="F" transform-origin="360.93px 272.173px"/><path d="M359.8 269.92a2.52 2.52 0 1 0 3.39 1.12 2.52 2.52 0 0 0-3.39-1.12z" class="E" transform-origin="360.937px 272.169px"/><rect x="364.46" y="252.67" width="4.33" height="9.92" rx="1.68" class="F" transform-origin="366.625px 257.63px" transform="rotate(243.24)"/><g transform="rotate(243.25)" class="E"><rect x="393.43" y="269.81" width="10.84" height="4.15" rx="1.61" transform-origin="398.85px 271.885px"/><rect x="397.13" y="267.94" width="10.84" height="4.15" rx="1.61" transform-origin="402.55px 270.015px"/></g></g><rect x="393.79" y="257.49" width="10.84" height="4.15" rx="1.61" class="E" transform-origin="399.21px 259.565px" transform="rotate(243.25)"/><g class="G" clip-path="url(#H)" transform-origin="399.21px 259.565px"><rect x="393.79" y="257.49" width="10.84" height="4.15" rx="1.61" opacity=".5" transform-origin="399.21px 259.565px" transform="rotate(243.25)"/></g><g class="C D"><rect x="393.79" y="257.49" width="10.84" height="4.15" rx="1.61" class="H" transform-origin="399.21px 259.565px" transform="rotate(243.25)"/><rect x="386.06" y="256.88" width="15.33" height="5.87" rx="1.9" class="E" transform-origin="393.725px 259.815px" transform="rotate(243.24)"/><g class="H"><g class="I"><path d="M396.11 273.86l1.12-.57 6.11-6.31" transform-origin="399.725px 270.42px"/><path d="M405.75 271.76l-10.32-2.06-1.13.57" transform-origin="400.025px 270.73px"/><path d="M400.05 256.62l-6.47 9.43-1.13.56" transform-origin="396.25px 261.615px"/><path d="M402.38 261.24l-12.83-3.19-1.13.57" transform-origin="395.4px 259.645px"/></g><path d="M374 288.79l-3.33-6.6 9.84-5 5.21 10.35-6.79 3.46a8.07 8.07 0 0 0-4.93-2.21z" transform-origin="378.195px 284.095px"/></g><path class="E" d="M385.11 284.88l.52 1.03.64-.33.47.44.62-.99 1.73-.87-.52-1.03-3.46 1.75z" transform-origin="387.1px 284.575px"/><g class="M"><path d="M361.56,264.13a8.06,8.06,0,0,1,6.21,12.33L374,288.79a8.05,8.05,0,0,1,6.21,12.32l1.2,2.37-3.73,1.89-1.46-2.9a6.31,6.31,0,1,0-5.69-11.27l-6.74-13.39a6.31,6.31,0,0,0-5.69-11.27l-.88-1.75,3.73-1.88Z" transform-origin="369.335px 284.14px"/><path d="M386.87 252.74l13.12 26a.63.63 0 1 1-1.12.57l-1.75-3.46-1.45.73-.44-.88 1.45-.74-8.75-17.34-1.45.73-.45-.89 1.45-.73-1.73-3.44a.63.63 0 0 1 .28-.85.62.62 0 0 1 .84.3z" transform-origin="392.881px 266.036px"/></g></g><g class="D"><path class="F N" d="M214.64 346.14h5.22v11.45h-5.22z" transform-origin="217.25px 351.865px"/><path class="C G" d="M214.64 349.83h5.22v2.46h-5.22z" transform-origin="217.25px 351.06px"/><path d="M197.45 379.21h36.46a4 4 0 0 0 3.85-2.86l3.24-10.79h-49.83l2.37 10.52a4 4 0 0 0 3.91 3.13z" class="N" fill="#bfbfbf" transform-origin="216.085px 372.385px"/><path class="C E" d="M231.52 354.98h-35.39l-3.48 10.58H235l-3.48-10.58z" transform-origin="213.825px 360.27px"/></g><g transform="rotate(180)" class="F"><rect x="228.57" y="356.39" width="1.7" height="1.7" rx=".5" transform-origin="229.42px 357.24px"/><rect x="226.11" y="356.39" width="1.7" height="1.7" rx=".5" transform-origin="226.96px 357.24px"/><rect x="223.64" y="356.39" width="1.7" height="1.7" rx=".5" transform-origin="224.49px 357.24px"/><rect x="221.18" y="356.39" width="1.7" height="1.7" rx=".5" transform-origin="222.03px 357.24px"/><rect x="218.72" y="356.39" width="1.7" height="1.7" rx=".5" transform-origin="219.57px 357.24px"/><rect x="216.25" y="356.39" width="1.7" height="1.7" rx=".5" transform-origin="217.1px 357.24px"/><rect x="213.79" y="356.39" width="1.7" height="1.7" rx=".5" transform-origin="214.64px 357.24px"/><rect x="211.33" y="356.39" width="1.7" height="1.7" rx=".5" transform-origin="212.18px 357.24px"/></g><rect x="208.86" y="356.39" width="1.7" height="1.7" rx=".5" class="E" transform-origin="209.71px 357.24px" transform="rotate(180)"/><g class="F"><rect x="206.4" y="356.39" width="1.7" height="1.7" rx=".5" transform-origin="207.25px 357.24px" transform="rotate(180)"/><rect x="203.94" y="356.39" width="1.7" height="1.7" rx=".5" transform-origin="204.79px 357.24px" transform="rotate(180)"/><rect x="201.47" y="356.39" width="1.7" height="1.7" rx=".5" transform-origin="202.32px 357.24px" transform="rotate(180)"/><rect x="199.01" y="356.39" width="1.7" height="1.7" rx=".5" transform-origin="199.86px 357.24px" transform="rotate(180)"/><rect x="196.54" y="356.39" width="1.7" height="1.7" rx=".5" transform-origin="197.39px 357.24px" transform="rotate(180)"/></g><g class="E"><rect x="228.57" y="359.06" width="1.7" height="1.7" rx=".5" transform-origin="229.42px 359.91px" transform="rotate(180)"/><rect x="226.11" y="359.06" width="1.7" height="1.7" rx=".5" transform-origin="226.96px 359.91px" transform="rotate(180)"/><rect x="223.64" y="359.06" width="1.7" height="1.7" rx=".5" transform-origin="224.49px 359.91px" transform="rotate(180)"/></g><g class="F"><rect x="221.18" y="359.06" width="1.7" height="1.7" rx=".5" transform-origin="222.03px 359.91px" transform="rotate(180)"/><rect x="218.72" y="359.06" width="1.7" height="1.7" rx=".5" transform-origin="219.57px 359.91px" transform="rotate(180)"/></g><rect x="216.25" y="359.06" width="1.7" height="1.7" rx=".5" class="E" transform-origin="217.1px 359.91px" transform="rotate(180)"/><rect x="213.79" y="359.06" width="1.7" height="1.7" rx=".5" class="F" transform-origin="214.64px 359.91px" transform="rotate(180)"/><rect x="211.33" y="359.06" width="1.7" height="1.7" rx=".5" class="E" transform-origin="212.18px 359.91px" transform="rotate(180)"/><rect x="208.86" y="359.06" width="1.7" height="1.7" rx=".5" class="F" transform-origin="209.71px 359.91px" transform="rotate(180)"/><rect x="206.4" y="359.06" width="1.7" height="1.7" rx=".5" class="E" transform-origin="207.25px 359.91px" transform="rotate(180)"/><g class="F"><rect x="203.94" y="359.06" width="1.7" height="1.7" rx=".5" transform-origin="204.79px 359.91px" transform="rotate(180)"/><rect x="201.47" y="359.06" width="1.7" height="1.7" rx=".5" transform-origin="202.32px 359.91px" transform="rotate(180)"/><rect x="199.01" y="359.06" width="1.7" height="1.7" rx=".5" transform-origin="199.86px 359.91px" transform="rotate(180)"/></g><rect x="196.54" y="359.06" width="1.7" height="1.7" rx=".5" class="E" transform-origin="197.39px 359.91px" transform="rotate(180)"/><g class="F"><rect x="228.57" y="361.73" width="1.7" height="1.7" rx=".5" transform-origin="229.42px 362.58px" transform="rotate(180)"/><rect x="226.11" y="361.73" width="1.7" height="1.7" rx=".5" transform-origin="226.96px 362.58px" transform="rotate(180)"/><rect x="223.64" y="361.73" width="1.7" height="1.7" rx=".5" transform-origin="224.49px 362.58px" transform="rotate(180)"/></g><rect x="221.18" y="361.73" width="1.7" height="1.7" rx=".5" class="E" transform-origin="222.03px 362.58px" transform="rotate(180)"/><g class="F"><rect x="218.72" y="361.73" width="1.7" height="1.7" rx=".5" transform-origin="219.57px 362.58px" transform="rotate(180)"/><rect x="216.25" y="361.73" width="1.7" height="1.7" rx=".5" transform-origin="217.1px 362.58px" transform="rotate(180)"/><rect x="213.79" y="361.73" width="1.7" height="1.7" rx=".5" transform-origin="214.64px 362.58px" transform="rotate(180)"/><rect x="211.33" y="361.73" width="1.7" height="1.7" rx=".5" transform-origin="212.18px 362.58px" transform="rotate(180)"/><rect x="208.86" y="361.73" width="1.7" height="1.7" rx=".5" transform-origin="209.71px 362.58px" transform="rotate(180)"/><rect x="206.4" y="361.73" width="1.7" height="1.7" rx=".5" transform-origin="207.25px 362.58px" transform="rotate(180)"/></g><rect x="203.94" y="361.73" width="1.7" height="1.7" rx=".5" class="E" transform-origin="204.79px 362.58px" transform="rotate(180)"/><g class="F"><rect x="201.47" y="361.73" width="1.7" height="1.7" rx=".5" transform-origin="202.32px 362.58px" transform="rotate(180)"/><rect x="199.01" y="361.73" width="1.7" height="1.7" rx=".5" transform-origin="199.86px 362.58px" transform="rotate(180)"/><rect x="196.54" y="361.73" width="1.7" height="1.7" rx=".5" transform-origin="197.39px 362.58px" transform="rotate(180)"/></g><g class="C D G"><path d="M239.88 379.21s3.84-12.28-3.41-2.13c0 0-1.36-6.58-3.33-.94 0 0-5.63-1.62-2.13 2.39 0 0-6.07-2.22-4.06-.08 0 0-4.92-.77-4.92.76s17.31 2 17.85 0z" transform-origin="231.463px 376.801px"/><path d="M215.78 339.27a3.55 3.55 0 0 0-5.29-1.46 3.74 3.74 0 0 0-6.33-.14c-.84 1.28-.83 2.91-1.23 4.38s-1.69 3-3.18 2.67c2.45.09 13.32.07 17.84 0 1.62 0 2.66-1.1 2.46-3.14a3.31 3.31 0 0 0-1.53-2.47c-.87-.52-2.93-.36-2.74.16z" transform-origin="209.912px 340.386px"/></g><path d="M290.13,241s-.39,1.19,12,5.28,12.69,2.88,12.69,2.88" class="C D H I" transform-origin="302.474px 245.164px"/><use xlink:href="#Z" class="F" transform-origin="302.78px 240.712px"/><g class="C D"><use xlink:href="#Z" class="H" transform-origin="302.78px 240.712px"/><g class="E"><path d="M314.78 249.19s-.34 1.21-12.69-2.88-12-5.28-12-5.28h0 0c-1.82 5.49 2.46 9.54 4.65 14.57a8.11 8.11 0 0 1 .15 4.13l4.89 1.62a8.1 8.1 0 0 1 2.59-3.22c4.76-2.73 10.61-3.43 12.43-8.92h0z" transform-origin="302.225px 251.19px"/><path d="M306.55 232.76c-3-1-7.19 3.75-9.45 10.58a13.5 13.5 0 0 0-.33 1.1c1.44.54 3.19 1.16 5.32 1.87s3.86 1.24 5.32 1.66a19.39 19.39 0 0 0 .4-1.09c2.26-6.82 1.69-13.14-1.26-14.12z" transform-origin="302.982px 240.299px"/></g></g><use xlink:href="#a" class="G" transform-origin="301.796px 252.66px"/><g class="C D"><use xlink:href="#a" class="H" transform-origin="301.796px 252.66px"/><path d="M297.34 270.6l-6-2a1.53 1.53 0 0 1-.91-2.1l1.59-3.45 8.09 2.67-.78 3.73a1.54 1.54 0 0 1-1.99 1.15z" class="E" transform-origin="295.198px 266.864px"/><path class="G" d="M290.93 263.98h10.27v.84h-10.27z" transform-origin="296.065px 264.4px" transform="rotate(18.33)"/><g class="H I"><path d="M291.74 262.52l-2.03-17.99" transform-origin="290.725px 253.525px"/><path d="M300.66 265.48l12.36-13.22" transform-origin="306.84px 258.87px"/><path d="M101.27,209.82s1.21.79,9.38-11.73,6.92-13.24,6.92-13.24" transform-origin="109.454px 197.34px"/></g></g><use xlink:href="#b" class="F" transform-origin="106.045px 196.161px"/><g class="C D"><use xlink:href="#b" class="H" transform-origin="106.045px 196.161px"/><g class="E"><path d="M117.57 184.85s1.24.73-6.92 13.24-9.38 11.73-9.38 11.73h0 0c5.56 3.62 11.32.07 17.55-.89a9.29 9.29 0 0 1 4.63 1l3.23-4.95a9.36 9.36 0 0 1-2.82-3.83c-1.63-6.08-.69-12.78-6.25-16.41h0z" transform-origin="113.975px 198.076px"/><path d="M96.9 189.17c-2 3 2.07 9.08 9 13.6.38.25.76.47 1.13.69l3.64-5.37c1.42-2.17 2.5-3.92 3.4-5.42-.34-.25-.7-.51-1.09-.76-6.93-4.51-14.12-5.74-16.08-2.74z" transform-origin="105.23px 195.495px"/></g></g><use xlink:href="#c" class="G" transform-origin="116.375px 200.65px"/><g class="C D"><use xlink:href="#c" class="H" transform-origin="116.375px 200.65px"/><path d="M136.22 210.49l-4 6.08a1.76 1.76 0 0 1-2.6.4l-3.36-2.79 5.34-8.19 3.91 2a1.76 1.76 0 0 1 .71 2.5z" class="E" transform-origin="131.372px 211.682px"/><path class="G" d="M123.07 209.61h11.79v.96h-11.79z" transform-origin="128.965px 210.09px" transform="rotate(303.12)"/><g class="H I"><path d="M125.61 214.35l-20.57-3.03" transform-origin="115.325px 212.835px"/><path d="M131.51 205.31l-11.05-17.61" transform-origin="125.985px 196.505px"/></g></g><use xlink:href="#d" class="E" transform-origin="355.001px 169.201px"/><use xlink:href="#d" class="G K" transform-origin="355.001px 169.201px"/><g class="C D H I"><path d="M386.3,168.51a16.77,16.77,0,0,1-20.64,26.31" transform-origin="378.696px 183.073px"/><path d="M365.85,146.07a20.25,20.25,0,0,1,3.88,3.35,13.62,13.62,0,0,1,17.51,16.75" transform-origin="376.827px 156.12px"/><path d="M327.92,148.54a13.64,13.64,0,0,1,14.39-1.76,20.37,20.37,0,0,1,21-2.14" transform-origin="345.615px 145.606px"/><path d="M357.76,189.57,329,170.46a13.64,13.64,0,0,1-3.81-18.89" transform-origin="340.34px 170.57px"/><path d="M362.19,192.52l-1.4-.93" transform-origin="361.49px 192.055px"/></g><use xlink:href="#e" class="E" transform-origin="124.099px 151.82px"/><use xlink:href="#e" class="G K" transform-origin="124.099px 151.82px"/><g class="C D H I"><path d="M111.21,129.52a13.82,13.82,0,0,0-3,15.85l-.21.14a11.26,11.26,0,0,0-4.54,10.56,11.11,11.11,0,0,0-5.28,2.07" transform-origin="104.695px 143.83px"/><path d="M130.84,130.17a13.81,13.81,0,0,0-18.25-1.79" transform-origin="121.715px 127.956px"/><path d="M145.74,151.36A11.24,11.24,0,0,0,132.83,133" transform-origin="141.419px 141.331px"/><path d="M141.06,154.76l3.24-2.36" transform-origin="142.68px 153.58px"/><path d="M96.69,159.42a11.24,11.24,0,0,0,14.69,16.91l28.12-20.44" transform-origin="116.506px 167.191px"/></g><use xlink:href="#f" class="E" transform-origin="395.067px 232.78px"/><use xlink:href="#f" class="G K" transform-origin="395.067px 232.78px"/><g class="C D H I"><path d="M409.23,225.8a8.55,8.55,0,0,0-9.51-3.05c0-.05,0-.09-.07-.14a7,7,0,0,0-6.14-3.59,7,7,0,0,0-.87-3.39" transform-origin="400.935px 220.715px"/><path d="M407.35,237.81a8.56,8.56,0,0,0,2.48-11.08" transform-origin="409.124px 232.27px"/><path d="M393.21,245.36a7,7,0,0,0,12.27-6.54" transform-origin="399.585px 243.594px"/><path d="M391.48,242.23l1.2,2.17" transform-origin="392.08px 243.315px"/><path d="M392 214.62a7 7 0 0 0-11.49 7.75l10.43 18.82" transform-origin="385.904px 226.753px"/></g><use xlink:href="#g" class="E" transform-origin="102.067px 227.745px"/><use xlink:href="#g" class="G K" transform-origin="102.067px 227.745px"/><g class="C D H I"><path d="M87.7 216.83a8.54 8.54 0 0 0 2.3 9.71l-.09.13a7 7 0 0 0 .13 7.11 6.94 6.94 0 0 0-2.45 2.51" transform-origin="88.5472px 226.56px"/><path d="M98.93,212.2a8.55,8.55,0,0,0-10.75,3.63" transform-origin="93.555px 213.678px"/><path d="M112.73,220.36a7,7,0,0,0-12-7.09" transform-origin="107.063px 215.371px"/><path d="M111,223.47l1.23-2.15" transform-origin="111.615px 222.395px"/><path d="M87.11,237.39a7,7,0,0,0,12.59,5.8l10.67-18.68" transform-origin="98.5928px 235.454px"/></g><use xlink:href="#h" class="E" transform-origin="135.615px 417.103px"/><use xlink:href="#h" class="G K" transform-origin="135.615px 417.103px"/><g class="C D H I"><path d="M111.64,412.28A13.42,13.42,0,0,1,132.87,396" transform-origin="121.18px 401.927px"/><path d="M123,433.75a16.43,16.43,0,0,1-2.34-3.37,10.9,10.9,0,0,1-10.24-16.47" transform-origin="115.934px 423.83px"/><path d="M152.9,439.38a10.91,10.91,0,0,1-11.5-1.5,16.33,16.33,0,0,1-16.71-2.52" transform-origin="138.795px 437.868px"/><path d="M137.94,401.64l18.5,20.54a10.89,10.89,0,0,1-.81,15.39" transform-origin="148.59px 419.605px"/><path d="M135.1,398.48l.9,1" transform-origin="135.55px 398.98px"/></g><use xlink:href="#i" class="E" transform-origin="363.749px 430.064px"/><use xlink:href="#i" class="G K" transform-origin="363.749px 430.064px"/><g class="C D H I"><path d="M376.24,447.22a11.07,11.07,0,0,0,.9-12.88l.15-.13a9,9,0,0,0,2.61-8.82,8.87,8.87,0,0,0,4-2.13" transform-origin="380.07px 435.24px"/><path d="M360.58,448.55a11.05,11.05,0,0,0,14.67-.29" transform-origin="367.915px 449.727px"/><path d="M346.75,433.13a9,9,0,0,0,12,13.39" transform-origin="351.407px 440.837px"/><path d="M350.14,430l-2.35,2.17" transform-origin="348.965px 431.085px"/><path d="M385,422.1a9,9,0,0,0-13.26-12.05l-20.42,18.89" transform-origin="369.055px 418.326px"/></g><use xlink:href="#j" class="E" transform-origin="94.9337px 354.422px"/><use xlink:href="#j" class="G K" transform-origin="94.9337px 354.422px"/><g class="C D H I"><path d="M83.46,357.17a6.84,6.84,0,0,0,7,3.89.53.53,0,0,0,0,.12A5.55,5.55,0,0,0,94.72,365a5.47,5.47,0,0,0,.15,2.8" transform-origin="89.165px 362.485px"/><path d="M86.83,348.05a6.82,6.82,0,0,0-3.69,8.29" transform-origin="84.8234px 352.195px"/><path d="M99.11,344.35a5.56,5.56,0,0,0-10.66,3.19" transform-origin="93.6635px 343.962px"/><path d="M100 347.08l-.6-1.89" transform-origin="99.7px 346.135px"/><path d="M95.24 368.66a5.57 5.57 0 0 0 10.24-4.27l-5.21-16.4" transform-origin="100.488px 359.811px"/></g><use xlink:href="#k" class="E" transform-origin="394.621px 360.349px"/><use xlink:href="#k" class="G K" transform-origin="394.621px 360.349px"/><g class="C D H I"><path d="M406.38,366.66a6.83,6.83,0,0,0-3.18-7.33.37.37,0,0,0,.05-.11,5.56,5.56,0,0,0-1.08-5.59,5.51,5.51,0,0,0,1.59-2.31" transform-origin="404.354px 358.99px"/><path d="M398.17,371.86a6.83,6.83,0,0,0,8-4.34" transform-origin="402.17px 369.782px"/><path d="M386.17,367.34a5.56,5.56,0,0,0,10.4,3.93" transform-origin="391.21px 371.051px"/><path d="M387.13,364.64l-.67,1.87" transform-origin="386.795px 365.575px"/><path d="M404,350.38a5.57,5.57,0,0,0-10.72-2.83l-5.82,16.2" transform-origin="395.766px 353.834px"/></g></g><g id="C" class="B" transform-origin="251.021px 121.977px"><path d="M260.19 44.74c-3.45-2.07-17.11-6.79-27.05 12.95-12.4 24.61-21.37 60.78-9.57 64s18.3 4.15 22.08-5.87 1.26-29.24 5.27-39.53 24.95-22.14 9.27-31.55z" class="C D F" transform-origin="241.994px 83.3088px"/><path d="M252.52 46.87a3.23 3.23 0 0 0-4-3.86c-5 1.28-10.66 5.25-15.41 14.68a163.17 163.17 0 0 0-13.48 38.08c3.06 1.44 9.59 4 10.34.2 1-5 6.38-31.84 10.9-36.57 3.54-3.67 10.2-6.81 11.65-12.53z" class="C D E" transform-origin="236.119px 70.426px"/><path d="M231.83 60.36l-1.08 2.29c14.52 5.41 21.64 6.26 23.83 6.38l1.34-2.33c-9.73-1.17-20.84-5.12-24.09-6.34z" class="C D M" transform-origin="243.335px 64.695px"/><path d="M224 79.77l-.87 2.71c13 4.77 21.88 6.33 25.43 6.81l.24-2.75c-10.17-1.54-21.09-5.4-24.8-6.77z" class="C D M" transform-origin="235.965px 84.53px"/><path d="M213.43 136.44c-12.08-6.85 6.14-21.13 6.14-21.13l-.18-1.58s-20.12 15-7 24c12.26 8.4 21.07-14.76 21.07-14.76l-1.58-1s-6.37 21.32-18.45 14.47z" class="C D F" transform-origin="220.704px 126.648px"/><path d="M226.05,131A8.48,8.48,0,1,1,220,120.62,8.47,8.47,0,0,1,226.05,131Z" class="C D E" transform-origin="217.855px 128.824px"/><path d="M219.56 129.28a1.77 1.77 0 1 1-1.26-2.16 1.77 1.77 0 0 1 1.26 2.16z" class="F" transform-origin="217.848px 128.831px"/><path d="M219.71 121.72a7.35 7.35 0 1 0 5.25 9 7.35 7.35 0 0 0-5.25-9zm-3.33 12.72a5.8 5.8 0 1 1 7.08-4.14 5.8 5.8 0 0 1-7.08 4.14z" class="F" transform-origin="217.856px 128.832px"/><path d="M219 124.33a4.65 4.65 0 1 0 3.32 5.68 4.64 4.64 0 0 0-3.32-5.68zm-1.9 7.23a2.82 2.82 0 1 1 3.45-2 2.84 2.84 0 0 1-3.42 2z" class="F" transform-origin="217.824px 128.828px"/><path d="M221.76 97.92s13.43 5.17 20.14 5.28c0 0-.65 21.35-13.43 18.66s-8.54-18.86-6.71-23.94z" class="C H J" transform-origin="230.748px 110.007px"/><path d="M236.81,102.52s.28,6.33,3.74,9.2" class="C H I J" transform-origin="238.68px 107.12px"/><path d="M230.88,101s.52,11.76,6.94,17.1" class="C H I J" transform-origin="234.35px 109.55px"/><path d="M224.27,98.84s.45,15.65,8.95,22.71" class="C H I J" transform-origin="228.745px 110.195px"/><path d="M238,102.83c-1.24,1.94-7.76,11.59-16.49,14.48" class="C H I J" transform-origin="229.755px 110.07px"/><path d="M241.09,109.66c-3,3.87-8.44,9.61-15,11.38" class="C H I J" transform-origin="233.59px 115.35px"/><path d="M232.39,101.43c-2.57,3.34-7.06,8.3-12.6,10.77" class="C H I J" transform-origin="226.09px 106.815px"/><path d="M226.18,99.5a36.35,36.35,0,0,1-6,5.29" class="C H I J" transform-origin="223.18px 102.145px"/><path d="M220.06,104.39a18.94,18.94,0,0,0,6.68,17" class="C H I J" transform-origin="223.322px 112.89px"/><path d="M232.74 102.61a90.21 90.21 0 0 1-12-4.14 1.27 1.27 0 0 1 1-2.33c.12.06 12.45 5.42 20.41 5.38a1.28 1.28 0 0 1 0 2.55 38.72 38.72 0 0 1-9.41-1.46z" class="C D" fill="#5c5c5c" transform-origin="231.678px 100.067px"/><path d="M246.59 162.76s-6.88 18.35-12 18-36.61-3.41-50.53-1.69l-3.09 1.69s-4.3 7.24-4.81 9.48 1.89 8.42-1.55 9.62H174a2.63 2.63 0 0 1-2.42-1.57 36.72 36.72 0 0 1-3.22-13l-.86-4.49s-3.6-11.66-.86-13.38S176 168.59 179 169c4.21.6 11.51-.6 17-.77s13.71-5.36 30.08-.86c0 0 1.72.69 5.16-12.55.05.03 12.44 1.24 15.35 7.94z" class="C D G" transform-origin="206.101px 177.34px"/><path d="M179.85 182.65s-1.73-1.33-3-.87-2.06 1.85-1.83-1.08-.34-5.34.57-7.86a16.44 16.44 0 0 0 1-4.37c-3.33-.93-7.79-2.41-10-1.07-2.74 1.72.86 13.38.86 13.38l.86 4.49a36.72 36.72 0 0 0 3.22 13 2.63 2.63 0 0 0 2.42 1.57h.55c3.44-1.2 1-7.39 1.55-9.62.42-1.47 2.49-5.22 3.8-7.57z" class="C D E" transform-origin="172.706px 183.352px"/><path d="M169.41 183.37c-.22-3.45-1.71-5.37-2.06-10.64a11.09 11.09 0 0 1 1-5.83 3.9 3.9 0 0 0-1.69.5c-2.74 1.72.86 13.38.86 13.38l.86 4.49a36.72 36.72 0 0 0 3.22 13 2.63 2.63 0 0 0 2.42 1.57c-2.62-2.48-4.38-13.02-4.61-16.47z" class="C D E" transform-origin="169.826px 183.37px"/><path d="M266.52,125,245,168.26s-12.71-2.86-16.49-7.62c0,0,3.48-13.78,5.93-21.56a7.81,7.81,0,0,0-.8-6.51c-1.21-1.91-2.34-4.44-1.57-6.4,1.42-3.63,11.56-9,11.56-9l10.81-2.86L266,120.65l1.12.95Z" class="E" transform-origin="247.815px 141.285px"/><g clip-path="url(#I)" transform-origin="245.095px 140.11px"><g><path d="M257.44,130.34,243,117.58c-2.29,1.27-9.68,5.53-10.88,8.59-.77,2,.36,4.49,1.57,6.4a7.81,7.81,0,0,1,.8,6.51c-2.45,7.78-5.93,21.56-5.93,21.56a10.26,10.26,0,0,0,2.26,2c4.83-3.94,6.25-20.38,9.68-19,3.25,1.31,12.76.56,16.66.18l4.47-9Z" opacity=".2" transform-origin="245.095px 140.11px"/></g></g><path d="M266.52,125,245,168.26s-12.71-2.86-16.49-7.62c0,0,3.48-13.78,5.93-21.56a7.81,7.81,0,0,0-.8-6.51c-1.21-1.91-2.34-4.44-1.57-6.4,1.42-3.63,11.56-9,11.56-9l10.81-2.86L266,120.65l1.12.95Z" class="C D H" transform-origin="247.815px 141.285px"/><path d="M228.54,178.46s1.54-2.52,3.46-3.1" class="C D H I" transform-origin="230.27px 176.91px"/><path d="M228.5 158.16s10.78 6.85 18 7.83c0 0 .61 2.36-1.31 3.35a1.79 1.79 0 0 1-1.17 1.85s-10.79-2.62-16.64-7.91c0 0-.62-.44.45-2a3 3 0 0 1 .67-3.12z" class="E" transform-origin="236.897px 164.675px"/><g class="G" clip-path="url(#J)" transform-origin="236.897px 164.675px"><g><path d="M228.5 158.16s10.78 6.85 18 7.83c0 0 .61 2.36-1.31 3.35a1.79 1.79 0 0 1-1.17 1.85s-10.79-2.62-16.64-7.91c0 0-.62-.44.45-2a3 3 0 0 1 .67-3.12z" class="L" transform-origin="236.897px 164.675px"/></g></g><path d="M228.5 158.16s10.78 6.85 18 7.83c0 0 .61 2.36-1.31 3.35a1.79 1.79 0 0 1-1.17 1.85s-10.79-2.62-16.64-7.91c0 0-.62-.44.45-2a3 3 0 0 1 .67-3.12z" class="C D H" transform-origin="236.897px 164.675px"/><path d="M230,163.17c1.95,1.5,6.12,3.94,14.28,5.86" class="C D H I" transform-origin="237.14px 166.1px"/><path d="M228.54,161.77a4.08,4.08,0,0,0,.51.57" class="C D H I" transform-origin="228.795px 162.055px"/><path d="M283.77 142.87s11.66 9.58 12.1 11.54 9.9 35.81 17.63 47.13c0 0 3.38 6 13.5 8.82 0 0 8.92 0 9.47 3.37 0 0 .65 4.57-8.27 4.9s-11-.65-13.83-.55-11.21 1.42-10.88-2.5l.87-9.47s-19.08-30.58-20.59-43.65l-12.5-8.27z" class="C D G" transform-origin="303.875px 180.784px"/><path d="M327 210.36a28.09 28.09 0 0 1-9-4.22c-1.07-.08-1.07-.08-2.45 1.17-1.82 1.65 1.29 2.6.65 3.05-1.79 1.24-6.74 1.3-7.62 0s-4.43-2.31-4.43-2.31l-.68 7.53c-.33 3.92 8.05 2.61 10.88 2.5s4.9.88 13.83.55 8.27-4.9 8.27-4.9c-.53-3.37-9.45-3.37-9.45-3.37z" class="C D E" transform-origin="319.961px 212.404px"/><path d="M328.2 218.63c5.81-.21 7.56-2.23 8.07-3.61-3 3.48-13.77 2.73-17.65 2.09s-7.51.1-11.21 0a3.72 3.72 0 0 1-3.82-2.72c0 .41-.07.81-.1 1.19-.33 3.92 8.05 2.61 10.88 2.5s4.9.92 13.83.55z" class="C D E" transform-origin="319.875px 216.55px"/><path d="M291.41,158.16a8.83,8.83,0,0,0,4.4,2.48" class="C D H I" transform-origin="293.61px 159.4px"/><path d="M234.89,117.39s-9.1,9.79,5,18.73,36.26,22.17,36.26,22.17,8.77-6,13.06-12.37c0,0-10.89-10-22.6-19.6a3.89,3.89,0,0,1-1.08-4.61l.48-1.06-15.12-8.25-9.63,2.07Z" class="C D E" transform-origin="260.605px 135.345px"/><path d="M273.39 157.26s10.49-7.3 14.18-13.58c0 0 2.41.35 2.58 2.5 0 0 1.8.51 1.89 2.06 0 0-7.22 8.68-14.35 12a2.65 2.65 0 0 1-2.32-1.46s-1.2.29-1.98-1.52z" class="E" transform-origin="282.715px 151.96px"/><g class="G" clip-path="url(#K)" transform-origin="282.715px 151.96px"><g><path d="M273.39 157.26s10.49-7.3 14.18-13.58c0 0 2.41.35 2.58 2.5 0 0 1.8.51 1.89 2.06 0 0-7.22 8.68-14.35 12a2.65 2.65 0 0 1-2.32-1.46s-1.2.29-1.98-1.52z" class="L" transform-origin="282.715px 151.96px"/></g></g><path d="M273.39 157.26s10.49-7.3 14.18-13.58c0 0 2.41.35 2.58 2.5 0 0 1.8.51 1.89 2.06 0 0-7.22 8.68-14.35 12a2.65 2.65 0 0 1-2.32-1.46s-1.2.29-1.98-1.52z" class="C D H" transform-origin="282.715px 151.96px"/><path d="M288,148.78c-2.26,2.45-6.44,6.56-10.92,8.87" class="C D H I" transform-origin="282.54px 153.215px"/><path d="M289.72,146.78l-.83,1" class="C D H I" transform-origin="289.305px 147.28px"/><path d="M293.5 93.5c1.22-1.94 4.64-6.76 6.44-9.26a4.43 4.43 0 0 0 .73-3.37c-.41-2.15-.87-5.71.05-7.65 1.37-2.92 3.09-3.27 4.29-5.67s1.9-.48 1.55.88l-.34 1.35s2.92-2.9 3.26-.07c0 0 1.89.59 1.72 2.31 0 0 1.55.17 1.21 2.92 0 0 1.13 1.37 0 4s-5.5 7.06-5.5 7.06l-9.29 16.48-6.07-1.09v-4.85l1.95-3.04z" class="C D G" transform-origin="302.231px 84.4441px"/><path d="M305.53,71.33s-2.06,3.09-1.29,3.87,1.29,0,1.29,0-.69,1.2,0,1.63,1.42-.29,1.42-.29-.3,1.23.3,1.66,1.52-.83,1.52-.83-1.18,2.12-.4,2.72,2.14-2.32,3-2.57" class="C D H I" transform-origin="307.719px 75.7505px"/><path d="M306.1,74.51a14.18,14.18,0,0,1,2-2.84" class="C D H I" transform-origin="307.1px 73.09px"/><path d="M307.72,75.28a8.73,8.73,0,0,1,2.51-2.38" class="C D H I" transform-origin="308.975px 74.09px"/><path d="M309.14,76.86A4.11,4.11,0,0,1,311,75.28" class="C D H I" transform-origin="310.07px 76.07px"/><path d="M302.24,75.75s4.17-1.08,3.86,5.55" class="C D H I" transform-origin="304.178px 78.4924px"/><path d="M282.27 68.69s3.15 6.59 3.67 11.58 3.26 11.51 3.78 13.92 1.2-1 3.78-.69c0 0-2.36 6.77 4.21 8a.6.6 0 0 0 .39.93c-1.71 2.38-6.94 9.12-9.93 7.27-3.61-2.28-10.17-12.59-10.17-12.59s1.46-31.91 4.27-28.42z" class="G" transform-origin="288.05px 89.2203px"/><g clip-path="url(#L)" transform-origin="284.985px 92.6217px"><g><path d="M291.94 109c-1.91 1.12-10.31-4.74-9.22-11s0-22.2 0-22.2l-2.89-.54c-1.19 8.48-1.8 21.9-1.8 21.9s6.53 10.31 10.14 12.54c1.06.61 2.4.17 3.77-.7z" opacity=".2" transform-origin="284.985px 92.6217px"/></g></g><path d="M282.27 68.69s3.15 6.59 3.67 11.58 3.26 11.51 3.78 13.92 1.2-1 3.78-.69c0 0-2.36 6.77 4.21 8a.6.6 0 0 0 .39.93c-1.71 2.38-6.94 9.12-9.93 7.27-3.61-2.28-10.17-12.59-10.17-12.59s1.46-31.91 4.27-28.42z" class="C D H" transform-origin="288.05px 89.2203px"/><path d="M286.28,104.15s1.72-8.42,2.92-7.9-1.2,3.44,2.07,7.9" class="C D H I" transform-origin="288.775px 100.188px"/><path d="M276.08 105.36c3.67-6.42 11.46-25.9 6.19-36.67S265 55.41 256.84 54c-20.25-3.56-13.75 33-18.11 45.17-2.66 7.42-3.77 14.59-5.31 19 0 0 13-4.22 22.44-.13s10.66 6.96 10.66 6.96 7.14-15.4 9.56-19.64z" class="G" transform-origin="258.733px 89.3786px"/><g clip-path="url(#M)" transform-origin="258.42px 97.2134px"><path d="M241 79.61l-.23 3.76c5.31-.87 26.61-3.24 40 11.24.37-1.07.73-2.18 1.06-3.32-13.28-14.76-35.06-12.57-40.83-11.68z" class="E" transform-origin="261.3px 86.7803px"/><path d="M241.67 71.87l-.4 3.78c5.18-.86 27.92-3.57 41.36 12.57a55.95 55.95 0 0 0 .76-3.64C270.24 68.7 247.62 71 241.67 71.87z" class="E" transform-origin="262.33px 79.7251px"/><path d="M240.51 87.2l-.33 4.19c3.64-.89 24.48-5.11 38 9.8.42-.93.85-1.94 1.28-3C266 83.62 244.8 86.45 240.51 87.2z" class="E" transform-origin="259.82px 93.834px"/><g><path d="M257.52 110c-7.93-5.47-10.15-23.46-7.42-33.11s-8.1-7.18-8.1-7.18c-1.63 10.41-1 23.19-3.24 29.46-2.66 7.42-3.77 14.59-5.31 19 0 0 13-4.22 22.44-.13s10.63 6.96 10.63 6.96l2.6-5.54c-2.6-.89-6.05-5.67-11.6-9.46z" opacity=".2" transform-origin="251.285px 97.2134px"/></g></g><path d="M276.08 105.36c3.67-6.42 11.46-25.9 6.19-36.67S265 55.41 256.84 54c-20.25-3.56-13.75 33-18.11 45.17-2.66 7.42-3.77 14.59-5.31 19 0 0 13-4.22 22.44-.13s10.66 6.96 10.66 6.96 7.14-15.4 9.56-19.64z" class="C D H" transform-origin="258.733px 89.3786px"/><path d="M254.62,101.89c.83,4.26,3.06,10.91,8.95,14.47" class="C D H I" transform-origin="259.095px 109.125px"/><path d="M254.11,98s0,.66.15,1.74" class="C D H I" transform-origin="254.185px 98.87px"/><path d="M209.29 86l-8.83 25s-3.78 5.5-2.4 8.48a2.31 2.31 0 0 0 1.14 2.41 2.35 2.35 0 0 0 1.84 1.72 5.47 5.47 0 0 0 4.12 1.37c2.52-.23.52-2.75 1-4.47s0 5 2 5.16.52-3.1.63-6.19-.23-5-1.49-7c0 0 5.85-15.23 10.32-21-.08-.1-3.62-6.06-8.33-5.48z" class="C D G" transform-origin="207.688px 105.818px"/><path d="M205.12,120.18s-.39,1.76-1.07,1.93.81,0,1.5.91-.65-.69-.39-1.42" class="C D H I" transform-origin="204.813px 121.736px"/><path d="M202.67,122.72s-1.29.55-1.68-.65-1-.39-1.46-1.55-1.33-1.37-1.37-2.62" class="C D H I" transform-origin="200.415px 120.373px"/><path d="M255.46 54s-6.13-2.93-16.27 3.77-25.43 15-28 21a51.35 51.35 0 0 0-3.1 8.59s3.78.52 9.11 6.19l4.8-7.96s27-14.43 30.6-17.53" class="C D G I" transform-origin="231.775px 73.4561px"/><path d="M220.08,83.53s-.28-3.67-2.54-4.58,1.68-2.52,3.4,0" class="C D G I" transform-origin="218.899px 80.5646px"/><path d="M285.56,36.57s3.6-3.52,2.87-4.16a1.47,1.47,0,0,0-1.69,0s1.34-3.09-.54-3.82-2.48,0-2.48,0-.16-2.06-1.76-2.23a5,5,0,0,0-2.66.41s-.06-1.05-2.07-1.2-2.51.88-2.51.88a1.56,1.56,0,0,0-2-1.13,3.14,3.14,0,0,0-2.31,1.44s-.94-1.19-2-.7a4.67,4.67,0,0,0-1.78,2.17,2,2,0,0,0-1.86,0c-1,.55-.77,2.6-.77,2.6s-1.56,0-2.07,1,.71,2.56.71,2.56-1.71.39-2,1.77a1.85,1.85,0,0,0,1.2,2s-1.32,1-1.1,2.08a1.54,1.54,0,0,0,1.1,1.29,2.86,2.86,0,0,0,.24,2.36,2.06,2.06,0,0,0,1.41.89,1.94,1.94,0,0,0,.85,1.9c1.07.64.95,1.56,2.42,3.16s1.29,2.64,2.51,2.81.29-3.16,1.52-3.78,4.41-5.2,4.41-5.2l2.08-3.52,5.85-3.12Z" class="C D F" transform-origin="274.575px 38.9502px"/><path d="M278.13 63.13c-4-3.81-9.44-6.16-14.56-7.68a24.09 24.09 0 0 0 9.58 14.69c7.46 5.3 5.56-4.51 4.98-7.01z" class="C D E" transform-origin="271.174px 63.5689px"/><path d="M265.06 55.91a19.77 19.77 0 0 0 8 12.52c7 5 4-6.26 4-6.26a9.08 9.08 0 0 1 3-5.79l-7.51-12.21s-.55 6.12-7.49 11.74z" class="C D G" transform-origin="272.56px 56.9401px"/><path d="M270.48 49.78c.87 2.18 2.34 5 4.57 6.57a35.8 35.8 0 0 0 3.26 2.13 7.7 7.7 0 0 1 1.78-2.1l-5.68-9.24h-2.64a18 18 0 0 1-1.29 2.64z" class="F" transform-origin="275.285px 52.81px"/><path d="M271.66 45.25s-2-3.91-4.06-1.08.86 6 3.49 5.53c0 0 1.36 4.48 4.88 6.38s5.2 2.55 8 1.78 2.15-4 2.85-7.28a29 29 0 0 0 .37-7.21 11.21 11.21 0 0 0-.51-5s-.6-4.43-3.33-3.93-5.89-1.34-7.35-.44-2.4 3.91-1.81 5.61-1 3.64-1.11 5.42-.35 1.08-1.42.22z" class="C D G" transform-origin="277.091px 45.9624px"/><path d="M271.66 45.25s-2-3.91-4.06-1.08.86 6 3.49 5.53c0 0 1.36 4.48 4.88 6.38s5.2 2.55 8 1.78 2.15-4 2.85-7.28a29 29 0 0 0 .37-7.21 11.21 11.21 0 0 0-.51-5s-.6-4.43-3.33-3.93-5.89-1.34-7.35-.44-2.4 3.91-1.81 5.61-1 3.64-1.11 5.42-.35 1.08-1.42.22z" class="C D G" transform-origin="277.091px 45.9624px"/><path d="M284.39,44.74a7,7,0,0,0,.47,2.06c.32.88,1.15,1.73,1.11,2.05-.08.79-2,.1-2.47.69" class="C D G I" transform-origin="284.736px 47.14px"/><path d="M281.87 43.73c0 .61-.21 1.1-.51 1.11s-.55-.47-.57-1.08.21-1.11.51-1.11.55.47.57 1.08z" class="F" transform-origin="281.329px 43.7451px"/><path d="M286.58 43.75c0 .55-.19 1-.46 1s-.51-.43-.52-1 .19-1 .46-1 .5.46.52 1z" class="F" transform-origin="286.09px 43.75px"/><path d="M278.26,41.72s2.35-2.59,4.77-.1" class="C D H I" stroke-width="1.5" transform-origin="280.645px 41.1293px"/><path d="M285.71,41.34s.94-1.08,1.52-.05" class="C D H I" stroke-width="1.5" transform-origin="286.47px 41.0924px"/><path d="M278.21,50.2A8.68,8.68,0,0,0,284,51.31" class="C D H I" transform-origin="281.105px 50.8084px"/><path d="M283.94 57.86a3 3 0 0 0 .92-.42 5.36 5.36 0 0 0-1-2.92c-.12 0-.19.82-.19.82a12.5 12.5 0 0 0-1-.94c-.16-.09-.08 1.61-.08 1.61s-1.41-3.12-.94-1.29a10 10 0 0 1 0 3.45 8 8 0 0 0 2.29-.31z" class="C D F" transform-origin="283.207px 56.1575px"/><path d="M270.5,53.74s.23,5.44,1.6,8.31" class="C D H I" transform-origin="271.3px 57.895px"/><path d="M255.46,51.43S257.08,85.82,236,97.92l.83,1.77s16.63-4.71,20.71-30c.74-4.53,1.57-18.28,1.57-18.28Z" class="C D F" transform-origin="247.555px 75.55px"/><path d="M280.35 64.21a.25.25 0 0 0-.38.28c1.12 3.25 5.38 18.47-3.89 40.87 0 0 9.3-20 7.42-35.65a7.3 7.3 0 0 0-3.15-5.5z" class="C D F" transform-origin="279.915px 84.7632px"/></g><defs><clipPath id="D"><circle cx="253" cy="313.47" r="129.85" class="C D E"/></clipPath><clipPath id="E"><circle cx="253" cy="313.47" r="129.85" opacity=".3" class="G"/></clipPath><clipPath id="F"><path d="M371.66 259.7l8.01 15.9 10.98-5.25-6.98-13.85-12.01 3.2z" class="C D E"/></clipPath><clipPath id="G"><path d="M388.51 293.13l-8.01-15.9 11.03-5.13 4.34 8.59-9.88 6.75 2.8 5.55-.28.14z" class="C D E"/></clipPath><clipPath id="H"><rect x="393.79" y="257.49" width="10.84" height="4.15" rx="1.61" transform="matrix(-.450098 -.892979 .892979 -.450098 347.14 732.88)" class="C D E"/></clipPath><clipPath id="I"><path d="M266.52,125,245,168.26s-12.71-2.86-16.49-7.62c0,0,3.48-13.78,5.93-21.56a7.81,7.81,0,0,0-.8-6.51c-1.21-1.91-2.34-4.44-1.57-6.4,1.42-3.63,11.56-9,11.56-9l10.81-2.86L266,120.65l1.12.95Z" class="C D E"/></clipPath><clipPath id="J"><path d="M228.5 158.16s10.78 6.85 18 7.83c0 0 .61 2.36-1.31 3.35a1.79 1.79 0 0 1-1.17 1.85s-10.79-2.62-16.64-7.91c0 0-.62-.44.45-2a3 3 0 0 1 .67-3.12z" class="C D E"/></clipPath><clipPath id="K"><path d="M273.39 157.26s10.49-7.3 14.18-13.58c0 0 2.41.35 2.58 2.5 0 0 1.8.51 1.89 2.06 0 0-7.22 8.68-14.35 12a2.65 2.65 0 0 1-2.32-1.46s-1.2.29-1.98-1.52z" class="C D E"/></clipPath><clipPath id="L"><path d="M282.27 68.69s3.15 6.59 3.67 11.58 3.26 11.51 3.78 13.92 1.2-1 3.78-.69c0 0-2.36 6.77 4.21 8a.6.6 0 0 0 .39.93c-1.71 2.38-6.94 9.12-9.93 7.27-3.61-2.28-10.17-12.59-10.17-12.59s1.46-31.91 4.27-28.42z" class="C D G"/></clipPath><clipPath id="M"><path d="M276.08 105.36c3.67-6.42 11.46-25.9 6.19-36.67S265 55.41 256.84 54c-20.25-3.56-13.75 33-18.11 45.17-2.66 7.42-3.77 14.59-5.31 19 0 0 13-4.22 22.44-.13s10.66 6.96 10.66 6.96 7.14-15.4 9.56-19.64z" class="C D G"/></clipPath><path id="N" d="M327.46 228.19a5.79 5.79 0 0 0-5.79 5.79c0 2.33 3.09 6.47 4.75 8.54a1.34 1.34 0 0 0 2.08 0c1.66-2.07 4.74-6.21 4.74-8.54a5.78 5.78 0 0 0-5.78-5.79zm0 8.64a2.85 2.85 0 1 1 2.85-2.85 2.85 2.85 0 0 1-2.85 2.85z"/><path id="O" d="M280.09 268.43h0a.48.48 0 0 0 .48.48h0a.47.47 0 0 0 .47-.48h0a.47.47 0 0 0-.47-.47h0a.48.48 0 0 0-.48.47z"/><path id="P" d="M278.6 268.43h0a.47.47 0 0 0 .47.48h0a.48.48 0 0 0 .48-.48h0a.48.48 0 0 0-.48-.47h0a.47.47 0 0 0-.47.47z"/><path id="Q" d="M277.1 268.43h0a.47.47 0 0 0 .47.48h0a.47.47 0 0 0 .48-.48h0a.47.47 0 0 0-.48-.47h0a.47.47 0 0 0-.47.47z"/><path id="R" d="M324.47 285.11h0a.48.48 0 0 1-.48.47h0a.47.47 0 0 1-.47-.47h0a.48.48 0 0 1 .47-.48h0a.49.49 0 0 1 .48.48z"/><path id="S" d="M326 286.49h0a.47.47 0 0 1-.47.47h0a.48.48 0 0 1-.48-.47h0a.49.49 0 0 1 .48-.48h0a.48.48 0 0 1 .47.48z"/><path id="T" d="M327.46 285.11h0a.47.47 0 0 1-.48.47h0a.47.47 0 0 1-.47-.47h0a.48.48 0 0 1 .47-.48h0a.48.48 0 0 1 .48.48z"/><path id="U" d="M154.7 335.6h0a.49.49 0 0 1-.48.48h0a.48.48 0 0 1-.47-.48h0a.47.47 0 0 1 .47-.47h0a.48.48 0 0 1 .48.47z"/><path id="V" d="M156.19 335.6h0a.48.48 0 0 1-.47.48h0a.49.49 0 0 1-.48-.48h0a.48.48 0 0 1 .48-.47h0a.47.47 0 0 1 .47.47z"/><path id="W" d="M157.69 335.6h0a.48.48 0 0 1-.47.48h0a.48.48 0 0 1-.48-.48h0a.47.47 0 0 1 .48-.47h0a.47.47 0 0 1 .47.47z"/><path id="X" d="M371.66 259.7l8.01 15.9 10.98-5.25-6.98-13.85-12.01 3.2z"/><path id="Y" d="M388.51 293.13l-8.01-15.9 11.03-5.13 4.34 8.59-9.88 6.75 2.8 5.55-.28.14z"/><path id="Z" d="M306.55 232.76a13 13 0 0 0-16.44 8.24h0s-.39 1.19 12 5.28 12.69 2.88 12.69 2.88h0a13 13 0 0 0-8.25-16.4z"/><path id="a" d="M302.09 246.31l-5.32-1.87c-1.3 4.82-.07 7.79.14 11.87a16.26 16.26 0 0 1-.62 3.87l2.11.7a16.4 16.4 0 0 1 1.82-3.48c2.6-3.14 5.36-4.79 7.19-9.43l-5.32-1.66z"/><path id="b" d="M96.9 189.17a15 15 0 0 0 4.33 20.67h0s1.21.79 9.38-11.73 6.92-13.24 6.92-13.24h0a15 15 0 0 0-20.63 4.3z"/><path id="c" d="M110.65 198.09l-3.64 5.37c5 2.85 8.63 2.35 13.22 3.32a18.63 18.63 0 0 1 4.11 1.82l1.4-2.14a18.37 18.37 0 0 1-3.32-3c-2.74-3.81-3.76-7.36-8.37-10.76l-3.4 5.39z"/><path id="d" d="M340,145.84a20.37,20.37,0,0,1,27.41,2.64A13.62,13.62,0,0,1,384,167.58a16.77,16.77,0,0,1-20.64,26.3l-36.67-24.36A13.62,13.62,0,0,1,340,145.84Z"/><path id="e" d="M134.94,132.71a14.69,14.69,0,0,0-1-1.54,13.8,13.8,0,0,0-23.67,14l-.21.13a11.23,11.23,0,0,0-4.54,10.56,11.24,11.24,0,1,0,7.93,20.26l34.36-25a11.23,11.23,0,0,0-12.9-18.39Z"/><path id="f" d="M405.14,241.07a9.27,9.27,0,0,0,1-.47,8.54,8.54,0,0,0-6.78-15.6.61.61,0,0,1-.07-.14,7,7,0,0,0-6.15-3.58,6.86,6.86,0,0,0-.87-3.4,7,7,0,0,0-12.17,6.75l12.75,23a7,7,0,0,0,12.27-6.54Z"/><path id="g" d="M102.88 212.4a8.54 8.54 0 0 0-10.75 13.26c0 .05-.06.09-.08.14a7 7 0 0 0 .12 7.11 7 7 0 1 0 9.64 9.41l13-22.83a7 7 0 0 0-12-7.09z"/><path id="h" d="M143,439.06a16.29,16.29,0,0,1-20.72-7.5,10.89,10.89,0,0,1-9-18.09,13.42,13.42,0,0,1,21.23-16.28L158,423.36a10.9,10.9,0,0,1-15,15.7Z"/><path id="i" d="M357.08 446.92a12.08 12.08 0 0 0 .92 1.14 11 11 0 0 0 17.49-13.32l.15-.13a9 9 0 0 0 2.61-8.81 9 9 0 1 0-8.25-15.34l-24.94 23.07a9 9 0 0 0 12 13.39z"/><path id="j" d="M89.08 345.83a5.55 5.55 0 0 0-.87.22 6.83 6.83 0 0 0 2.85 13.29v.13a5.58 5.58 0 0 0 4.26 3.78 5.47 5.47 0 0 0 .14 2.8 5.57 5.57 0 1 0 10.61-3.37l-6.36-20a5.56 5.56 0 0 0-10.66 3.19z"/><path id="k" d="M395 372.25a7.75 7.75 0 0 0 .83.37 6.83 6.83 0 0 0 5.81-12.3v-.12a5.56 5.56 0 0 0-1.08-5.59 5.42 5.42 0 0 0 1.59-2.31 5.57 5.57 0 0 0-10.48-3.77l-7.11 19.79a5.56 5.56 0 0 0 10.4 3.93z"/></defs></svg>