<svg xmlns="http://www.w3.org/2000/svg" viewBox="0 0 500 500"><g id="freepik--background-complete--inject-20"><path d="M33,182.92s-6.23,2.52,1,15.76,12.11,19.75,12.11,19.75,1.29,3.08-1.32,3.63-8.4-.22-9.48,3,1.37,6.43,6.34,9.06,15.64,8.77,16.61,9.33,1.91,2,.2,2.64-14.66,2.35-13.49,8.44,16.21,11.14,17.85,11.72,2,1.26,1.93,2.15-4.52,1.05-8.18,1.68-7.8,2-6.83,5.47,10,10.55,31.49,12.09l10,.07,5.23-8.59c10-19.06,8.81-30.47,6.38-33.12s-5.77.13-8.25,2.91-4.93,6.42-5.75,6-1.17-1.08-.8-2.78,4-17.13-.5-21.35-12.84,5.88-14.31,7-2.16-.47-2.13-1.57.46-13.43.86-19-.89-9.35-4.33-10.17-5.73,4.53-7.58,6.45-3.78-.81-3.78-.81S53.3,205.1,45.87,192s-13-9-13-9" style="fill:#ebebeb"></path><path d="M91.77,290.06c-5.41-9.64-14.76-26.94-22.85-41.75s-15.44-28.2-20.81-37.87c-2.68-4.83-4.86-8.73-6.37-11.45L40,195.88l-.44-.81c-.1-.19-.14-.29-.14-.29l.17.27.47.8,1.78,3.08c1.54,2.68,3.75,6.58,6.45,11.4,5.42,9.64,12.79,23,20.89,37.83S86.6,280.29,92,290" style="fill:#e0e0e0"></path><path d="M43.33,226.48a3.56,3.56,0,0,1,.7.18c.45.13,1.09.34,1.88.6,1.57.54,3.73,1.33,6.09,2.24l6,2.37,1.83.7a3.71,3.71,0,0,1,.67.29,3.18,3.18,0,0,1-.71-.17c-.44-.14-1.08-.34-1.87-.62-1.57-.55-3.72-1.36-6.08-2.28l-6.06-2.32-1.84-.7A2.75,2.75,0,0,1,43.33,226.48Z" style="fill:#e0e0e0"></path><path d="M61.21,232.2c-.08,0,1.36-4.55,3.21-10.09s3.41-10,3.49-10-1.35,4.55-3.2,10.1S61.3,232.23,61.21,232.2Z" style="fill:#e0e0e0"></path><path d="M72.62,255.5a3.38,3.38,0,0,1,.39-.63l1.14-1.65c1-1.39,2.29-3.33,3.67-5.51s2.57-4.2,3.41-5.67l1-1.74a3.27,3.27,0,0,1,.4-.62,4.2,4.2,0,0,1-.3.67c-.2.43-.52,1-.92,1.79-.79,1.5-2,3.54-3.34,5.73s-2.74,4.12-3.75,5.48c-.5.68-.92,1.23-1.22,1.6A3.2,3.2,0,0,1,72.62,255.5Z" style="fill:#e0e0e0"></path><path d="M55.31,253.89a3,3,0,0,1,.68,0l1.85.1c1.57.09,3.73.25,6.11.44s4.54.38,6.1.53l1.85.2a3,3,0,0,1,.67.11,2.11,2.11,0,0,1-.68,0l-1.85-.1c-1.57-.1-3.73-.25-6.11-.44s-4.54-.38-6.1-.54L56,254A2.93,2.93,0,0,1,55.31,253.89Z" style="fill:#e0e0e0"></path><path d="M62.76,275.74a5,5,0,0,1,.88,0l2.37.12c2,.12,4.78.29,7.84.51s5.82.43,7.82.59l2.37.22a5.38,5.38,0,0,1,.87.12,4.85,4.85,0,0,1-.87,0l-2.38-.12c-2-.11-4.78-.29-7.83-.5s-5.83-.43-7.83-.6l-2.37-.21A4.62,4.62,0,0,1,62.76,275.74Z" style="fill:#e0e0e0"></path><path d="M84.39,277.12a4.71,4.71,0,0,1,.47-.81c.36-.55.82-1.28,1.38-2.15,1.16-1.81,2.74-4.32,4.42-7.14s3.13-5.41,4.17-7.29c.5-.91.92-1.66,1.24-2.23a5.3,5.3,0,0,1,.48-.81,5.44,5.44,0,0,1-.38.86c-.26.54-.65,1.32-1.14,2.28-1,1.91-2.42,4.52-4.1,7.35s-3.3,5.32-4.51,7.1c-.6.89-1.1,1.61-1.45,2.1A6.59,6.59,0,0,1,84.39,277.12Z" style="fill:#e0e0e0"></path><path d="M302.33,165.12c-15.78-13.77-17.27-36.32-14.45-56.15.47-3.31.48-6.85,2.38-9.6s5.79-4.34,8.62-2.62c2.34,1.43,3.1,4.42,4.23,6.94a19.55,19.55,0,0,0,7,8.28c2,1.32,4.54,2.28,6.75,1.35,3-1.27,3.8-5.19,4.14-8.5q.93-9.24,1.87-18.48c.34-3.31.69-6.68,2.06-9.71s3.95-5.69,7.18-6.23,6.93,1.69,7.25,5a31.81,31.81,0,0,1-.35,4.12c-.06,1.39.42,3,1.68,3.49s2.7-.26,3.79-1.12c3.77-3,6.55-7,9.17-11.06s5.19-8.19,8.68-11.49,8.08-5.73,12.84-5.49,9.48,3.71,10.18,8.48-2.53,9.22-5.89,12.67a74.2,74.2,0,0,1-16.94,13,6.05,6.05,0,0,0-2.86,2.48c-1,2.13.89,4.54,3,5.5,2.38,1.08,5.08,1.12,7.62,1.7s5.21,2,5.92,4.55c1,3.53-2.21,6.76-5.24,8.78a63.67,63.67,0,0,1-19.86,8.78c-2.53.63-5.17,1.13-7.31,2.63s-3.65,4.33-2.72,6.79,3.89,3.53,6.49,3.33,5-1.33,7.55-2c4.72-1.22,10.55-.28,13,4,1.63,2.79,1.41,6.4.12,9.37a24.37,24.37,0,0,1-5.89,7.62,64,64,0,0,1-29.18,16.14c-10.93,2.52-20.79,2.45-30.85-2.5" style="fill:#f5f5f5"></path><path d="M308.81,153.2A297.87,297.87,0,0,1,324,122.59l4.39-7.82c1.45-2.56,2.89-5.1,4.44-7.5A150.8,150.8,0,0,1,342.57,94c3.31-4.08,6.59-7.82,9.68-11.3s6.06-6.65,8.88-9.44a117.67,117.67,0,0,1,14.25-12.14c1.79-1.3,3.21-2.26,4.18-2.9l1.11-.72a2.4,2.4,0,0,1,.39-.22l-.36.28-1.07.77c-.95.67-2.35,1.66-4.11,3a124.84,124.84,0,0,0-14.09,12.26c-2.79,2.8-5.72,6-8.8,9.48s-6.34,7.24-9.62,11.31a150.83,150.83,0,0,0-9.67,13.24c-1.55,2.39-3,4.91-4.42,7.48l-4.39,7.81a304.45,304.45,0,0,0-15.2,30.53" style="fill:#e0e0e0"></path><path d="M333,107.26a6.69,6.69,0,0,1-.17-1.44c-.08-.93-.14-2.28-.2-3.95-.11-3.34-.11-8-.08-13.05s-.05-9.7-.21-13c-.08-1.66-.15-3-.22-3.94a6.69,6.69,0,0,1,0-1.45,5.67,5.67,0,0,1,.27,1.43c.14.92.28,2.27.41,3.93.28,3.34.41,8,.39,13.06s-.07,9.57-.09,13v4A7.26,7.26,0,0,1,333,107.26Z" style="fill:#e0e0e0"></path><path d="M376.34,103.9a8.09,8.09,0,0,1-1.71,0c-1.1,0-2.7-.06-4.66,0-3.94,0-9.38.19-15.37.67s-11.39,1.15-15.28,1.75c-1.95.28-3.52.55-4.61.74a8.43,8.43,0,0,1-1.7.22,9.62,9.62,0,0,1,1.66-.46c1.07-.25,2.64-.59,4.58-.94,3.89-.7,9.3-1.44,15.31-1.93a152.53,152.53,0,0,1,15.41-.49c2,0,3.57.15,4.67.24A9.25,9.25,0,0,1,376.34,103.9Z" style="fill:#e0e0e0"></path><path d="M309.42,152.47a2.17,2.17,0,0,1-.24-.55c-.15-.43-.33-1-.56-1.61-.48-1.41-1.12-3.46-1.88-6-1.53-5.09-3.41-12.18-5.38-20s-3.8-15-5.21-20.07c-.7-2.48-1.27-4.53-1.7-6L294,96.5a2.1,2.1,0,0,1-.12-.58,2.17,2.17,0,0,1,.24.55c.15.43.33,1,.56,1.61.48,1.4,1.12,3.46,1.88,6,1.53,5.09,3.41,12.18,5.39,20s3.79,14.95,5.2,20.07c.7,2.48,1.27,4.53,1.7,6l.45,1.65A2.13,2.13,0,0,1,309.42,152.47Z" style="fill:#e0e0e0"></path><path d="M367.83,140.36a2.38,2.38,0,0,1-.59.17l-1.7.38-6.25,1.3c-5.29,1.11-12.56,2.72-20.6,4.51s-15.34,3.33-20.65,4.33c-2.65.5-4.8.88-6.29,1.11l-1.72.26a2,2,0,0,1-.61.05,2.38,2.38,0,0,1,.59-.17l1.69-.37,6.26-1.31c5.28-1.1,12.56-2.71,20.6-4.51s15.34-3.33,20.64-4.33c2.66-.5,4.81-.88,6.3-1.11l1.72-.26A2.52,2.52,0,0,1,367.83,140.36Z" style="fill:#e0e0e0"></path><path d="M403.69,206.64h57.25s-5.07-9.21-19.8-7.87c-14.07,1.28-14.79-4.53-21.94-5.25S406.08,198.29,403.69,206.64Z" style="fill:#f5f5f5"></path><path d="M60.58,73h87.85S140.66,58.85,118,60.91c-21.59,2-22.69-7-33.67-8.06S64.24,60.17,60.58,73Z" style="fill:#ebebeb"></path><path d="M405.41,412.46h71.37s-6.31-11.77-24.68-10c-17.55,1.63-18.44-5.79-27.36-6.7S408.38,401.8,405.41,412.46Z" style="fill:#ebebeb"></path><path d="M106.69,102.71h45.07s-4-7.25-15.59-6.19c-11.08,1-11.64-3.57-17.27-4.13S108.57,96.14,106.69,102.71Z" style="fill:#f5f5f5"></path><path d="M382.88,431.83h45.06s-4-7.25-15.59-6.2c-11.07,1-11.64-3.57-17.27-4.13S384.75,425.26,382.88,431.83Z" style="fill:#f5f5f5"></path></g><g id="freepik--World--inject-20"><path d="M411.55,310.21a6.43,6.43,0,0,1-.22-2.51,6.35,6.35,0,0,1,.29-2.49,6,6,0,0,1,.23,2.5A6.1,6.1,0,0,1,411.55,310.21Z" style="fill:#90CAF9"></path><path d="M411,320.19a12.14,12.14,0,0,1,.36-5,12.11,12.11,0,0,1-.36,5Z" style="fill:#90CAF9"></path><path d="M409.81,330.12a6.29,6.29,0,0,1,.07-2.51,6.42,6.42,0,0,1,.58-2.45,5.94,5.94,0,0,1-.07,2.52A6.26,6.26,0,0,1,409.81,330.12Z" style="fill:#90CAF9"></path><path d="M408.06,340a6.34,6.34,0,0,1,.22-2.51,6.19,6.19,0,0,1,.73-2.4,6.29,6.29,0,0,1-.22,2.5A6.2,6.2,0,0,1,408.06,340Z" style="fill:#90CAF9"></path><path d="M405.74,349.69a12,12,0,0,1,1.23-4.84,12,12,0,0,1-1.23,4.84Z" style="fill:#90CAF9"></path><path d="M402.84,359.26a6.13,6.13,0,0,1,.51-2.46,6.23,6.23,0,0,1,1-2.3,6.15,6.15,0,0,1-.51,2.46A6,6,0,0,1,402.84,359.26Z" style="fill:#90CAF9"></path><path d="M399.38,368.64a6.25,6.25,0,0,1,.66-2.42,6,6,0,0,1,1.14-2.24,6.35,6.35,0,0,1-.66,2.43A6.17,6.17,0,0,1,399.38,368.64Z" style="fill:#90CAF9"></path><path d="M395.37,377.8a6.26,6.26,0,0,1,.8-2.38,6.46,6.46,0,0,1,1.27-2.17,6.13,6.13,0,0,1-.8,2.39A6.22,6.22,0,0,1,395.37,377.8Z" style="fill:#90CAF9"></path><path d="M390.82,386.71a6.49,6.49,0,0,1,.94-2.33c.65-1.22,1.27-2.16,1.4-2.09a6.14,6.14,0,0,1-.94,2.33C391.58,385.84,391,386.78,390.82,386.71Z" style="fill:#90CAF9"></path><path d="M385.76,395.33a6.24,6.24,0,0,1,1.08-2.27c.71-1.18,1.39-2.08,1.52-2a6.32,6.32,0,0,1-1.08,2.27C386.56,394.51,385.88,395.41,385.76,395.33Z" style="fill:#90CAF9"></path><path d="M380.2,403.64a6.59,6.59,0,0,1,1.21-2.21c.78-1.13,1.51-2,1.63-1.9a6.25,6.25,0,0,1-1.2,2.2C381.05,402.87,380.32,403.72,380.2,403.64Z" style="fill:#90CAF9"></path><path d="M374.17,411.61a6.15,6.15,0,0,1,1.33-2.13c.85-1.09,1.63-1.9,1.74-1.81s-.48,1-1.33,2.13S374.28,411.7,374.17,411.61Z" style="fill:#90CAF9"></path><path d="M367.68,419.21c-.11-.1.54-1,1.45-2s1.74-1.8,1.85-1.71-.54,1-1.46,2.05S367.78,419.3,367.68,419.21Z" style="fill:#90CAF9"></path><path d="M360.75,426.41c-.1-.1.6-1,1.57-2s1.84-1.69,1.95-1.59-.6,1-1.58,2S360.85,426.51,360.75,426.41Z" style="fill:#90CAF9"></path><path d="M353.42,433.2c-.1-.11.66-.94,1.68-1.86s1.94-1.59,2-1.48-.65.94-1.68,1.86S353.51,433.31,353.42,433.2Z" style="fill:#90CAF9"></path><path d="M345.7,439.55c-.09-.12.71-.9,1.79-1.76a6.36,6.36,0,0,1,2.11-1.36c.1.11-.71.9-1.79,1.76A6.17,6.17,0,0,1,345.7,439.55Z" style="fill:#90CAF9"></path><path d="M337.62,445.43c-.08-.12.77-.86,1.89-1.65a6.16,6.16,0,0,1,2.19-1.23c.09.12-.76.86-1.89,1.65A6.16,6.16,0,0,1,337.62,445.43Z" style="fill:#90CAF9"></path><path d="M329.22,450.83c-.08-.12.81-.81,2-1.54a6.42,6.42,0,0,1,2.26-1.1c.08.13-.81.81-2,1.54A6.09,6.09,0,0,1,329.22,450.83Z" style="fill:#90CAF9"></path><path d="M320.51,455.73c-.07-.13.86-.76,2.07-1.42a6.05,6.05,0,0,1,2.32-1,6.36,6.36,0,0,1-2.07,1.42A6.18,6.18,0,0,1,320.51,455.73Z" style="fill:#90CAF9"></path><path d="M311.52,460.1a6.28,6.28,0,0,1,2.15-1.29,6.17,6.17,0,0,1,2.38-.83,6.24,6.24,0,0,1-2.16,1.3A6.08,6.08,0,0,1,311.52,460.1Z" style="fill:#90CAF9"></path><path d="M302.29,463.94a6.18,6.18,0,0,1,2.23-1.17,6.25,6.25,0,0,1,2.42-.68,6.43,6.43,0,0,1-2.23,1.17A6.29,6.29,0,0,1,302.29,463.94Z" style="fill:#90CAF9"></path><path d="M292.85,467.22a6.26,6.26,0,0,1,2.29-1,6,6,0,0,1,2.46-.54,12.19,12.19,0,0,1-4.75,1.57Z" style="fill:#90CAF9"></path><path d="M283.24,469.94a6.18,6.18,0,0,1,2.34-.9,6.31,6.31,0,0,1,2.49-.39,6.37,6.37,0,0,1-2.35.9A6.31,6.31,0,0,1,283.24,469.94Z" style="fill:#90CAF9"></path><path d="M273.47,472.08a6.29,6.29,0,0,1,2.4-.75,6.22,6.22,0,0,1,2.5-.25,6.23,6.23,0,0,1-2.4.76A6.31,6.31,0,0,1,273.47,472.08Z" style="fill:#90CAF9"></path><path d="M263.6,473.64A6.38,6.38,0,0,1,266,473a6.45,6.45,0,0,1,2.51-.1,11.83,11.83,0,0,1-4.95.71Z" style="fill:#90CAF9"></path><path d="M253.65,474.62a6.37,6.37,0,0,1,2.47-.47,6.09,6.09,0,0,1,2.51.06,6.26,6.26,0,0,1-2.47.46A6,6,0,0,1,253.65,474.62Z" style="fill:#90CAF9"></path><path d="M243.66,475a6,6,0,0,1,2.49-.32,6.33,6.33,0,0,1,2.51.19,6.16,6.16,0,0,1-2.5.33A6.33,6.33,0,0,1,243.66,475Z" style="fill:#90CAF9"></path><path d="M233.66,474.84a6,6,0,0,1,2.51-.18,6.28,6.28,0,0,1,2.49.34,12.15,12.15,0,0,1-5-.16Z" style="fill:#90CAF9"></path><path d="M223.69,474.07a6.43,6.43,0,0,1,2.51,0,6.22,6.22,0,0,1,2.47.49,6.25,6.25,0,0,1-2.52,0A6.09,6.09,0,0,1,223.69,474.07Z" style="fill:#90CAF9"></path><path d="M213.78,472.73a12,12,0,0,1,4.94.74,6.12,6.12,0,0,1-2.51-.11A6.24,6.24,0,0,1,213.78,472.73Z" style="fill:#90CAF9"></path><path d="M204,470.8a6.34,6.34,0,0,1,2.5.26,6,6,0,0,1,2.39.78,12.33,12.33,0,0,1-4.89-1Z" style="fill:#90CAF9"></path><path d="M194.29,468.29a12,12,0,0,1,4.82,1.33,6.3,6.3,0,0,1-2.48-.41A6.21,6.21,0,0,1,194.29,468.29Z" style="fill:#90CAF9"></path><path d="M184.77,465.22a6.11,6.11,0,0,1,2.45.55,6.58,6.58,0,0,1,2.29,1.05,6.13,6.13,0,0,1-2.45-.55A6.46,6.46,0,0,1,184.77,465.22Z" style="fill:#90CAF9"></path><path d="M175.46,461.58a6.22,6.22,0,0,1,2.41.7,6.12,6.12,0,0,1,2.22,1.19,12,12,0,0,1-4.63-1.89Z" style="fill:#90CAF9"></path><path d="M166.38,457.4a12.29,12.29,0,0,1,4.51,2.16,6.33,6.33,0,0,1-2.37-.84C167.27,458.12,166.31,457.53,166.38,457.4Z" style="fill:#90CAF9"></path><path d="M157.56,452.69a6.35,6.35,0,0,1,2.31,1,6.19,6.19,0,0,1,2.06,1.43,6.15,6.15,0,0,1-2.31-1C158.41,453.46,157.49,452.82,157.56,452.69Z" style="fill:#90CAF9"></path><path d="M149,447.47a6.19,6.19,0,0,1,2.25,1.12c1.17.74,2.05,1.43,2,1.56A6.19,6.19,0,0,1,151,449C149.84,448.29,149,447.59,149,447.47Z" style="fill:#90CAF9"></path><path d="M140.83,441.76A6.34,6.34,0,0,1,143,443c1.12.8,2,1.55,1.88,1.67a6.14,6.14,0,0,1-2.18-1.25C141.58,442.62,140.74,441.88,140.83,441.76Z" style="fill:#90CAF9"></path><path d="M133,435.58a6.1,6.1,0,0,1,2.11,1.37c1.07.87,1.86,1.67,1.78,1.78a6.2,6.2,0,0,1-2.11-1.37C133.68,436.49,132.88,435.69,133,435.58Z" style="fill:#90CAF9"></path><path d="M125.49,429a6.27,6.27,0,0,1,2,1.49c1,.93,1.76,1.77,1.67,1.88s-1-.56-2-1.49S125.4,429.05,125.49,429Z" style="fill:#90CAF9"></path><path d="M118.42,421.89a6.59,6.59,0,0,1,1.93,1.61c1,1,1.66,1.87,1.55,2s-1-.61-1.93-1.6S118.31,422,118.42,421.89Z" style="fill:#90CAF9"></path><path d="M111.76,414.44c.12-.1.94.67,1.84,1.71a6.6,6.6,0,0,1,1.44,2.06c-.11.1-.93-.67-1.84-1.71S111.65,414.53,111.76,414.44Z" style="fill:#90CAF9"></path><path d="M105.56,406.6c.12-.08.89.73,1.73,1.83a6.3,6.3,0,0,1,1.32,2.14c-.12.08-.89-.73-1.73-1.83S105.44,406.69,105.56,406.6Z" style="fill:#90CAF9"></path><path d="M99.83,398.42c.12-.08.84.78,1.61,1.92a6.12,6.12,0,0,1,1.19,2.21c-.11.09-.84-.77-1.62-1.92A6.19,6.19,0,0,1,99.83,398.42Z" style="fill:#90CAF9"></path><path d="M94.58,389.91c.13-.07.8.83,1.51,2a6.26,6.26,0,0,1,1,2.28c-.12.07-.79-.83-1.5-2A6.19,6.19,0,0,1,94.58,389.91Z" style="fill:#90CAF9"></path><path d="M89.85,381.12c.13-.07.75.87,1.38,2.09a6.3,6.3,0,0,1,.92,2.34c-.13.07-.75-.87-1.38-2.1A6.09,6.09,0,0,1,89.85,381.12Z" style="fill:#90CAF9"></path><path d="M85.64,372.05a12.13,12.13,0,0,1,2,4.56c-.13.07-.7-.91-1.26-2.17A6.29,6.29,0,0,1,85.64,372.05Z" style="fill:#90CAF9"></path><path d="M82,362.75A6.39,6.39,0,0,1,83.1,365a6.28,6.28,0,0,1,.64,2.43,6.17,6.17,0,0,1-1.12-2.25A6.07,6.07,0,0,1,82,362.75Z" style="fill:#90CAF9"></path><path d="M78.87,353.25a6.3,6.3,0,0,1,1,2.31,6.13,6.13,0,0,1,.49,2.47,6.39,6.39,0,0,1-1-2.31A6.16,6.16,0,0,1,78.87,353.25Z" style="fill:#90CAF9"></path><path d="M76.33,343.59a6,6,0,0,1,.86,2.36,6.16,6.16,0,0,1,.34,2.49,6.13,6.13,0,0,1-.85-2.36A6.3,6.3,0,0,1,76.33,343.59Z" style="fill:#90CAF9"></path><path d="M74.37,333.78a6.15,6.15,0,0,1,.71,2.42,6.27,6.27,0,0,1,.2,2.5,6.18,6.18,0,0,1-.71-2.41A6.32,6.32,0,0,1,74.37,333.78Z" style="fill:#90CAF9"></path><path d="M73,323.88a6.11,6.11,0,0,1,.57,2.45,6.28,6.28,0,0,1,0,2.51,12,12,0,0,1-.62-5Z" style="fill:#90CAF9"></path><path d="M72.2,313.92a6.31,6.31,0,0,1,.42,2.47,6.13,6.13,0,0,1-.1,2.52,6.33,6.33,0,0,1-.42-2.48A6.23,6.23,0,0,1,72.2,313.92Z" style="fill:#90CAF9"></path><path d="M72,303.92a6.42,6.42,0,0,1,.27,2.5,6.21,6.21,0,0,1-.23,2.5,6.42,6.42,0,0,1-.29-2.5A6,6,0,0,1,72,303.92Z" style="fill:#90CAF9"></path><path d="M72.35,293.93a6.32,6.32,0,0,1,.13,2.51,6.12,6.12,0,0,1-.39,2.48,6.35,6.35,0,0,1-.13-2.51A6,6,0,0,1,72.35,293.93Z" style="fill:#90CAF9"></path><path d="M73.29,284a6,6,0,0,1,0,2.51,6.37,6.37,0,0,1-.53,2.46,12.09,12.09,0,0,1,.54-5Z" style="fill:#90CAF9"></path><path d="M74.82,274.09a6.07,6.07,0,0,1-.16,2.51A6.32,6.32,0,0,1,74,279a6.07,6.07,0,0,1,.16-2.51A6.24,6.24,0,0,1,74.82,274.09Z" style="fill:#90CAF9"></path><path d="M76.94,264.31a12.1,12.1,0,0,1-1.13,4.88,6.29,6.29,0,0,1,.31-2.5A6.19,6.19,0,0,1,76.94,264.31Z" style="fill:#90CAF9"></path><path d="M79.62,254.68a12.41,12.41,0,0,1-1.41,4.8,6.09,6.09,0,0,1,.45-2.47A6.35,6.35,0,0,1,79.62,254.68Z" style="fill:#90CAF9"></path><path d="M82.87,245.23a6.06,6.06,0,0,1-.6,2.44,6.43,6.43,0,0,1-1.09,2.26,6.06,6.06,0,0,1,.6-2.44A6.32,6.32,0,0,1,82.87,245.23Z" style="fill:#90CAF9"></path><path d="M86.68,236a6.27,6.27,0,0,1-.74,2.4,6.46,6.46,0,0,1-1.23,2.2,6.19,6.19,0,0,1,.75-2.4A6.11,6.11,0,0,1,86.68,236Z" style="fill:#90CAF9"></path><path d="M91,227a12.28,12.28,0,0,1-2.24,4.47,6.14,6.14,0,0,1,.89-2.35C90.3,227.86,90.9,226.91,91,227Z" style="fill:#90CAF9"></path><path d="M95.9,218.25a6,6,0,0,1-1,2.29c-.69,1.19-1.35,2.11-1.48,2a6.45,6.45,0,0,1,1-2.3C95.12,219.08,95.78,218.17,95.9,218.25Z" style="fill:#90CAF9"></path><path d="M101.28,209.82a6.21,6.21,0,0,1-1.16,2.23c-.76,1.15-1.47,2-1.59,1.94a6.38,6.38,0,0,1,1.16-2.23C100.45,210.61,101.16,209.74,101.28,209.82Z" style="fill:#90CAF9"></path><path d="M107.14,201.72a6.07,6.07,0,0,1-1.28,2.16c-.83,1.1-1.59,1.93-1.71,1.85s.46-1,1.29-2.16S107,201.63,107.14,201.72Z" style="fill:#90CAF9"></path><path d="M113.47,194c.11.1-.53,1-1.41,2.08s-1.7,1.84-1.81,1.75.52-1,1.41-2.08S113.36,193.89,113.47,194Z" style="fill:#90CAF9"></path><path d="M120.23,186.63c.11.1-.58,1-1.53,2s-1.8,1.73-1.9,1.64.58-1,1.53-2S120.13,186.53,120.23,186.63Z" style="fill:#90CAF9"></path><path d="M127.42,179.68c.1.11-.64,1-1.64,1.9s-1.9,1.62-2,1.52.63-.95,1.64-1.9S127.32,179.57,127.42,179.68Z" style="fill:#90CAF9"></path><path d="M135,173.17c.09.11-.7.92-1.75,1.8a6.31,6.31,0,0,1-2.09,1.4c-.09-.11.69-.92,1.75-1.8A6.13,6.13,0,0,1,135,173.17Z" style="fill:#90CAF9"></path><path d="M142.94,167.11c.09.12-.74.87-1.85,1.69a6.45,6.45,0,0,1-2.16,1.28c-.09-.11.74-.87,1.85-1.7A6.12,6.12,0,0,1,142.94,167.11Z" style="fill:#90CAF9"></path><path d="M151.23,161.53c.08.12-.8.83-1.95,1.58a6.29,6.29,0,0,1-2.23,1.15c-.08-.12.79-.83,1.95-1.59A6,6,0,0,1,151.23,161.53Z" style="fill:#90CAF9"></path><path d="M159.83,156.44c.07.13-.84.78-2,1.47a6.25,6.25,0,0,1-2.3,1,6.35,6.35,0,0,1,2-1.47A6.19,6.19,0,0,1,159.83,156.44Z" style="fill:#90CAF9"></path><path d="M168.72,151.87a6.27,6.27,0,0,1-2.12,1.34,6.09,6.09,0,0,1-2.36.88,6.27,6.27,0,0,1,2.12-1.34A6.15,6.15,0,0,1,168.72,151.87Z" style="fill:#90CAF9"></path><path d="M177.86,147.83a6.17,6.17,0,0,1-2.2,1.22,6,6,0,0,1-2.4.73,6.18,6.18,0,0,1,2.2-1.21A6.32,6.32,0,0,1,177.86,147.83Z" style="fill:#90CAF9"></path><path d="M187.22,144.34a6.06,6.06,0,0,1-2.26,1.09,6.35,6.35,0,0,1-2.44.59,6.1,6.1,0,0,1,2.26-1.08A6.3,6.3,0,0,1,187.22,144.34Z" style="fill:#90CAF9"></path><path d="M196.78,141.42a6.23,6.23,0,0,1-2.33.94,6.09,6.09,0,0,1-2.47.45,11.94,11.94,0,0,1,4.8-1.39Z" style="fill:#90CAF9"></path><path d="M206.49,139.06a12.09,12.09,0,0,1-4.87,1.11,6,6,0,0,1,2.38-.81A6.13,6.13,0,0,1,206.49,139.06Z" style="fill:#90CAF9"></path><path d="M216.33,137.28a12,12,0,0,1-4.93.82,6.24,6.24,0,0,1,2.42-.67A6.37,6.37,0,0,1,216.33,137.28Z" style="fill:#90CAF9"></path><path d="M226.26,136.09a12.11,12.11,0,0,1-5,.52,6.26,6.26,0,0,1,2.46-.52A6,6,0,0,1,226.26,136.09Z" style="fill:#90CAF9"></path><path d="M236.24,135.47a6,6,0,0,1-2.49.38,6.45,6.45,0,0,1-2.51-.14,6,6,0,0,1,2.49-.38A6.45,6.45,0,0,1,236.24,135.47Z" style="fill:#90CAF9"></path><path d="M246.23,135.44a6.21,6.21,0,0,1-2.5.23,6.42,6.42,0,0,1-2.5-.29,12.15,12.15,0,0,1,5,.06Z" style="fill:#90CAF9"></path><path d="M256.22,136a12.37,12.37,0,0,1-5-.35,6.37,6.37,0,0,1,2.51-.09A6.13,6.13,0,0,1,256.22,136Z" style="fill:#90CAF9"></path><path d="M266.16,137.12a6.47,6.47,0,0,1-2.52-.06,6.26,6.26,0,0,1-2.44-.58,12.08,12.08,0,0,1,5,.64Z" style="fill:#90CAF9"></path><path d="M276,138.83a12.19,12.19,0,0,1-4.92-.93,6.22,6.22,0,0,1,2.51.21A6.29,6.29,0,0,1,276,138.83Z" style="fill:#90CAF9"></path><path d="M285.74,141.12a11.8,11.8,0,0,1-4.85-1.22,12.23,12.23,0,0,1,4.85,1.22Z" style="fill:#90CAF9"></path><path d="M295.32,144a11.91,11.91,0,0,1-4.77-1.51A6.37,6.37,0,0,1,293,143,6.12,6.12,0,0,1,295.32,144Z" style="fill:#90CAF9"></path><path d="M304.71,147.42a6.4,6.4,0,0,1-2.43-.65,6.14,6.14,0,0,1-2.24-1.14,6.4,6.4,0,0,1,2.43.65A6.1,6.1,0,0,1,304.71,147.42Z" style="fill:#90CAF9"></path><path d="M313.88,151.4a6.4,6.4,0,0,1-2.38-.79,6.21,6.21,0,0,1-2.17-1.27,6.24,6.24,0,0,1,2.38.79C313,150.7,314,151.27,313.88,151.4Z" style="fill:#90CAF9"></path><path d="M322.81,155.91a6.16,6.16,0,0,1-2.34-.93c-1.22-.64-2.16-1.26-2.09-1.39a6.21,6.21,0,0,1,2.33.93A6.42,6.42,0,0,1,322.81,155.91Z" style="fill:#90CAF9"></path><path d="M331.44,160.94a6.06,6.06,0,0,1-2.27-1.06c-1.18-.71-2.08-1.39-2-1.52a6.47,6.47,0,0,1,2.28,1.07C330.62,160.14,331.52,160.82,331.44,160.94Z" style="fill:#90CAF9"></path><path d="M339.77,166.48a6.45,6.45,0,0,1-2.21-1.2c-1.13-.78-2-1.51-1.91-1.63a6.25,6.25,0,0,1,2.21,1.2C339,165.63,339.85,166.36,339.77,166.48Z" style="fill:#90CAF9"></path><path d="M347.76,172.49a6.43,6.43,0,0,1-2.14-1.33c-1.08-.85-1.9-1.62-1.81-1.74a6.25,6.25,0,0,1,2.13,1.33C347,171.6,347.85,172.37,347.76,172.49Z" style="fill:#90CAF9"></path><path d="M355.38,179c-.1.11-1-.54-2.05-1.45s-1.81-1.73-1.71-1.84,1,.54,2.05,1.45S355.48,178.85,355.38,179Z" style="fill:#90CAF9"></path><path d="M362.61,185.85c-.1.1-1-.6-2-1.56a6.56,6.56,0,0,1-1.6-1.94c.1-.1,1,.6,2,1.57S362.71,185.75,362.61,185.85Z" style="fill:#90CAF9"></path><path d="M369.42,193.16c-.11.1-.94-.65-1.87-1.67s-1.59-1.93-1.48-2,.94.65,1.87,1.68S369.53,193.07,369.42,193.16Z" style="fill:#90CAF9"></path><path d="M375.8,200.86c-.12.09-.91-.71-1.77-1.78a6.3,6.3,0,0,1-1.37-2.11c.12-.1.91.7,1.77,1.78A6.3,6.3,0,0,1,375.8,200.86Z" style="fill:#90CAF9"></path><path d="M381.71,208.92c-.12.08-.87-.77-1.66-1.89a6.21,6.21,0,0,1-1.24-2.18c.12-.09.86.75,1.66,1.88A6.49,6.49,0,0,1,381.71,208.92Z" style="fill:#90CAF9"></path><path d="M387.13,217.31c-.12.07-.81-.82-1.54-2a6.34,6.34,0,0,1-1.11-2.26c.12-.08.82.81,1.55,2A6,6,0,0,1,387.13,217.31Z" style="fill:#90CAF9"></path><path d="M392.06,226c-.13.07-.77-.86-1.43-2.07a6.3,6.3,0,0,1-1-2.31c.13-.07.77.85,1.43,2.06A6.24,6.24,0,0,1,392.06,226Z" style="fill:#90CAF9"></path><path d="M396.46,235a6.26,6.26,0,0,1-1.3-2.15,6.1,6.1,0,0,1-.83-2.37,6.26,6.26,0,0,1,1.3,2.15A6,6,0,0,1,396.46,235Z" style="fill:#90CAF9"></path><path d="M400.33,244.18a6.14,6.14,0,0,1-1.17-2.22,5.94,5.94,0,0,1-.69-2.41,6.32,6.32,0,0,1,1.17,2.22A6,6,0,0,1,400.33,244.18Z" style="fill:#90CAF9"></path><path d="M403.64,253.61a6.36,6.36,0,0,1-1-2.28,6.25,6.25,0,0,1-.54-2.46,6.46,6.46,0,0,1,1,2.29A6,6,0,0,1,403.64,253.61Z" style="fill:#90CAF9"></path><path d="M406.39,263.22a12.13,12.13,0,0,1-1.3-4.82,12.13,12.13,0,0,1,1.3,4.82Z" style="fill:#90CAF9"></path><path d="M408.57,273a12.41,12.41,0,0,1-1-4.9,6.14,6.14,0,0,1,.77,2.4A6.22,6.22,0,0,1,408.57,273Z" style="fill:#90CAF9"></path><path d="M410.17,282.85a6,6,0,0,1-.62-2.44,6.34,6.34,0,0,1-.11-2.51,12.29,12.29,0,0,1,.73,5Z" style="fill:#90CAF9"></path><path d="M411.18,292.79a6,6,0,0,1-.48-2.46,6.37,6.37,0,0,1,0-2.52,6.07,6.07,0,0,1,.48,2.47A6.29,6.29,0,0,1,411.18,292.79Z" style="fill:#90CAF9"></path><path d="M411.61,302.78a5.94,5.94,0,0,1-.33-2.49,6.34,6.34,0,0,1,.18-2.5,6,6,0,0,1,.34,2.49A6.23,6.23,0,0,1,411.61,302.78Z" style="fill:#90CAF9"></path><path d="M398.13,312.15c.09-1.79.14-3.56.15-5.34s0-3.74,0-5.6c0,1.86.05,3.73,0,5.6S398.22,310.36,398.13,312.15Z" style="fill:#263238"></path><path d="M380.92,331.86c-1-3.66-.82-7.5-1.3-11.25-.26-2-.87-4.21-2.56-5.33-1.12-.74-2.55-.87-3.77-1.44-4.39-2-4.71-8.62-8.76-11.23a14.92,14.92,0,0,0-4.23-1.54c-5.71-1.53-11.43-4.4-14.42-9.49-1-1.65-1.64-3.52-2.94-4.93s-3.55-2.27-5.18-1.25c.88,2.63,1.72,5.25,2.57,7.85.79,2.37,1.58,4.81,3.19,6.69s4.24,3.17,6.62,2.46a4.65,4.65,0,0,1,2.43-.47,2.52,2.52,0,0,1,1.35,1.17c2.66,4,.79,9.62-2.82,12.76s-8.41,4.31-13,5.42a9.46,9.46,0,0,1-5.05.24c-2.95-1-4.09-4.54-4.55-7.64-1-6.85-1-14.12-4.22-20.25-1.05-1.93-2.44-3.76-2.93-5.91-.51-2.32.06-4.87-1-7s-3.82-3.83-3.66-6.31c.12-1.73,1.76-3,3.44-3.55s3.47-.5,5.19-.93c.67-.18,1.45-.54,1.58-1.22.14-1-1.22-1.65-1.45-2.66s1-2,1.63-3c1.36-2.26-.79-5.05-3.08-6.38s-5.07-2.46-5.86-5a14.1,14.1,0,0,1-.28-3.62c-.13-3.05-1.9-6.23-4.82-7.16s-6.66,1.27-6.6,4.33c0,1.68,1.09,3.14,1.54,4.75s-.06,3.85-1.7,4.11c-2.69.41-4.48-4.65-6.87-3.35.44,3.15.87,6.29,1.31,9.45-3.63,1.23-7.23-2.47-8.16-6.21s-.41-7.74-1.64-11.37-5.49-6.85-8.78-4.87c-.77,4.34,4.73,6.94,6.77,10.83,1.47,2.82.6,6.92-2.35,8.15s-6.82-2.21-5.36-5c.52-1,1.5-1.71,1.76-2.8.3-1.36-.7-2.63-1.62-3.66-1.44-1.64-2.89-3.25-4.33-4.86a10.48,10.48,0,0,0-3.19-2.71c-3.24-1.47-7,.78-9.24,3.54s-3.75,6.19-6.59,8.36c-4.09,3.16-10.86,2.41-13.64-1.93s0-11.29,5.09-12c1.94-.25,4.28.14,5.5-1.36,2.14-2.67-2.23-7.1-.11-9.8,1.63-2.07,4.91-.54,7.52-.94s4.34-2.7,6.13-4.64,4.34-3.75,6.81-2.82a8,8,0,0,1,.91-4.42c.86-1.28,2.86-1.89,3.95-.83-1.54,1.88-.46,5,1.57,6.3s4.62,1.47,7.06,1.55,5.58-.39,6.13-2.77c.18-.77,0-1.65.41-2.34,1.47-2.71,6.19,2,8.56,0,1.35-1,.36-3.35-1.22-4s-3.34-.29-5-.48-3.58-1.34-3.41-3,2.17-2.56,2.6-4.15c.72-2.7-3.84-4.09-5.8-2.09s-1.82,5.14-1.73,7.93-.09,6-2.38,7.66c-1.05,1.18-3.18.17-3.71-1.31s-.15-3.12-.05-4.69-.33-3.45-1.79-4.08c-1-.45-2.21-.1-3.31-.11-4.34-.1-6.51-6-4.57-9.92s6.16-6,10.22-7.5c3-1.12,6.57-2,9.07-.12,1.17.9,1.88,2.25,3,3.17,2,1.59,4.71,1.51,7.18,1.91A17.2,17.2,0,0,1,313,198.54c1,1.16,1.74,3,.71,4.06s-3.83,1-3.58,2.58a5.37,5.37,0,0,0,7.29-3.32,4.5,4.5,0,0,1,2.05,4A8,8,0,0,1,331,208.5a10.18,10.18,0,0,0,1.75,3.08c.89.78,2.65.71,2.94-.43a2.46,2.46,0,0,0,0-1.11c-.35-1.75-.72-3.48-1.07-5.21,2.45-.89,4.87,1.41,6.12,3.69,4.63,8.5,9.39,4.49,17.29,6.91,5.35,1.62,7.25,5.48,9.72,10.16,7.58,14.41,18.53,26.91,25.16,41.78q1,2.33,1.9,4.7c-.09-.39-.16-.77-.26-1.16a151.92,151.92,0,0,0-8.82-27.23q-1.21-2.79-2.5-5.54c-.54-1.13-1.1-2.28-1.66-3.39-.72-1.46-1.49-2.87-2.26-4.28-.61-1.14-1.23-2.26-1.87-3.35-.44-.77-.9-1.53-1.37-2.3s-1-1.72-1.58-2.58l-1.71-2.68a9.32,9.32,0,0,0-.56-.83c-.59-.93-1.23-1.85-1.87-2.77a.73.73,0,0,0-.19-.28c-.16-.25-.35-.5-.54-.75-.51-.78-1.08-1.54-1.62-2.29-.9-1.23-1.82-2.46-2.78-3.65-.77-1-1.58-2-2.41-3s-1.45-1.76-2.2-2.62-1.46-1.69-2.21-2.52c-.91-1-1.83-2-2.79-3.06h0c-2.63-2.81-5.36-5.51-8.2-8.07-.7-.65-1.39-1.28-2.1-1.9s-1.44-1.26-2.16-1.87-1.44-1.23-2.19-1.82-1.47-1.21-2.21-1.79-1.19-.95-1.8-1.39a11.49,11.49,0,0,0-.93-.71c-1.28-1-2.59-2-3.91-2.87-.66-.47-1.32-.94-2-1.39-.84-.6-1.71-1.17-2.58-1.72a2.21,2.21,0,0,0-.39-.26c-.78-.51-1.55-1-2.36-1.52-1.12-.68-2.25-1.37-3.38-2-1.29-.76-2.58-1.52-3.91-2.24s-2.92-1.6-4.41-2.34-3-1.51-4.53-2.23-3.06-1.39-4.61-2.07c-3.06-1.32-6.19-2.55-9.35-3.68l-.17-.07c-1.21-.43-2.43-.85-3.65-1.23a.89.89,0,0,0-.24-.09c-.52-.17-1.07-.35-1.62-.51-2.28-.73-4.58-1.38-6.92-2a8.74,8.74,0,0,0-.85-.22c-.67-.2-1.35-.35-2.05-.52-1.54-.38-3.1-.73-4.67-1.05s-3.29-.68-4.94-1-3.47-.6-5.21-.85q-6.91-1-13.77-1.37c-1.09-.08-2.15-.13-3.23-.16s-2.24-.08-3.36-.09-2.25,0-3.35,0-2.24,0-3.37.06c-.95,0-1.93,0-2.89.11q-3.56.17-7.05.48c-1.09.09-2.18.21-3.28.35s-2.19.26-3.26.41c-1.81.24-3.58.53-5.35.83h0l-4.32.8-.1,0c-1.47.29-2.89.61-4.34.95l-.23,0c-1.33.31-2.65.64-3.95,1-1.64.41-3.26.88-4.85,1.35-1.36.4-2.7.81-4,1.25s-2.84.94-4.24,1.44l-.15.05c-1.35.48-2.7,1-4,1.52s-2.73,1.08-4.1,1.68h0c-1.28.54-2.53,1.08-3.79,1.65-.48.21-.94.44-1.43.67-1.33.61-2.63,1.25-4,1.91-1.62.79-3.19,1.64-4.76,2.49-1.39.75-2.75,1.53-4.09,2.31A156.46,156.46,0,0,0,141,185.54c-2.42,2-4.72,4.08-7,6.2-1.91,1.83-3.78,3.68-5.59,5.62-1.62,1.68-3.2,3.41-4.73,5.17,1.53-1.76,3.11-3.49,4.73-5.17.4,0,.8,0,1.19,0,2.23.15,4.55.56,6.68-.11,2-.64,3.5-2.1,5.34-3,4.7-2.42,11.77-2,13.66-6.91.64-1.66.45-3.59,1.32-5.14,1.64-2.89,5.8-2.74,9.08-2.21,1.4.2,3,.63,3.47,2a3.51,3.51,0,0,1-.56,2.82A26.89,26.89,0,0,1,155.36,197c-4.64,2-10.49,3.19-12.37,7.87.35,1.73,3.36,2,3.35,3.79,0,1.4-1.89,1.85-2.71,3-1.19,1.65.63,4.14,2.68,4.34s3.95-1,5.65-2.19c5.06-3.5,10.38-7.28,12.85-12.93,1-2.33,1.7-5.14,3.89-6.47a4.84,4.84,0,0,1,6.94,3.38c2.1-.8,5.23-1.17,5.94,1a10.93,10.93,0,0,1,.09,2.36c.18,3.23,4.26,5.27,4.25,8.5,0,3.72-5,4.93-8.71,5-3.38,0-6.76.07-10.15.13a9.22,9.22,0,0,0-4.31.73,3.25,3.25,0,0,0-1.78,3.67,9.78,9.78,0,0,0,1.46,2c2.35,3.14-.73,8.47-4.62,8-1.33-.15-2.56-.82-3.87-1.06-3.9-.74-7.51,2.26-9.88,5.45s-4.33,6.93-7.8,8.83c-5.6,3.07-14.18.93-17.47,6.41-1.32,2.21-1.19,4.93-1.16,7.51s-.21,5.38-2,7.25-5.58,1.74-6.33-.72a5.7,5.7,0,0,1,.33-3.28q1.66-5.31,3.29-10.63c.81-2.64,1.61-5.6.34-8-1.79-3.41-6.83-3.84-10.08-1.78s-5,5.76-6.33,9.34c-1,2.66-2.24,6.44-4.21,9.35h0c-1,3-1.82,6-2.59,9.06s-1.45,6.28-2,9.49a14.41,14.41,0,0,0,1.42-1c1.77-1.37,5.86-7.66,8.18-3.95a2.55,2.55,0,0,1-.4,3.07c-1,1-2.77,1-3.6,2.08-1,1.31-.15,3.24,1,4.36s2.72,2,3.46,3.45c1.41,2.83-.86,6.48.5,9.36,1.17,2.47,4.33,3.08,7,3.76l.91.29c1.54-5.29,4.7-9.31,12.29-9.91,10.48-.84,22.6,9.5,27.21,18,5.13,9.48,6.4,22,15.53,27.72,6.54,4.08,16.63,4.41,19,11.74,2.15,6.57-4.14,12.69-5.93,19.36-1.16,4.42-.34,9.09-.64,13.62s-2.42,9.62-6.79,10.91c-2.42.7-5.27.16-7.36,1.61-3.71,2.62-2,9.38-5.66,12-1.31.91-3,1.07-4.46,1.58-7.87,2.64-9.23,13.45-6.91,21.42.09.29.18.55.26.84a156.43,156.43,0,0,0,76.27,33.43,155.72,155.72,0,0,0,75.29-7.58h0a155.67,155.67,0,0,0,14.89-6.27,153.93,153.93,0,0,0,21.46-12.52,151.86,151.86,0,0,0,13.54-10.57c3-2.62,5.93-5.38,8.75-8.22,1.43-1.47,2.85-2.94,4.2-4.48a154.35,154.35,0,0,0,25-36.85,152.85,152.85,0,0,0,9.7-25.39c1-3.42,1.85-6.89,2.61-10.41a9,9,0,0,1-6.63,1.87C384.53,339.06,381.92,335.5,380.92,331.86Z" style="fill:#90CAF9"></path><path d="M298.45,391.31c-4.73,5.29-6.49,12.51-8.57,19.29s-5,13.9-11,17.7-15.75,2.11-17.76-4.7c-1.1-3.69.31-7.66,0-11.5-.43-5-3.74-9.29-4.9-14.17-1-4.17-.36-8.52.12-12.78,2.66-23.24.51-48.22-12.8-67.46-1.63-2.37-3.54-4.72-6.18-5.84a8.88,8.88,0,0,0-9.5,1.81c-1.5,1.49-2.47,3.53-4.22,4.72-3.81,2.59-9.37-.46-11.05-4.75s-.66-9.11.37-13.6q1.94-8.36,3.85-16.71c.67-2.91,1.46-6,3.72-8,3.21-2.79,8.16-2.22,11.89-4.26,4.89-2.66,6.39-8.88,9.86-13.24s12.48-5.11,13,.43c12.06-18.38,28.18,13.86,40.61,13.41,3.61-.14,7.28-1.33,10.75-.32,6.12,1.78,8.35,9.13,9.62,15.38q3.15,15.56,6.31,31.11c.8,3.95,1.93,8.38,5.45,10.36,2.69,1.52,6.12,1.15,8.84,2.61,7.2,3.87,3,15.46-3.88,19.87S317,357.19,313,364.31c-3,5.37-2.23,12.28-5.4,17.56C305.35,385.64,301.39,388,298.45,391.31Z" style="fill:#263238"></path><path d="M326.36,401.91c-2.55,0-5.32-1.67-7.45-.28-1.25.81-1.73,2.36-2.37,3.7a8.56,8.56,0,0,1-4.23,4.32,5.36,5.36,0,0,1-5.76-.94,3.94,3.94,0,0,1,0-5.52,26.52,26.52,0,0,1,2.41-1.45c3.76-2.65,2.33-8.79,5.39-12.15,1.81-2,4.47-3.87,6.42-5.85,1.5-1.53,2.16-2.82,4.53-2.94C335.67,380.27,337.2,402,326.36,401.91Z" style="fill:#263238"></path><path d="M101.28,326.44c.15-4.51,2.26-8.73,3-13.2.5-3.09.75-6.38,1.15-9.5a42.26,42.26,0,0,1-7.71-2.24,2.43,2.43,0,0,1-1.34-.94,2.94,2.94,0,0,1-.08-1.69c.31-3.51-2.72-6.3-5.48-8.48a25.88,25.88,0,0,0-4.44-3c0,.37-.1.71-.13,1.08A156.12,156.12,0,0,0,89,339a151.15,151.15,0,0,0,6.53,21.67c1.11,3,2.38,6.05,3.73,9,1.67,3.67,3.45,7.28,5.42,10.79,1.81,3.37,3.78,6.68,5.9,9.89a154,154,0,0,0,9.32,12.86q4.42,5.52,9.35,10.61c-5.17-23.92-9.78-48.24-21.45-69.64C104.7,338.6,101.08,332.82,101.28,326.44Z" style="fill:#90CAF9"></path><path d="M87.4,280c-.15.93-.32,1.85-.46,2.78-.11.76-.19,1.52-.29,2.28.1-.76.18-1.52.29-2.28C87.08,281.87,87.25,281,87.4,280Z" style="fill:#263238"></path><g style="opacity:0.6000000000000001"><path d="M137,421.37c1.18,1.07,2.37,2.12,3.59,3.15.84.72,1.69,1.42,2.57,2.12-.88-.7-1.73-1.4-2.57-2.12C139.35,423.49,138.16,422.44,137,421.37Z" style="fill:#263238"></path></g><path d="M333,350.69c6.88-4.41,11.08-16,3.88-19.87-2.72-1.46-6.15-1.09-8.84-2.61-3.52-2-4.65-6.41-5.45-10.36q-3.15-15.56-6.31-31.11c-1.27-6.25-3.5-13.6-9.62-15.38-3.47-1-7.14.18-10.75.32-12.43.45-28.55-31.79-40.61-13.41-.51-5.54-9.51-4.79-13-.43s-5,10.58-9.86,13.24c-3.73,2-8.68,1.47-11.89,4.26-2.26,2-3,5.07-3.72,8q-1.92,8.35-3.85,16.71c-1,4.49-2,9.3-.37,13.6s7.24,7.34,11.05,4.75c1.75-1.19,2.72-3.23,4.22-4.72a8.88,8.88,0,0,1,9.5-1.81c2.64,1.12,4.55,3.47,6.18,5.84,13.31,19.24,15.46,44.22,12.8,67.46-.48,4.26-1.11,8.61-.12,12.78,1.16,4.88,4.47,9.17,4.9,14.17.33,3.84-1.08,7.81,0,11.5,2,6.81,11.77,8.5,17.76,4.7s8.91-10.91,11-17.7,3.84-14,8.57-19.29c2.94-3.28,6.9-5.67,9.17-9.44,3.17-5.28,2.38-12.19,5.4-17.56C317,357.19,326.07,355.09,333,350.69Z" style="fill:#90CAF9"></path><g style="opacity:0.6000000000000001"><path d="M88,276.38v0h0v0c-.06.29-.13.55-.17.85-.17.91-.3,1.85-.45,2.79.15-.94.28-1.88.45-2.79C87.89,276.93,88,276.67,88,276.38Z" style="fill:#263238"></path></g><g style="opacity:0.6000000000000001"><path d="M86.65,285.08c-.1.75-.21,1.52-.29,2.27h0C86.44,286.6,86.55,285.83,86.65,285.08Z" style="fill:#263238"></path></g><path d="M106.55,297.78l-.91-.29c-2.68-.68-5.84-1.29-7-3.76-1.36-2.88.91-6.53-.5-9.36-.74-1.48-2.27-2.3-3.46-3.45s-2.06-3.05-1-4.36c.83-1.1,2.58-1.1,3.6-2.08a2.53,2.53,0,0,0,.39-3.07c-2.31-3.71-6.4,2.58-8.17,3.95a14.41,14.41,0,0,1-1.42,1v0c-.06.29-.13.55-.17.85-.17.91-.3,1.85-.45,2.79s-.32,1.85-.46,2.78c-.11.76-.19,1.52-.29,2.28s-.21,1.52-.29,2.27a25.88,25.88,0,0,1,4.44,3c2.76,2.18,5.79,5,5.48,8.48a2.94,2.94,0,0,0,.08,1.69,2.43,2.43,0,0,0,1.34.94,42.26,42.26,0,0,0,7.71,2.24" style="fill:#90CAF9"></path><path d="M105.41,303.74c-.4,3.12-.65,6.41-1.15,9.5-.72,4.47-2.83,8.69-3,13.2-.2,6.38,3.42,12.16,6.49,17.76,11.67,21.4,16.28,45.72,21.45,69.64h0c1.39,1.48,2.81,2.89,4.26,4.27q1.71,1.67,3.47,3.26c1.18,1.07,2.37,2.12,3.59,3.15.84.72,1.69,1.42,2.57,2.12-.08-.29-.17-.55-.26-.84-2.32-8-1-18.78,6.91-21.42,1.5-.51,3.15-.67,4.46-1.58,3.7-2.62,1.95-9.38,5.66-12,2.09-1.45,4.94-.91,7.36-1.61,4.37-1.29,6.45-6.35,6.79-10.91s-.52-9.2.64-13.62c1.79-6.67,8.08-12.79,5.93-19.36-2.42-7.33-12.51-7.66-19-11.74-9.13-5.7-10.4-18.24-15.53-27.72-4.61-8.47-16.73-18.81-27.21-18-7.59.6-10.75,4.62-12.29,9.91" style="fill:#90CAF9"></path><path d="M103.2,239.11c3.25-2.06,8.29-1.63,10.08,1.78,1.27,2.44.47,5.4-.34,8q-1.64,5.31-3.29,10.63a5.7,5.7,0,0,0-.33,3.28c.75,2.46,4.59,2.57,6.33.72s2-4.69,2-7.25-.16-5.3,1.16-7.51c3.29-5.48,11.87-3.34,17.47-6.41,3.47-1.9,5.44-5.64,7.8-8.83s6-6.19,9.88-5.45c1.31.24,2.54.91,3.87,1.06,3.89.43,7-4.9,4.62-8a9.78,9.78,0,0,1-1.46-2,3.25,3.25,0,0,1,1.78-3.67,9.22,9.22,0,0,1,4.31-.73c3.39-.06,6.77-.09,10.15-.13,3.74,0,8.69-1.25,8.71-5,0-3.23-4.07-5.27-4.25-8.5a10.93,10.93,0,0,0-.09-2.36c-.71-2.16-3.84-1.79-5.94-1a4.84,4.84,0,0,0-6.94-3.38c-2.19,1.33-2.85,4.14-3.89,6.47-2.47,5.65-7.79,9.43-12.85,12.93-1.7,1.16-3.6,2.38-5.65,2.19s-3.87-2.69-2.68-4.34c.82-1.14,2.69-1.59,2.71-3,0-1.75-3-2.06-3.35-3.79,1.88-4.68,7.73-5.89,12.37-7.87a26.89,26.89,0,0,0,13.25-12.2,3.51,3.51,0,0,0,.56-2.82c-.46-1.32-2.07-1.75-3.47-2-3.28-.53-7.44-.68-9.08,2.21-.87,1.55-.68,3.48-1.32,5.14-1.89,4.93-9,4.49-13.66,6.91-1.84.93-3.37,2.39-5.34,3-2.13.67-4.45.26-6.68.11-.39,0-.79,0-1.19,0-1.62,1.68-3.2,3.41-4.73,5.17s-3,3.56-4.48,5.39a154.43,154.43,0,0,0-17.76,28c-1.74,3.49-3.33,7.06-4.8,10.71s-2.8,7.37-4,11.16c2-2.91,3.22-6.69,4.21-9.35C98.21,244.87,100,241.17,103.2,239.11Z" style="fill:#90CAF9"></path><g style="opacity:0.6000000000000001"><path d="M396.93,325.46c.31-2.23.57-4.45.76-6.67-.19,2.22-.45,4.44-.76,6.67-.05.72-.15,1.43-.26,2.14-.49,3.43-1.1,6.8-1.79,10.15.69-3.35,1.3-6.72,1.79-10.15C396.78,326.89,396.88,326.18,396.93,325.46Z" style="fill:#263238"></path></g><g style="opacity:0.6000000000000001"><path d="M394.77,272.1q.68,3.11,1.22,6.22-.54-3.12-1.22-6.22s0,0,0,0h0Z" style="fill:#263238"></path></g><path d="M396.93,325.46c.31-2.23.57-4.45.76-6.67s.35-4.43.44-6.64c.09-1.79.14-3.56.15-5.34s0-3.74,0-5.6A152.61,152.61,0,0,0,397,284.6c-.28-2.1-.6-4.2-1-6.28s-.77-4.15-1.22-6.22v0h0q-.86-2.37-1.9-4.7c-6.63-14.87-17.58-27.37-25.16-41.78-2.47-4.68-4.37-8.54-9.72-10.16-7.9-2.42-12.66,1.59-17.29-6.91-1.25-2.28-3.67-4.58-6.12-3.69.35,1.73.72,3.46,1.07,5.21a2.46,2.46,0,0,1,0,1.11c-.29,1.14-2.05,1.21-2.94.43A10.18,10.18,0,0,1,331,208.5a8,8,0,0,0-11.51-2.64,4.5,4.5,0,0,0-2.05-4,5.37,5.37,0,0,1-7.29,3.32c-.25-1.56,2.47-1.44,3.58-2.58s.24-2.9-.71-4.06A17.2,17.2,0,0,0,303,192.85c-2.47-.4-5.21-.32-7.18-1.91-1.14-.92-1.85-2.27-3-3.17-2.5-1.93-6.11-1-9.07.12-4.06,1.54-8.31,3.6-10.22,7.5s.23,9.82,4.57,9.92c1.1,0,2.3-.34,3.31.11,1.46.63,1.89,2.5,1.79,4.08s-.52,3.21.05,4.69,2.66,2.49,3.71,1.31c2.29-1.62,2.5-4.86,2.38-7.66s-.21-5.94,1.73-7.93,6.52-.61,5.8,2.09c-.43,1.59-2.44,2.5-2.6,4.15s1.74,2.85,3.41,3,3.46-.17,5,.48,2.57,2.95,1.22,4c-2.37,2-7.09-2.7-8.56,0-.4.69-.23,1.57-.41,2.34-.55,2.38-3.69,2.82-6.13,2.77s-5-.2-7.06-1.55-3.11-4.42-1.57-6.3c-1.09-1.06-3.09-.45-3.95.83a8,8,0,0,0-.91,4.42c-2.47-.93-5.06.89-6.81,2.82s-3.55,4.24-6.13,4.64-5.89-1.13-7.52.94c-2.12,2.7,2.25,7.13.11,9.8-1.22,1.5-3.56,1.11-5.5,1.36-5.13.68-7.89,7.64-5.09,12s9.55,5.09,13.64,1.93c2.84-2.17,4.36-5.58,6.59-8.36s6-5,9.24-3.54a10.48,10.48,0,0,1,3.19,2.71c1.44,1.61,2.89,3.22,4.33,4.86.92,1,1.92,2.3,1.62,3.66-.26,1.09-1.24,1.82-1.76,2.8-1.46,2.82,2.43,6.25,5.36,5s3.82-5.33,2.35-8.15c-2-3.89-7.54-6.49-6.77-10.83,3.29-2,7.56,1.21,8.78,4.87s.7,7.66,1.64,11.37,4.53,7.44,8.16,6.21c-.44-3.16-.87-6.3-1.31-9.45,2.39-1.3,4.18,3.76,6.87,3.35,1.64-.26,2.16-2.49,1.7-4.11s-1.49-3.07-1.54-4.75c-.06-3.06,3.66-5.25,6.6-4.33s4.69,4.11,4.82,7.16a14.1,14.1,0,0,0,.28,3.62c.79,2.51,3.6,3.65,5.86,5s4.44,4.12,3.08,6.38c-.61,1-1.86,1.83-1.63,3s1.59,1.63,1.45,2.66c-.13.68-.91,1-1.58,1.22-1.72.43-3.51.39-5.19.93s-3.32,1.82-3.44,3.55c-.16,2.48,2.58,4.08,3.66,6.31s.48,4.68,1,7c.49,2.15,1.88,4,2.93,5.91,3.26,6.13,3.19,13.4,4.22,20.25.46,3.1,1.6,6.64,4.55,7.64a9.46,9.46,0,0,0,5.05-.24c4.63-1.11,9.46-2.31,13-5.42s5.48-8.8,2.82-12.76a2.52,2.52,0,0,0-1.35-1.17,4.65,4.65,0,0,0-2.43.47c-2.38.71-5-.54-6.62-2.46s-2.4-4.32-3.19-6.69c-.85-2.6-1.69-5.22-2.57-7.85,1.63-1,3.86-.17,5.18,1.25s1.95,3.28,2.94,4.93c3,5.09,8.71,8,14.42,9.49a14.92,14.92,0,0,1,4.23,1.54c4.05,2.61,4.37,9.19,8.76,11.23,1.22.57,2.65.7,3.77,1.44,1.69,1.12,2.3,3.31,2.56,5.33.48,3.75.28,7.59,1.3,11.25s3.61,7.2,7.33,7.79a9,9,0,0,0,6.63-1.87v0c.69-3.35,1.3-6.72,1.79-10.15C396.78,326.89,396.88,326.18,396.93,325.46Z" style="fill:#90CAF9"></path><path d="M325.29,380.8c-2.37.12-3,1.41-4.53,2.94-1.95,2-4.61,3.87-6.42,5.85-3.06,3.36-1.63,9.5-5.39,12.15a26.52,26.52,0,0,0-2.41,1.45,3.94,3.94,0,0,0,0,5.52,5.36,5.36,0,0,0,5.76.94,8.56,8.56,0,0,0,4.23-4.32c.64-1.34,1.12-2.89,2.37-3.7,2.13-1.39,4.9.27,7.45.28C337.2,402,335.67,380.27,325.29,380.8Z" style="fill:#90CAF9"></path><g style="opacity:0.30000000000000004"><path d="M333,350.69c6.88-4.41,11.08-16,3.88-19.87-2.72-1.46-6.15-1.09-8.84-2.61-3.52-2-4.65-6.41-5.45-10.36q-3.15-15.56-6.31-31.11c-1.27-6.25-3.5-13.6-9.62-15.38-3.47-1-7.14.18-10.75.32-12.43.45-28.55-31.79-40.61-13.41-.51-5.54-9.51-4.79-13-.43s-5,10.58-9.86,13.24c-3.73,2-8.68,1.47-11.89,4.26-2.26,2-3,5.07-3.72,8q-1.92,8.35-3.85,16.71c-1,4.49-2,9.3-.37,13.6s7.24,7.34,11.05,4.75c1.75-1.19,2.72-3.23,4.22-4.72a8.88,8.88,0,0,1,9.5-1.81c2.64,1.12,4.55,3.47,6.18,5.84,13.31,19.24,15.46,44.22,12.8,67.46-.48,4.26-1.11,8.61-.12,12.78,1.16,4.88,4.47,9.17,4.9,14.17.33,3.84-1.08,7.81,0,11.5,2,6.81,11.77,8.5,17.76,4.7s8.91-10.91,11-17.7,3.84-14,8.57-19.29c2.94-3.28,6.9-5.67,9.17-9.44,3.17-5.28,2.38-12.19,5.4-17.56C317,357.19,326.07,355.09,333,350.69Z"></path></g><path d="M129.22,413.84h0c1.39,1.48,2.81,2.89,4.26,4.27q1.71,1.67,3.47,3.26c1.18,1.07,2.37,2.12,3.59,3.15.84.72,1.69,1.42,2.57,2.12-.08-.29-.17-.55-.26-.84-2.32-8-1-18.78,6.91-21.42,1.5-.51,3.15-.67,4.46-1.58,3.7-2.62,1.95-9.38,5.66-12,2.09-1.45,4.94-.91,7.36-1.61,4.37-1.29,6.45-6.35,6.79-10.91s-.52-9.2.64-13.62c1.79-6.67,8.08-12.79,5.93-19.36-2.42-7.33-12.51-7.66-19-11.74-9.13-5.7-10.4-18.24-15.53-27.72-4.61-8.47-16.73-18.81-27.21-18-7.59.6-10.75,4.62-12.29,9.91l-.91-.29c-2.68-.68-5.84-1.29-7-3.76-1.36-2.88.91-6.53-.5-9.36-.74-1.48-2.27-2.3-3.46-3.45s-2.06-3.05-1-4.36c.83-1.1,2.58-1.1,3.6-2.08a2.53,2.53,0,0,0,.39-3.07c-2.31-3.71-6.4,2.58-8.17,3.95a14.41,14.41,0,0,1-1.42,1v0c-.06.29-.13.55-.17.85-.17.91-.3,1.85-.45,2.79s-.32,1.85-.46,2.78c-.11.76-.19,1.52-.29,2.28s-.21,1.52-.29,2.27c0,.37-.1.71-.13,1.08A156.12,156.12,0,0,0,89,339a151.15,151.15,0,0,0,6.53,21.67c1.11,3,2.38,6.05,3.73,9,1.67,3.67,3.45,7.28,5.42,10.79,1.81,3.37,3.78,6.68,5.9,9.89a154,154,0,0,0,9.32,12.86q4.42,5.52,9.35,10.61" style="opacity:0.30000000000000004"></path><g style="opacity:0.30000000000000004"><path d="M103.2,239.11c3.25-2.06,8.29-1.63,10.08,1.78,1.27,2.44.47,5.4-.34,8q-1.64,5.31-3.29,10.63a5.7,5.7,0,0,0-.33,3.28c.75,2.46,4.59,2.57,6.33.72s2-4.69,2-7.25-.16-5.3,1.16-7.51c3.29-5.48,11.87-3.34,17.47-6.41,3.47-1.9,5.44-5.64,7.8-8.83s6-6.19,9.88-5.45c1.31.24,2.54.91,3.87,1.06,3.89.43,7-4.9,4.62-8a9.78,9.78,0,0,1-1.46-2,3.25,3.25,0,0,1,1.78-3.67,9.22,9.22,0,0,1,4.31-.73c3.39-.06,6.77-.09,10.15-.13,3.74,0,8.69-1.25,8.71-5,0-3.23-4.07-5.27-4.25-8.5a10.93,10.93,0,0,0-.09-2.36c-.71-2.16-3.84-1.79-5.94-1a4.84,4.84,0,0,0-6.94-3.38c-2.19,1.33-2.85,4.14-3.89,6.47-2.47,5.65-7.79,9.43-12.85,12.93-1.7,1.16-3.6,2.38-5.65,2.19s-3.87-2.69-2.68-4.34c.82-1.14,2.69-1.59,2.71-3,0-1.75-3-2.06-3.35-3.79,1.88-4.68,7.73-5.89,12.37-7.87a26.89,26.89,0,0,0,13.25-12.2,3.51,3.51,0,0,0,.56-2.82c-.46-1.32-2.07-1.75-3.47-2-3.28-.53-7.44-.68-9.08,2.21-.87,1.55-.68,3.48-1.32,5.14-1.89,4.93-9,4.49-13.66,6.91-1.84.93-3.37,2.39-5.34,3-2.13.67-4.45.26-6.68.11-.39,0-.79,0-1.19,0-1.62,1.68-3.2,3.41-4.73,5.17s-3,3.56-4.48,5.39a154.43,154.43,0,0,0-17.76,28c-1.74,3.49-3.33,7.06-4.8,10.71s-2.8,7.37-4,11.16c2-2.91,3.22-6.69,4.21-9.35C98.21,244.87,100,241.17,103.2,239.11Z"></path></g><g style="opacity:0.30000000000000004"><path d="M396.93,325.46c.31-2.23.57-4.45.76-6.67s.35-4.43.44-6.64c.09-1.79.14-3.56.15-5.34s0-3.74,0-5.6A152.61,152.61,0,0,0,397,284.6c-.28-2.1-.6-4.2-1-6.28s-.77-4.15-1.22-6.22v0h0q-.86-2.37-1.9-4.7c-6.63-14.87-17.58-27.37-25.16-41.78-2.47-4.68-4.37-8.54-9.72-10.16-7.9-2.42-12.66,1.59-17.29-6.91-1.25-2.28-3.67-4.58-6.12-3.69.35,1.73.72,3.46,1.07,5.21a2.46,2.46,0,0,1,0,1.11c-.29,1.14-2.05,1.21-2.94.43A10.18,10.18,0,0,1,331,208.5a8,8,0,0,0-11.51-2.64,4.5,4.5,0,0,0-2.05-4,5.37,5.37,0,0,1-7.29,3.32c-.25-1.56,2.47-1.44,3.58-2.58s.24-2.9-.71-4.06A17.2,17.2,0,0,0,303,192.85c-2.47-.4-5.21-.32-7.18-1.91-1.14-.92-1.85-2.27-3-3.17-2.5-1.93-1.54,2.16-4.5,3.29-4.06,1.54-6.26,2-8.18,5.9a20.76,20.76,0,0,0-1,2.41,4.94,4.94,0,0,0,2,5.89l.3.16c1.46.63,1.89,2.5,1.79,4.08s-.52,3.21.05,4.69,2.66,2.49,3.71,1.31c2.29-1.62,2.5-4.86,2.38-7.66s-.21-5.94,1.73-7.93,6.52-.61,5.8,2.09c-.43,1.59-2.44,2.5-2.6,4.15s1.74,2.85,3.41,3,3.46-.17,5,.48,2.57,2.95,1.22,4c-2.37,2-7.09-2.7-8.56,0-.4.69-.23,1.57-.41,2.34-.55,2.38-3.69,2.82-6.13,2.77s-5-.2-7.06-1.55-3.11-4.42-1.57-6.3c-1.09-1.06-3.09-.45-3.95.83a8,8,0,0,0-.91,4.42c-2.47-.93-5.06.89-6.81,2.82s-3.55,4.24-6.13,4.64-5.89-1.13-7.52.94c-2.12,2.7,2.25,7.13.11,9.8-1.22,1.5-3.56,1.11-5.5,1.36-5.13.68-7.89,7.64-5.09,12s9.55,5.09,13.64,1.93c2.84-2.17,4.36-5.58,6.59-8.36s6-5,9.24-3.54a10.48,10.48,0,0,1,3.19,2.71c1.44,1.61,2.89,3.22,4.33,4.86.92,1,1.92,2.3,1.62,3.66-.26,1.09-1.24,1.82-1.76,2.8-1.46,2.82,2.43,6.25,5.36,5s3.82-5.33,2.35-8.15c-2-3.89-7.54-6.49-6.77-10.83,3.29-2,7.56,1.21,8.78,4.87s.7,7.66,1.64,11.37,4.53,7.44,8.16,6.21c-.44-3.16-.87-6.3-1.31-9.45,2.39-1.3,4.18,3.76,6.87,3.35,1.64-.26,2.16-2.49,1.7-4.11s-1.49-3.07-1.54-4.75c-.06-3.06,3.66-5.25,6.6-4.33s4.69,4.11,4.82,7.16a14.1,14.1,0,0,0,.28,3.62c.79,2.51,3.6,3.65,5.86,5s4.44,4.12,3.08,6.38c-.61,1-1.86,1.83-1.63,3s1.59,1.63,1.45,2.66c-.13.68-.91,1-1.58,1.22-1.72.43-3.51.39-5.19.93s-3.32,1.82-3.44,3.55c-.16,2.48,2.58,4.08,3.66,6.31s.48,4.68,1,7c.49,2.15,1.88,4,2.93,5.91,3.26,6.13,3.19,13.4,4.22,20.25.46,3.1,1.6,6.64,4.55,7.64a9.46,9.46,0,0,0,5.05-.24c4.63-1.11,9.46-2.31,13-5.42s5.48-8.8,2.82-12.76a2.52,2.52,0,0,0-1.35-1.17,4.65,4.65,0,0,0-2.43.47c-2.38.71-5-.54-6.62-2.46s-2.4-4.32-3.19-6.69c-.85-2.6-1.69-5.22-2.57-7.85,1.63-1,3.86-.17,5.18,1.25s1.95,3.28,2.94,4.93c3,5.09,8.71,8,14.42,9.49a14.92,14.92,0,0,1,4.23,1.54c4.05,2.61,4.37,9.19,8.76,11.23,1.22.57,2.65.7,3.77,1.44,1.69,1.12,2.3,3.31,2.56,5.33.48,3.75.28,7.59,1.3,11.25s3.61,7.2,7.33,7.79a9,9,0,0,0,6.63-1.87v0c.69-3.35,1.3-6.72,1.79-10.15C396.78,326.89,396.88,326.18,396.93,325.46Z"></path></g><g style="opacity:0.30000000000000004"><path d="M325.29,380.8c-2.37.12-3,1.41-4.53,2.94-1.95,2-4.61,3.87-6.42,5.85-3.06,3.36-1.63,9.5-5.39,12.15a26.52,26.52,0,0,0-2.41,1.45,3.94,3.94,0,0,0,0,5.52,5.36,5.36,0,0,0,5.76.94,8.56,8.56,0,0,0,4.23-4.32c.64-1.34,1.12-2.89,2.37-3.7,2.13-1.39,4.9.27,7.45.28C337.2,402,335.67,380.27,325.29,380.8Z"></path></g><path d="M108.38,155.23a13.39,13.39,0,0,0-12.21,2.26s-8.23,6.29-5,15.52a15.08,15.08,0,0,0,6.74,8,20,20,0,0,0,3.72,1.68c4.48,1.45,17.5,4.77,17.5,4.77l1.43-1.1c-.11-4-2-16-2.67-19.84C117,161.77,113.6,156.78,108.38,155.23Zm3,19.3a8.85,8.85,0,1,1,1.65-12.4A8.84,8.84,0,0,1,111.38,174.53Z" style="fill:#90CAF9"></path><path d="M108.38,155.23a13.39,13.39,0,0,0-12.21,2.26s-8.23,6.29-5,15.52a15.08,15.08,0,0,0,6.74,8,20,20,0,0,0,3.72,1.68c4.48,1.45,17.5,4.77,17.5,4.77l1.43-1.1c-.11-4-2-16-2.67-19.84C117,161.77,113.6,156.78,108.38,155.23Zm3,19.3a8.85,8.85,0,1,1,1.65-12.4A8.84,8.84,0,0,1,111.38,174.53Z" style="opacity:0.4"></path><path d="M109.87,154.18a13.37,13.37,0,0,0-12.2,2.26s-8.23,6.29-5,15.52a15.08,15.08,0,0,0,6.74,8,19.17,19.17,0,0,0,3.73,1.68c4.47,1.45,17.49,4.77,17.49,4.77s-.4-16.35-1.24-20.94C118.48,160.72,115.09,155.74,109.87,154.18Zm1.56,20.4A8.78,8.78,0,0,1,99,172.93a8.85,8.85,0,1,1,12.4,1.65Z" style="fill:#90CAF9"></path><path d="M100.63,160.47a8.87,8.87,0,0,0-3,9.75,7.58,7.58,0,1,1,5.47,5.62,8.85,8.85,0,1,0-2.42-15.37Z" style="fill:#90CAF9"></path><path d="M100.63,160.47a8.87,8.87,0,0,0-3,9.75,7.58,7.58,0,1,1,5.47,5.62,8.85,8.85,0,1,0-2.42-15.37Z" style="opacity:0.4"></path><path d="M442.11,276.57a13.38,13.38,0,0,0,3.62-11.88s-1.79-10.2-11.46-11.62a15,15,0,0,0-10.21,2.3,19.21,19.21,0,0,0-3.21,2.52c-3.34,3.31-12.29,13.33-12.29,13.33l.31,1.79c3.58,1.73,15.16,5.63,18.84,6.76C432.35,281.19,438.33,280.48,442.11,276.57Zm-18.51-6.24a8.85,8.85,0,1,1,10.25,7.19A8.84,8.84,0,0,1,423.6,270.33Z" style="fill:#90CAF9"></path><path d="M442.11,276.57a13.38,13.38,0,0,0,3.62-11.88s-1.79-10.2-11.46-11.62a15,15,0,0,0-10.21,2.3,19.21,19.21,0,0,0-3.21,2.52c-3.34,3.31-12.29,13.33-12.29,13.33l.31,1.79c3.58,1.73,15.16,5.63,18.84,6.76C432.35,281.19,438.33,280.48,442.11,276.57Zm-18.51-6.24a8.85,8.85,0,1,1,10.25,7.19A8.84,8.84,0,0,1,423.6,270.33Z" style="opacity:0.4"></path><path d="M442.36,278.37A13.39,13.39,0,0,0,446,266.5s-1.8-10.21-11.46-11.62a15.12,15.12,0,0,0-10.22,2.29,19.36,19.36,0,0,0-3.2,2.53C417.75,263,408.8,273,408.8,273s14.7,7.18,19.16,8.55C432.59,283,438.57,282.29,442.36,278.37Zm-18.83-8a8.85,8.85,0,1,1,10.25,7.18A8.79,8.79,0,0,1,423.53,270.36Z" style="fill:#90CAF9"></path><path d="M441,267.27a8.85,8.85,0,0,0-7.25-7.19,7.58,7.58,0,1,1-7.5,2.25A8.85,8.85,0,1,0,441,267.27Z" style="fill:#90CAF9"></path><path d="M441,267.27a8.85,8.85,0,0,0-7.25-7.19,7.58,7.58,0,1,1-7.5,2.25A8.85,8.85,0,1,0,441,267.27Z" style="opacity:0.4"></path><path d="M80.88,431a13.38,13.38,0,0,0,4.24,11.68s7.56,7.08,16.13,2.4a15.05,15.05,0,0,0,6.79-8,19.12,19.12,0,0,0,1-3.95c.69-4.65,1.82-18,1.82-18l-1.32-1.24c-3.9.77-15.5,4.6-19.12,5.91C85.91,421.47,81.55,425.63,80.88,431Zm18.54-6.13a8.85,8.85,0,1,1-12.5.41A8.85,8.85,0,0,1,99.42,424.9Z" style="fill:#263238"></path><path d="M79.6,429.74a13.36,13.36,0,0,0,4.24,11.67s7.56,7.08,16.13,2.41a15,15,0,0,0,6.79-8,19.12,19.12,0,0,0,1-4c.69-4.65,1.82-18,1.82-18s-16.06,3.08-20.44,4.67C84.63,420.17,80.27,424.33,79.6,429.74Zm19.86-4.9a8.85,8.85,0,1,1-12.5.41A8.79,8.79,0,0,1,99.46,424.84Z" style="fill:#455a64"></path><path d="M87.33,437.82a8.85,8.85,0,0,0,10.11,1.4,7.58,7.58,0,1,1,4.65-6.31,8.85,8.85,0,1,0-14.76,4.91Z" style="fill:#263238"></path><path d="M386.57,178.4a9.47,9.47,0,0,0-3-8.28s-5.37-5-11.46-1.71a10.71,10.71,0,0,0-4.82,5.65,13.7,13.7,0,0,0-.74,2.81c-.49,3.3-1.3,12.8-1.3,12.8l.94.88c2.77-.55,11-3.26,13.58-4.19C383,185.19,386.1,182.24,386.57,178.4Zm-13.16,4.36a6.28,6.28,0,1,1,8.88-.3A6.29,6.29,0,0,1,373.41,182.76Z" style="fill:#263238"></path><path d="M387.48,179.32a9.47,9.47,0,0,0-3-8.28s-5.37-5-11.46-1.71A10.67,10.67,0,0,0,368.2,175a13.7,13.7,0,0,0-.74,2.81c-.49,3.3-1.3,12.8-1.3,12.8s11.41-2.19,14.52-3.31S387,183.16,387.48,179.32Zm-14.1,3.48a6.23,6.23,0,0,1-.29-8.88,6.28,6.28,0,1,1,.29,8.88Z" style="fill:#455a64"></path><path d="M382,173.59a6.28,6.28,0,0,0-7.18-1,5.38,5.38,0,1,1-3.3,4.48A6.28,6.28,0,1,0,382,173.59Z" style="fill:#263238"></path><path d="M197.37,373.09h37.09s-3.28-6-12.83-5.1c-9.12.83-9.58-2.94-14.22-3.4S198.92,367.68,197.37,373.09Z" style="fill:#fff"></path><path d="M222.87,340.91h54.89s-4.85-8.83-19-7.55c-13.5,1.23-14.18-4.34-21-5S225.16,332.91,222.87,340.91Z" style="fill:#fff"></path><path d="M151.68,258.86h35.91s-3.18-5.77-12.42-4.93c-8.83.8-9.28-2.85-13.76-3.29S153.18,253.63,151.68,258.86Z" style="fill:#fff"></path></g><g id="freepik--Character--inject-20"><g style="opacity:0.4"><path d="M291.66,154.33c.79,1.42-5.76,26.17-12.45,38.83-2.28,4.32-7.62,5.88-12.59,5.83-6.47-.07-11.24-8.29-18.87-8-6.8.27-8.92,5.8-15.36,8-12.81,4.41-24.52-6.3-26.56-14.5-2.59-10.36-2.23-17.66-1.62-31.2C204.21,153.32,278.51,130.9,291.66,154.33Z"></path></g><path d="M213.39,98.48c4.06,13.27,14.76,48.79,19.16,61.94,1.18,3.51,2.45,7.16,5.11,9.73a15.69,15.69,0,0,0,10,3.95,46.78,46.78,0,0,0,10.86-1c3-.52,6.24-1.14,8.32-3.37a13.38,13.38,0,0,0,2.73-5.88c6-22.29,14.46-43.16,14.46-65.3-23.52-4.59-47.38-6-70.6-.09" style="fill:#90CAF9"></path><g style="opacity:0.30000000000000004"><path d="M244.32,173.81a7.22,7.22,0,0,0,3.68-4.2,21.39,21.39,0,0,0,1.05-5.62c1-10.3,1.95-20.64,1.29-31-.35-5.57-1.25-11.3-4.2-16.05Z"></path></g><g style="opacity:0.30000000000000004"><path d="M268.94,140.83c-.18-8.57-2-13-2.06-15.63s-.51-3.35,1.05-5.44,4.12-3.5,6.42-5,4.61-3.29,5.39-5.89c.32-1,.38-3-.65-3.44-.67-.25-1.6.66-2.23,1a44.62,44.62,0,0,0-8.4,5.75,15.13,15.13,0,0,0-4.74,6.18c-1.42,4,.13,8.47,1.67,12.47"></path></g><path d="M199.23,91.73a7.85,7.85,0,0,0-7.65,2.77c-1.53,2-2.2,4.73-4.39,5.92-1.68.91-3.71.58-5.62.68A11.78,11.78,0,0,0,171.21,117c.56,1.48,1.44,3,1,4.54-.51,1.88-2.64,2.71-4.06,4-2.42,2.26-2.64,6.32-.88,9.12a10.14,10.14,0,0,0,8.45,4.38c-.93,3.53,1.26,7.42,4.52,9s7.84,2.19,11.49,2.19c5.3,0,7.23-1.74,9.27-4.77s6.19-44.9,8-48.06" style="fill:#263238"></path><path d="M173.79,124.42a1.41,1.41,0,0,1-.13-.4,5.28,5.28,0,0,1-.15-1.2,7.42,7.42,0,0,1,1.22-4.25,7.15,7.15,0,0,1,2.18-2.21,10.56,10.56,0,0,1,3.3-1.28c1.21-.3,2.49-.48,3.76-.83a7.5,7.5,0,0,0,3.5-1.83,7.89,7.89,0,0,0,1.88-3.49,20.92,20.92,0,0,0,.61-3.75,16.64,16.64,0,0,1,1.44-6.4,6.37,6.37,0,0,1,3.25-3,4.25,4.25,0,0,1,1.19-.24,1.24,1.24,0,0,1,.42,0,6.93,6.93,0,0,0-1.54.39,6.34,6.34,0,0,0-3,3,16.88,16.88,0,0,0-1.29,6.27,20.86,20.86,0,0,1-.6,3.85,8.23,8.23,0,0,1-2,3.72,8.07,8.07,0,0,1-3.74,2c-1.31.34-2.6.52-3.78.79a10.45,10.45,0,0,0-3.18,1.19,7.11,7.11,0,0,0-2.11,2,7.7,7.7,0,0,0-1.32,4C173.69,123.84,173.84,124.41,173.79,124.42Z" style="fill:#455a64"></path><path d="M197.93,99.65a5.78,5.78,0,0,0-1.49,1.29,8.52,8.52,0,0,0-1.5,5.07c0,1.14.09,2.4.13,3.76a11.82,11.82,0,0,1-.51,4.37,7.87,7.87,0,0,1-3.05,3.78,19.14,19.14,0,0,1-4.69,2.24,38.35,38.35,0,0,0-4.74,1.88,10.1,10.1,0,0,0-3.56,3,14.28,14.28,0,0,0-2.46,7.49,38.53,38.53,0,0,0,.12,5.44c0,.59.08,1.08.11,1.48a1.59,1.59,0,0,1,0,.52,2.13,2.13,0,0,1-.11-.51c-.05-.34-.13-.83-.21-1.47a32.37,32.37,0,0,1-.29-5.48,14.35,14.35,0,0,1,2.45-7.75,10.34,10.34,0,0,1,3.7-3.14,37.09,37.09,0,0,1,4.81-1.92,19.07,19.07,0,0,0,4.57-2.17,7.39,7.39,0,0,0,2.89-3.53,11.54,11.54,0,0,0,.53-4.19c0-1.35-.12-2.61-.07-3.78a8.5,8.5,0,0,1,1.71-5.19,4.3,4.3,0,0,1,1.16-1A1.64,1.64,0,0,1,197.93,99.65Z" style="fill:#455a64"></path><path d="M208.18,85.87c-1.54-2.23-5.29-1.35-7.62,0a7.5,7.5,0,0,0-4,5.44,11.62,11.62,0,0,0,.72,8,7,7,0,0,0,6.67,3.86,7.65,7.65,0,0,0,4.88-3,22.46,22.46,0,0,0,2.82-5.13" style="fill:#90CAF9"></path><g style="opacity:0.4"><path d="M208.18,85.87c-1.54-2.23-5.29-1.35-7.62,0a7.5,7.5,0,0,0-4,5.44,11.62,11.62,0,0,0,.72,8,7,7,0,0,0,6.67,3.86,7.65,7.65,0,0,0,4.88-3,22.46,22.46,0,0,0,2.82-5.13"></path></g><path d="M201.47,93c0,.07-.39-.11-1-.21a3.53,3.53,0,0,0-3.83,1.91c-.27.54-.34.92-.42.91s-.13-.42.08-1a3.49,3.49,0,0,1,1.7-1.93,3.44,3.44,0,0,1,2.56-.19C201.21,92.6,201.51,92.9,201.47,93Z" style="fill:#263238"></path><path d="M202,89.47c0,.07-.37-.13-.94-.21a3.77,3.77,0,0,0-2.16.35A6.25,6.25,0,0,0,197.1,91c-.4.44-.64.73-.7.69s.07-.4.41-.92a5,5,0,0,1,1.84-1.65,3.45,3.45,0,0,1,2.47-.24C201.75,89.1,202,89.42,202,89.47Z" style="fill:#263238"></path><path d="M200.18,86.16c-.06-.13,1-.45,2.08.2s1.29,1.72,1.15,1.74-.53-.77-1.42-1.3S200.19,86.31,200.18,86.16Z" style="fill:#263238"></path><path d="M204.93,84.37c.1-.09.53.29.61,1s-.25,1.14-.38,1.08-.07-.5-.14-1S204.81,84.46,204.93,84.37Z" style="fill:#263238"></path><path d="M197.28,100c-.06,0-.18-.41-.11-1.1a4.4,4.4,0,0,1,3.4-3.8c.67-.15,1.1-.08,1.1,0s-.4.13-1,.36A4.92,4.92,0,0,0,197.53,99C197.38,99.57,197.36,100,197.28,100Z" style="fill:#263238"></path><path d="M201.26,103.39s-.31-.28-.5-.89a4,4,0,0,1,1.54-4.41c.53-.36.92-.44.94-.38a6.78,6.78,0,0,0-1.92,2.51A7.05,7.05,0,0,0,201.26,103.39Z" style="fill:#263238"></path><path d="M234.2,48c-3.13-2-3.89-6.6-2.19-9.89s5.3-5.31,9-5.9a17.1,17.1,0,0,1,14.71,4.88c2,2.08,3.66,4.79,6.4,5.75,2.41.84,5.07.08,7.6.41a11.49,11.49,0,0,1,8,5.79,24.76,24.76,0,0,1,2.85,9.77c.37,3.12.62,6.54,2.78,8.82s5.44,2.68,8.06,4.26A11,11,0,0,1,294.69,87c-1,1.52-2.53,2.9-2.65,4.74-.11,1.67,1,3.16,1.48,4.76,1.3,4.11,2.15,6.68-2.16,6.93-2.18.12-7.19-5.17-9.36-5.2-3.29,0-9.95-.7-11.19,1.08-2.44,3.49-1.55,16.57-5.37,14.69-1.6-.78-3.11-2.08-4.89-2s-3.17,1.64-4.92,2c-2.28.45-4.45-1.24-5.81-3.13s-2.3-4.11-4-5.66c-2.28-2-5.48-2.53-8.36-3.52a23.59,23.59,0,0,1-13.32-33" style="fill:#263238"></path><path d="M236.32,44.81a13.2,13.2,0,0,0-10.57-1.38,10.21,10.21,0,0,0-6.93,7.81c-.35,2.24.11,4.72-1.1,6.63-1.67,2.62-5.63,2.81-7.57,5.23-1.34,1.68-1.4,4-1.15,6.17s.75,4.3.31,6.4c-.66,3.13-.43,6.29-2.35,8.84s-6,4.57-5.87,7.64,2.3,8.22,5.19,9.29c2.32.86,4.49-1.72,6.94-2a36.82,36.82,0,0,1,11.57.4,58,58,0,0,0,7.13,1.31,9.37,9.37,0,0,0,6.8-1.92c1.81-1.59,2.57-4.51,1.23-6.52" style="fill:#263238"></path><path d="M255.63,114s-.26-6.36-.26-6.29,10.91-1.84,13.14-16.08c1.11-7.08.73-18.69.11-28.17-.56-8.54-6.24-19-14.75-18.09l-26.55,6.78a5,5,0,0,0-4.47,5.09h0L225,105.68" style="fill:#ffbe9d"></path><path d="M263.66,72.12A1.82,1.82,0,0,1,261.91,74,1.75,1.75,0,0,1,260,72.33a1.83,1.83,0,0,1,1.76-1.85A1.75,1.75,0,0,1,263.66,72.12Z" style="fill:#263238"></path><path d="M266.11,69.47c-.22.24-1.61-.78-3.57-.77s-3.4,1-3.62.75.13-.53.75-1a5,5,0,0,1,2.9-.9,4.76,4.76,0,0,1,2.84.91C266,68.94,266.22,69.37,266.11,69.47Z" style="fill:#263238"></path><path d="M244.35,72.12A1.83,1.83,0,0,1,242.59,74a1.75,1.75,0,0,1-1.89-1.64,1.83,1.83,0,0,1,1.76-1.85A1.76,1.76,0,0,1,244.35,72.12Z" style="fill:#263238"></path><path d="M246.8,69.88c-.22.24-1.61-.78-3.57-.77s-3.4,1-3.62.75.13-.53.75-1a5,5,0,0,1,2.9-.9,4.76,4.76,0,0,1,2.84.91C246.71,69.34,246.91,69.77,246.8,69.88Z" style="fill:#263238"></path><path d="M254,84.43a13.33,13.33,0,0,1,3.19-.58c.5,0,1-.15,1.06-.49a2.65,2.65,0,0,0-.34-1.49c-.48-1.21-1-2.48-1.49-3.82-2.08-5.43-3.58-9.9-3.36-10s2.08,4.26,4.15,9.69c.5,1.34,1,2.62,1.43,3.84a2.93,2.93,0,0,1,.27,2,1.3,1.3,0,0,1-.83.73,3.1,3.1,0,0,1-.85.12A12.28,12.28,0,0,1,254,84.43Z" style="fill:#263238"></path><path d="M255.37,107.68a36.15,36.15,0,0,1-19.07-5.05s4.45,11.55,18.69,10.18Z" style="fill:#eb996e"></path><path d="M253.15,89.17A3.57,3.57,0,0,0,250,87.86a3.29,3.29,0,0,0-2.23,1.2,2.06,2.06,0,0,0-.15,2.35,2.38,2.38,0,0,0,2.58.64,7.55,7.55,0,0,0,2.5-1.5,2.06,2.06,0,0,0,.56-.58.66.66,0,0,0,0-.74" style="fill:#90CAF9"></path><path d="M248.19,85.81c.32,0,.33,2.11,2.15,3.62s4.1,1.27,4.12,1.57c0,.13-.51.41-1.47.44a5.35,5.35,0,0,1-3.43-1.19,4.56,4.56,0,0,1-1.67-3C247.81,86.32,248,85.79,248.19,85.81Z" style="fill:#263238"></path><path d="M247.68,66.44c-.19.53-2.15.29-4.46.57s-4.17.91-4.47.44c-.14-.23.18-.74.93-1.26A7.56,7.56,0,0,1,243,65a7.4,7.4,0,0,1,3.49.4C247.34,65.77,247.76,66.19,247.68,66.44Z" style="fill:#263238"></path><path d="M265.38,63.79c-.35.44-1.7,0-3.33,0s-3,.3-3.32-.16c-.14-.23.08-.68.68-1.1a4.8,4.8,0,0,1,5.35.15C265.34,63.11,265.53,63.57,265.38,63.79Z" style="fill:#263238"></path><path d="M236.66,47.49a13.76,13.76,0,0,0-11.28-2.11c-3.8,1.09-6.95,4.51-7.07,8.38-.09,2.51,1,5.18-.12,7.45s-3.68,3-5.53,4.6a8.48,8.48,0,0,0-2,10.27c1.55,2.86,4.82,5,5.1,8.17.25,3-2.3,5.59-2.92,8.57L237.59,107c5.61-12.32-4.6-17-5.15-19.84-1.26-6.38,3.41-8.92,3.11-13.11-.16-2.15-1.68-3.94-2.94-5.71s-2.38-4-1.6-6c1-2.63,4.47-3.32,6.56-5.25a6.39,6.39,0,0,0,1.75-6.47,6.6,6.6,0,0,0-5.16-4.4" style="fill:#263238"></path><path d="M235.13,44.28a9.75,9.75,0,0,0,11.49,9.62c2.18-.4,4.56-1.5,6.44-.34s2.06,4.2,3.82,5.72c2.51,2.18,6.5.14,9.68,1.08,2.46.73,4,3.09,5.64,5.06s4.08,3.86,6.54,3.13a29,29,0,0,0-1-6.56A9.7,9.7,0,0,0,274,56.64a36.22,36.22,0,0,1-3.14-1.83c-2-1.65-2.52-4.52-3.78-6.82A10.63,10.63,0,0,0,259,42.6c-2.8-.29-5.68.55-8.41-.14-2-.51-3.78-1.82-5.83-2.2-4-.76-7.68,2.1-10.57,4.94" style="fill:#263238"></path><path d="M293,87.19a1,1,0,0,0,.23-.11,1.5,1.5,0,0,0,.53-.54,2.86,2.86,0,0,0-.29-2.81,3.7,3.7,0,0,0-1.52-1.46,18.78,18.78,0,0,0-2.29-1A7.09,7.09,0,0,1,287.25,80a5.06,5.06,0,0,1-1.37-2.7c-.24-1.07-.31-2.24-.51-3.45A7.47,7.47,0,0,0,284,70.21c-1.66-2.18-4.37-3.34-6.4-5.39a9.72,9.72,0,0,1-2.22-3.77,25.64,25.64,0,0,1-1-4.56c-.44-3.13-.88-6.63-3-9.49a6.92,6.92,0,0,0-4.29-2.78,15.22,15.22,0,0,0-5,.12,18.33,18.33,0,0,1-4.63.28,6,6,0,0,1-3.79-2c-1.94-2.09-3.06-4.92-5.44-6.36a9.11,9.11,0,0,0-7.2-1A8,8,0,0,0,236.3,39a8.93,8.93,0,0,0-1.23,4.39,7.85,7.85,0,0,0,.46,2.85,4.25,4.25,0,0,0,.42.91s-.13-.32-.32-1a8.35,8.35,0,0,1-.35-2.81,8.93,8.93,0,0,1,1.28-4.23,7.71,7.71,0,0,1,4.58-3.47,8.69,8.69,0,0,1,6.84,1,10.08,10.08,0,0,1,2.75,2.84A31.58,31.58,0,0,0,253.31,43a7.08,7.08,0,0,0,1.82,1.42,6.61,6.61,0,0,0,2.26.7,18.19,18.19,0,0,0,4.77-.26,14.76,14.76,0,0,1,4.78-.12,6.47,6.47,0,0,1,4,2.57,13.22,13.22,0,0,1,2,4.47,41.3,41.3,0,0,1,.86,4.78,26.59,26.59,0,0,0,1.05,4.65,10.34,10.34,0,0,0,2.35,4c2.15,2.13,4.84,3.26,6.4,5.31A7.1,7.1,0,0,1,285,73.87c.2,1.18.28,2.36.54,3.47A5.48,5.48,0,0,0,287,80.2a7.27,7.27,0,0,0,2.52,1.39,22.08,22.08,0,0,1,2.28.91,3.54,3.54,0,0,1,1.46,1.34,2.77,2.77,0,0,1,.38,2.65A2.29,2.29,0,0,1,293,87.19Z" style="fill:#455a64"></path><path d="M202.73,97a3,3,0,0,1-.24-.66,7.5,7.5,0,0,1-.26-2,5.27,5.27,0,0,1,1-3,10.69,10.69,0,0,1,3.24-2.72,43.1,43.1,0,0,1,4.6-2.18A17.86,17.86,0,0,0,216,83.47a7,7,0,0,0,2.64-5.41c-.06-2.18-1.22-4.25-1.76-6.61a7.56,7.56,0,0,1,0-3.6,4.45,4.45,0,0,1,.81-1.61A5.1,5.1,0,0,1,219,65.09a19.79,19.79,0,0,1,3.08-1.26,6.53,6.53,0,0,0,2.6-1.52,4.42,4.42,0,0,0,1.1-2.58,18.6,18.6,0,0,0,0-2.79,14.73,14.73,0,0,1,.11-2.67,10.74,10.74,0,0,1,.72-2.37,10.39,10.39,0,0,1,5.14-5.19,8.85,8.85,0,0,1,1.91-.62,3,3,0,0,1,.69-.09,14.38,14.38,0,0,0-2.52.89A10.43,10.43,0,0,0,227,52a10.31,10.31,0,0,0-.66,2.29,14.79,14.79,0,0,0-.08,2.6,18.27,18.27,0,0,1,0,2.86,4.83,4.83,0,0,1-1.2,2.85c-1.54,1.63-3.92,1.81-5.77,2.89A4,4,0,0,0,217.36,68a7.16,7.16,0,0,0,0,3.35c.51,2.25,1.7,4.36,1.77,6.71a6.35,6.35,0,0,1-.79,3.28,9.43,9.43,0,0,1-2,2.5,17.84,17.84,0,0,1-5.08,2.94,44.34,44.34,0,0,0-4.59,2.11,10.4,10.4,0,0,0-3.18,2.57,5.21,5.21,0,0,0-1,2.86A11.29,11.29,0,0,0,202.73,97Z" style="fill:#455a64"></path><path d="M221.31,88.7a4.46,4.46,0,0,0,1.86-.23,5.68,5.68,0,0,0,3.24-3.73,7.8,7.8,0,0,0,.16-3.5,22.51,22.51,0,0,0-1.08-4,29.39,29.39,0,0,1-1.27-4.45,9.14,9.14,0,0,1,.35-5c.66-1.7,2.16-2.7,3.12-3.88a9.72,9.72,0,0,0,1.86-4c.67-2.8.76-5.52,1.64-7.61a8.08,8.08,0,0,1,3.18-4.17,4.68,4.68,0,0,1,1.34-.54,3.14,3.14,0,0,1,.5-.06,8.29,8.29,0,0,0-1.73.77,8.13,8.13,0,0,0-2.95,4.13c-.81,2-.86,4.7-1.51,7.6a10.31,10.31,0,0,1-1.93,4.25c-1.05,1.26-2.45,2.21-3,3.75a8.62,8.62,0,0,0-.33,4.71A29.77,29.77,0,0,0,226,77.12c.94,2.74,1.57,5.51.81,7.73a5.79,5.79,0,0,1-3.52,3.81,3.49,3.49,0,0,1-1.44.16A1.64,1.64,0,0,1,221.31,88.7Z" style="fill:#455a64"></path><path d="M288.24,99a1.4,1.4,0,0,0,.51-.73,2,2,0,0,0-1-2.18,4.47,4.47,0,0,0-1.81-.48c-.7-.07-1.47,0-2.31-.19A3.12,3.12,0,0,1,281.36,94a4.33,4.33,0,0,1-.27-3c.24-1,.72-2,1-3.11a5,5,0,0,0-.18-3.33,5.28,5.28,0,0,0-2.37-2.66c-1.1-.62-2.46-.6-3.84-1a4.91,4.91,0,0,1-3.24-2.8,8.75,8.75,0,0,1-.73-4.42c.11-1.52.46-3,.72-4.53a11.35,11.35,0,0,0,.05-4.57A5.27,5.27,0,0,0,270.06,61c-1.28-.71-2.93-.5-4.37-1.27A4,4,0,0,1,264.1,58a9,9,0,0,1-.7-2.13,14.69,14.69,0,0,0-1.16-4,3.36,3.36,0,0,0-3.14-1.72,23,23,0,0,0-3.7.59,6.76,6.76,0,0,1-3.6-.11A12.43,12.43,0,0,1,249,49a10.92,10.92,0,0,0-5.07-2.06,11.47,11.47,0,0,0-4.17.23,13.57,13.57,0,0,0-3.31,1.36.86.86,0,0,1,.19-.15,6.31,6.31,0,0,1,.59-.38,10.24,10.24,0,0,1,2.48-1,11.67,11.67,0,0,1,4.25-.32,11.18,11.18,0,0,1,5.25,2,11.85,11.85,0,0,0,2.76,1.62,6.46,6.46,0,0,0,3.39.07,21.66,21.66,0,0,1,3.77-.62,4.13,4.13,0,0,1,2,.44,3.66,3.66,0,0,1,1.53,1.49,14.47,14.47,0,0,1,1.23,4.1,5,5,0,0,0,2.06,3.51c1.23.68,2.88.47,4.36,1.25A5.75,5.75,0,0,1,273,64.45a11.73,11.73,0,0,1,0,4.76c-.26,1.54-.61,3-.72,4.49a8.27,8.27,0,0,0,.67,4.17,4.41,4.41,0,0,0,2.92,2.55c1.27.34,2.7.33,3.92,1a5.7,5.7,0,0,1,2.56,2.91,5.45,5.45,0,0,1,.17,3.6c-.32,1.12-.8,2.1-1,3.09a4,4,0,0,0,.2,2.77,2.8,2.8,0,0,0,2,1.32c.79.16,1.56.15,2.27.23a4.76,4.76,0,0,1,1.89.55,2.09,2.09,0,0,1,1,1.23,1.92,1.92,0,0,1,0,1.16A1.08,1.08,0,0,1,288.24,99Z" style="fill:#455a64"></path><path d="M226.78,142.57,214,99.43s-17.43,3.57-15.74,20.74,5.88,37.5,13.44,52.15S221.73,192,230,190.85s12.8-7.58,14.65-16.84,2.61-50.11,2.61-50.11l-13.82-2.7Z" style="fill:#ffbe9d"></path><path d="M269.16,141.56l14.83-43s15.39,2.19,13.71,19.37-5.77,39.73-13.32,54.38S274.29,192,266,190.85s-12.79-7.58-14.65-16.84S249,122,249,122l13.84-1Z" style="fill:#ffbe9d"></path><path d="M262.75,123.83a8.67,8.67,0,0,1,4-7.55c5.05-3.56,12.38-10.8,12.38-10.8,1.66-3.74,1-10.47.83-11.39s-.52-3.17-4.22-2.25c0,0-.39-1.56-3-1.28s-2.83,1.57-2.83,1.57a13.85,13.85,0,0,0-3,.74c-1,.47-2.46,2.46-2.37,3.67a6.61,6.61,0,0,0-3.32,1.23c-1,1-2.41,2.09-2.41,4s1.81,2.57,3.24,2.47c0,0-5.15,1.77-6.12,2s-9.1,3.71-7.81,8.58,1.17,4.13.9,6.83,1,9,1,9Z" style="fill:#ffbe9d"></path><path d="M249.58,146.56a2.54,2.54,0,0,1-.09-.53c0-.35-.12-.87-.17-1.54-.12-1.34-.24-3.28-.33-5.68-.18-4.79-.24-11.42-.13-18.74l0-.89v.07a27,27,0,0,1-1.07-5.12,6.32,6.32,0,0,1,1.74-4.56,10.42,10.42,0,0,1,3.73-2.37c1.27-.52,2.48-.9,3.57-1.27,2.2-.73,3.95-1.37,5.13-1.86s1.84-.8,1.85-.76-.14.11-.44.27-.74.4-1.33.67c-1.17.55-2.91,1.24-5.09,2-1.08.4-2.29.79-3.53,1.32a10.18,10.18,0,0,0-3.54,2.3,5.85,5.85,0,0,0-1.58,4.22,26.46,26.46,0,0,0,1.07,5v.07l0,.89c-.11,7.31-.1,13.93,0,18.72,0,2.4.11,4.34.16,5.68,0,.62,0,1.13.07,1.54A2,2,0,0,1,249.58,146.56Z" style="fill:#eb996e"></path><path d="M261.77,104.39c-.14,0-.09-.85.11-1.83s.48-1.76.62-1.73.09.85-.11,1.83S261.91,104.42,261.77,104.39Z" style="fill:#eb996e"></path><path d="M267.77,102.66s.09-.3.32-.78a4.26,4.26,0,0,0,.47-2.13,3,3,0,0,0-1.93-2.33,6.13,6.13,0,0,0-3.91,0,5.34,5.34,0,0,0-3.12,2.32,3.81,3.81,0,0,0-.43,3.09,2.13,2.13,0,0,0,1.46,1.45,5.57,5.57,0,0,0,.81.08,1.13,1.13,0,0,1-.85.12,2.32,2.32,0,0,1-1.77-1.52,4.13,4.13,0,0,1,.37-3.46,5.7,5.7,0,0,1,3.38-2.57,6.36,6.36,0,0,1,4.25.08,3.37,3.37,0,0,1,2.11,2.74,4.14,4.14,0,0,1-.66,2.25A3,3,0,0,1,267.77,102.66Z" style="fill:#eb996e"></path><path d="M273.1,100.65c-.09,0,.26-1,.52-2.56a5.84,5.84,0,0,0-.16-2.72,4,4,0,0,0-2.21-2.3,4.43,4.43,0,0,0-3.23-.16,5.28,5.28,0,0,0-2.22,1.55,9.66,9.66,0,0,0-1.29,2.23,1.71,1.71,0,0,1,.11-.72,5.21,5.21,0,0,1,.89-1.75,5.49,5.49,0,0,1,2.35-1.76,4.75,4.75,0,0,1,3.6.13,4.39,4.39,0,0,1,2.45,2.63,5.77,5.77,0,0,1,.08,2.93,13,13,0,0,1-.57,1.86C273.25,100.44,273.13,100.66,273.1,100.65Z" style="fill:#eb996e"></path><path d="M276.5,99.6c-.07,0,0-.49.13-1.23a15,15,0,0,0,.29-2.89,6.11,6.11,0,0,0-.68-2.74c-.35-.64-.7-1-.64-1s.48.18.95.83a5.27,5.27,0,0,1,.89,2.92,9.46,9.46,0,0,1-.46,3C276.76,99.19,276.57,99.62,276.5,99.6Z" style="fill:#eb996e"></path><path d="M261.7,121.58a7.88,7.88,0,0,1-4.39,1.59,8,8,0,0,1-4.63-.65,30.6,30.6,0,0,0,4.57.13A30.2,30.2,0,0,0,261.7,121.58Z" style="fill:#eb996e"></path><path d="M276,176.35c-.06,0,.17-.76.34-2.15a24.21,24.21,0,0,0,0-5.9c-.46-5-2.81-11.58-5-18.91l-5.69-18.8c-.68-2.36-1.25-4.29-1.66-5.71-.18-.63-.32-1.15-.43-1.56a3.47,3.47,0,0,1-.12-.56,2.61,2.61,0,0,1,.22.53c.14.4.31.91.52,1.53.45,1.41,1.07,3.33,1.83,5.67l5.83,18.75c2.2,7.32,4.51,13.94,4.89,19a22.36,22.36,0,0,1-.18,6,13,13,0,0,1-.36,1.58A2.19,2.19,0,0,1,276,176.35Z" style="fill:#eb996e"></path><path d="M233.42,121.2a2.23,2.23,0,0,1-.09.6c-.07.38-.21,1-.39,1.67-.37,1.45-1,3.53-1.75,6.08s-1.78,5.57-2.93,8.91c-.58,1.67-1.19,3.42-1.86,5.22a44.51,44.51,0,0,1-2.35,5.48c-1.88,3.64-4,6.9-5.26,10.17a30,30,0,0,0-2,9,22,22,0,0,0,.44,6.24c.33,1.45.63,2.22.58,2.24a2.75,2.75,0,0,1-.24-.55,11.79,11.79,0,0,1-.53-1.64,20.69,20.69,0,0,1-.62-6.31,29.74,29.74,0,0,1,2-9.19c1.27-3.34,3.39-6.63,5.25-10.23a46.94,46.94,0,0,0,2.33-5.43c.67-1.79,1.3-3.54,1.89-5.2,1.17-3.32,2.2-6.33,3-8.86s1.48-4.59,1.9-6l.49-1.65A3,3,0,0,1,233.42,121.2Z" style="fill:#eb996e"></path><path d="M273.92,124.93,296.39,107s-4.88-9.59-14.39-8.84C281.93,106.55,278.08,115.17,273.92,124.93Z" style="fill:#90CAF9"></path><path d="M214.69,99.27s-12.18-.2-16.92,15.54l23.78,6.83Z" style="fill:#90CAF9"></path><path d="M284,124.2a.7.7,0,0,1,.22-.13,2.78,2.78,0,0,1,.71-.21,3.8,3.8,0,0,1,2.62.55,3.9,3.9,0,0,1,1.31,1.36,4.11,4.11,0,0,1,.5,2.12,3.86,3.86,0,0,1-.83,2.26,4,4,0,0,1-2.19,1.36,3.9,3.9,0,0,1-2.57-.22,4.22,4.22,0,0,1-1.77-1.62,3.71,3.71,0,0,1,2-5.57,2.09,2.09,0,0,1,.73-.12.58.58,0,0,1,.25,0,6.11,6.11,0,0,0-.93.24,3.87,3.87,0,0,0-1.92,1.64,3.55,3.55,0,0,0,.15,3.58,3.83,3.83,0,0,0,1.62,1.46,3.5,3.5,0,0,0,2.31.19,3.68,3.68,0,0,0,2-1.22,3.48,3.48,0,0,0,.75-2,3.79,3.79,0,0,0-.41-1.94,3.66,3.66,0,0,0-1.18-1.28,3.89,3.89,0,0,0-2.44-.64C284.3,124.07,284,124.24,284,124.2Z" style="fill:#263238"></path><path d="M285.33,131.42c-.07,0,.06-.43.1-1.11a5.69,5.69,0,0,0-.42-2.57,5.85,5.85,0,0,0-1.54-2.09c-.52-.44-.9-.64-.87-.7s.45.07,1,.47a5,5,0,0,1,1.74,2.16,4.93,4.93,0,0,1,.33,2.76A2.09,2.09,0,0,1,285.33,131.42Z" style="fill:#263238"></path><path d="M285.27,128.22a3.33,3.33,0,0,1,3-3,12.94,12.94,0,0,0-1.74,1.26C285.67,127.3,285.39,128.26,285.27,128.22Z" style="fill:#263238"></path><path d="M289.26,143.85s.05.07.11.23a3,3,0,0,1,.13.72,3.93,3.93,0,0,1-2.33,3.71,4.07,4.07,0,0,1-2.16.26,3.84,3.84,0,0,1-2.16-1.06,4.13,4.13,0,0,1-1.12-2.33,3.87,3.87,0,0,1,.51-2.53,4.1,4.1,0,0,1,1.8-1.59,3.69,3.69,0,0,1,5.31,2.63,2.26,2.26,0,0,1,0,.74.57.57,0,0,1-.06.25,5.49,5.49,0,0,0-.14-.95,3.83,3.83,0,0,0-1.42-2.08,3.57,3.57,0,0,0-3.58-.25,3.78,3.78,0,0,0-1.62,1.46,3.52,3.52,0,0,0-.44,2.27,3.64,3.64,0,0,0,1,2.1,3.49,3.49,0,0,0,1.93,1,3.79,3.79,0,0,0,2-.2,3.65,3.65,0,0,0,1.4-1,3.84,3.84,0,0,0,.9-2.36C289.35,144.19,289.22,143.86,289.26,143.85Z" style="fill:#263238"></path><path d="M281.93,144.41a8.21,8.21,0,0,1,1.1.22,5.52,5.52,0,0,0,4.84-1.45c.5-.46.74-.82.8-.78s-.12.44-.59,1a5,5,0,0,1-5.11,1.53A2.19,2.19,0,0,1,281.93,144.41Z" style="fill:#263238"></path><path d="M285.12,144.7a2.67,2.67,0,0,1,1.93,1.16,2.71,2.71,0,0,1,.76,2.12,14.32,14.32,0,0,0-1.08-1.86C286,145.2,285.07,144.81,285.12,144.7Z" style="fill:#263238"></path><path d="M280.12,137.37s-.25-.14-.48-.58a2.93,2.93,0,0,1-.22-2,3,3,0,0,1,2.12-2.15,3,3,0,0,1,1.85.08,3.08,3.08,0,0,1,1.52,1.29,3,3,0,0,1,.43,1.94,3.15,3.15,0,0,1-.77,1.68,2.84,2.84,0,0,1-4.55-.21,1.12,1.12,0,0,1-.27-.7,5.43,5.43,0,0,0,.4.6,2.88,2.88,0,0,0,1.62,1,2.67,2.67,0,0,0,2.52-.92,2.86,2.86,0,0,0,.66-1.49,2.66,2.66,0,0,0-.38-1.68,2.72,2.72,0,0,0-1.32-1.13,2.55,2.55,0,0,0-1.61-.08,2.66,2.66,0,0,0-1.94,1.85,2.86,2.86,0,0,0,.08,1.9C280,137.15,280.15,137.35,280.12,137.37Z" style="fill:#263238"></path><path d="M285,134.73a6.45,6.45,0,0,0-2.56,1.11A6.31,6.31,0,0,0,281,138.2c-.05,0-.08-.35.07-.88a3.72,3.72,0,0,1,1.16-1.79,3.87,3.87,0,0,1,1.94-.87C284.7,134.6,285,134.68,285,134.73Z" style="fill:#263238"></path><path d="M282.73,135.51a1.87,1.87,0,0,1-1.72-.17c-.9-.45-1.25-1.25-1.15-1.28s.54.53,1.33.92S282.72,135.39,282.73,135.51Z" style="fill:#263238"></path><path d="M286.75,131.1s.15.17.43.43a3.18,3.18,0,0,0,1.41.77,3.47,3.47,0,0,0,2.32-.2,4.51,4.51,0,0,0,2.28-3.2l.14.23a5.61,5.61,0,0,0-4.4.62,11.08,11.08,0,0,0-1.47,1.17,1.27,1.27,0,0,1,.28-.44,4.88,4.88,0,0,1,1.05-1,5.7,5.7,0,0,1,4.66-.78l.17,0,0,.18a5.09,5.09,0,0,1-.37,1.21,4.4,4.4,0,0,1-2.16,2.25,3.57,3.57,0,0,1-2.55.14,3.06,3.06,0,0,1-1.44-.93C286.8,131.33,286.73,131.11,286.75,131.1Z" style="fill:#263238"></path><path d="M291.74,130.16a6,6,0,0,1-2.42.79,6.41,6.41,0,0,1-2.55.12,11.48,11.48,0,0,1,2.47-.52A12,12,0,0,1,291.74,130.16Z" style="fill:#263238"></path><path d="M284.47,131.19s-.14.14-.47.29a4.42,4.42,0,0,1-1.48.36,4.71,4.71,0,0,1-4.34-2.22,5,5,0,0,1-.73-2.06v-.16l.15-.05a3.83,3.83,0,0,1,3.42.72,2.23,2.23,0,0,1,.84,1.11,9.19,9.19,0,0,0-1-.92,3.75,3.75,0,0,0-3.17-.54l.14-.2a4.72,4.72,0,0,0,2.6,3.59,4.71,4.71,0,0,0,2.07.44A8.94,8.94,0,0,0,284.47,131.19Z" style="fill:#263238"></path><path d="M279.24,129.34a5.41,5.41,0,0,1,2.55.55,5.48,5.48,0,0,1,2.25,1.35,18.85,18.85,0,0,1-2.39-1A19.68,19.68,0,0,1,279.24,129.34Z" style="fill:#263238"></path><path d="M270,144.61s0-.1.05-.26a3.33,3.33,0,0,1,.33-.67,4.89,4.89,0,0,1,2.07-1.77,9.59,9.59,0,0,1,4-.8,28.18,28.18,0,0,0,4.85-.3,6.31,6.31,0,0,0,2.26-.93,6,6,0,0,0,1.6-1.62,7,7,0,0,0,1.17-3.68,9,9,0,0,0-.31-2.64c-.16-.61-.29-.94-.26-.95a2.85,2.85,0,0,1,.41.91,8.12,8.12,0,0,1,.45,2.69,7.2,7.2,0,0,1-1.15,3.88,6.59,6.59,0,0,1-1.68,1.74,6.69,6.69,0,0,1-2.41,1,26.52,26.52,0,0,1-4.92.27,9.71,9.71,0,0,0-3.85.69,5,5,0,0,0-2.06,1.6C270.16,144.28,270.05,144.62,270,144.61Z" style="fill:#263238"></path><path d="M285.93,137c-.11-.06,0-.53-.14-1.06s-.55-.85-.5-1,.18,0,.37.1a1.45,1.45,0,0,1,.52.73,1.48,1.48,0,0,1,0,.89C286.09,136.91,286,137,285.93,137Z" style="fill:#263238"></path><path d="M289.64,139.32c-.07.1-.85-.48-2-.79s-2.09-.25-2.1-.37a3,3,0,0,1,2.21,0A3,3,0,0,1,289.64,139.32Z" style="fill:#263238"></path><path d="M285.18,138.32a20.05,20.05,0,0,1,1.93,1.1,8.55,8.55,0,0,0,2.19.87,4.66,4.66,0,0,0,2.8-.15l-.11.27,0-.07a5.48,5.48,0,0,0-4.07-3,9,9,0,0,0-2.21,0s.19-.12.58-.21a5.28,5.28,0,0,1,1.67-.07,5.53,5.53,0,0,1,2.36.84,5.72,5.72,0,0,1,2,2.29l0,.08.09.19-.2.08a4.81,4.81,0,0,1-3,.14,8.13,8.13,0,0,1-2.25-1,12.83,12.83,0,0,1-1.34-.94C285.32,138.48,285.16,138.34,285.18,138.32Z" style="fill:#263238"></path><path d="M277,140.84s-.17-.08-.42-.31a4.72,4.72,0,0,1-.86-1.13,5.46,5.46,0,0,1-.26-4.66l.07-.17.18.05a5.55,5.55,0,0,1,.52.2,4.1,4.1,0,0,1,2,2.05,3.82,3.82,0,0,1-.48,3.73c-.23.29-.4.41-.42.39a5.53,5.53,0,0,0,.8-1.86,3.56,3.56,0,0,0-.25-2.11,3.76,3.76,0,0,0-1.8-1.83,4.52,4.52,0,0,0-.47-.18l.24-.11a5.44,5.44,0,0,0,.14,4.37A10.54,10.54,0,0,0,277,140.84Z" style="fill:#263238"></path><path d="M277.16,141.09c-.06,0,0-.27,0-.66a6.54,6.54,0,0,0-.29-1.51,7.22,7.22,0,0,1-.35-1.59c0-.42,0-.68.09-.68s.09.25.19.64.28.91.46,1.52a4.16,4.16,0,0,1,.19,1.64C277.36,140.88,277.21,141.11,277.16,141.09Z" style="fill:#263238"></path><path d="M282.09,144.73a3.87,3.87,0,0,1-2.34-1.28,4,4,0,0,1-1.36-2.31c.11,0,.61,1,1.64,2S282.14,144.62,282.09,144.73Z" style="fill:#263238"></path><path d="M275.43,141.82s.18.11.41.38a4.26,4.26,0,0,1,.74,1.33,4.63,4.63,0,0,1,.19,2.28,4.8,4.8,0,0,1-1.27,2.53l-.11.11-.13-.07a4,4,0,0,1-.56-.38,4.27,4.27,0,0,1-1.58-2.61,4,4,0,0,1,.36-2.48,3.77,3.77,0,0,1,1-1.32c.31-.25.51-.34.53-.32a5.73,5.73,0,0,0-1.3,1.76,3.88,3.88,0,0,0-.26,2.29,4.07,4.07,0,0,0,1.47,2.37,4.78,4.78,0,0,0,.5.33l-.24,0a4.55,4.55,0,0,0,1.11-4.45A8.4,8.4,0,0,0,275.43,141.82Z" style="fill:#263238"></path><path d="M274.9,146.4a5,5,0,0,1,.66-5c.1.06-.42,1.08-.59,2.44S275,146.37,274.9,146.4Z" style="fill:#263238"></path><path d="M272.23,142s-.63-.1-1.23-.88a2.85,2.85,0,0,1-.58-1.59,3.08,3.08,0,0,1,.61-2l.18-.21.11-.13.15.1a3.34,3.34,0,0,1,1.45,3.13,2,2,0,0,1-.54,1.32,8.85,8.85,0,0,0,.26-1.35,3.18,3.18,0,0,0-1.4-2.76l.26,0a1.41,1.41,0,0,0-.14.18,2.78,2.78,0,0,0-.57,1.72,2.85,2.85,0,0,0,.44,1.44A6.25,6.25,0,0,0,272.23,142Z" style="fill:#263238"></path><path d="M279.55,145.63s.3.09.55.53a1,1,0,0,1,0,.91.9.9,0,0,1-1.08.37,1,1,0,0,1-.06-1.73c.48-.23.8,0,.77,0s-.3,0-.62.25a.66.66,0,0,0-.29.53.59.59,0,0,0,.34.57.53.53,0,0,0,.61-.18.73.73,0,0,0,.05-.61C279.7,145.89,279.5,145.67,279.55,145.63Z" style="fill:#263238"></path><path d="M273.82,139.1s.21,0,.49.14a.68.68,0,0,1,.26.59.53.53,0,0,1-.23.39.55.55,0,0,1-.5,0,.7.7,0,0,1-.36-.71.72.72,0,0,1,.3-.56.44.44,0,0,1,.43,0c.09.06.1.12.08.14s-.2,0-.34.11a.53.53,0,0,0-.1.34c0,.15.07.3.17.33s.27-.23.09-.41S273.79,139.15,273.82,139.1Z" style="fill:#263238"></path><path d="M278.18,132.55c0-.05.28-.13.47.22a.53.53,0,0,1-.13.64.64.64,0,0,1-.79,0,.68.68,0,0,1-.24-.75.63.63,0,0,1,.47-.42c.35-.07.52.12.48.15s-.2,0-.39.12a.36.36,0,0,0-.2.25.34.34,0,0,0,.11.32.3.3,0,0,0,.33,0,.24.24,0,0,0,.09-.25C278.34,132.66,278.18,132.6,278.18,132.55Z" style="fill:#263238"></path><path d="M289.07,133.73c0,.06-.17.09-.29.28a.34.34,0,0,0,.23.55c.32.05.44-.22.38-.45s-.2-.31-.19-.36.27-.08.45.25a.68.68,0,0,1,0,.63.72.72,0,0,1-1.31-.21.66.66,0,0,1,.21-.59C288.84,133.58,289.1,133.68,289.07,133.73Z" style="fill:#263238"></path><path d="M290.91,142.28c0-.05.22-.07.4.2a.56.56,0,0,1,0,.55.6.6,0,0,1-.63.32.56.56,0,0,1-.46-.55.45.45,0,0,1,.36-.46c.35-.07.46.2.4.21s-.17,0-.31.06a.15.15,0,0,0-.08.17.23.23,0,0,0,.16.18.29.29,0,0,0,.28-.36C291,142.42,290.89,142.33,290.91,142.28Z" style="fill:#263238"></path><path d="M291.94,125.49c-.05,0-.18-.06-.39,0a.3.3,0,1,0,.34.39c.09-.2,0-.35.05-.39s.27.09.23.45a.61.61,0,0,1-.36.5.64.64,0,0,1-.75-.18.62.62,0,0,1,.46-1.06C291.89,125.21,292,125.47,291.94,125.49Z" style="fill:#263238"></path><path d="M288.74,122.93a10.61,10.61,0,0,0,1.87-.51,5.17,5.17,0,0,0,2.91-3.37l.16.25-.22,0a4,4,0,0,0-2.5.47,3.93,3.93,0,0,0-1.5,1.47,6.83,6.83,0,0,0-.65,1.88,1.13,1.13,0,0,1,0-.55,3.74,3.74,0,0,1,.43-1.47,4,4,0,0,1,1.56-1.66,4.35,4.35,0,0,1,2.75-.54l.24,0,.21,0-.05.21a5.32,5.32,0,0,1-1.36,2.34,5.08,5.08,0,0,1-1.85,1.19,4.77,4.77,0,0,1-1.43.29A1.16,1.16,0,0,1,288.74,122.93Z" style="fill:#263238"></path><path d="M292.09,119.93a16.93,16.93,0,0,0-1.69,1.25,19,19,0,0,0-1.25,1.69,3.36,3.36,0,0,1,2.94-2.94Z" style="fill:#263238"></path><path d="M281.81,148.89s.21-.16.63-.09a2.05,2.05,0,0,1,1.38,1.06,6.5,6.5,0,0,1,.88,2.42,6.43,6.43,0,0,1,.06,1.53,5.63,5.63,0,0,1-.11.81,1.93,1.93,0,0,1-.35.83.82.82,0,0,1-.45.29.73.73,0,0,1-.53-.09,3.25,3.25,0,0,1-.64-.56,5.75,5.75,0,0,1-.86-1.28,5.84,5.84,0,0,1-.59-2.51,4.83,4.83,0,0,1,.27-1.71,1.35,1.35,0,0,1,.28-.57,8.79,8.79,0,0,0-.26,2.27,5.77,5.77,0,0,0,.64,2.35,5.33,5.33,0,0,0,.82,1.18,2.91,2.91,0,0,0,.53.48.35.35,0,0,0,.47-.11,2.9,2.9,0,0,0,.38-1.41,7,7,0,0,0,0-1.45,6.81,6.81,0,0,0-.75-2.32,2,2,0,0,0-1.17-1.06A2.85,2.85,0,0,0,281.81,148.89Z" style="fill:#263238"></path><path d="M283.71,153.64a6.5,6.5,0,0,1-1.1-2.32,6.69,6.69,0,0,1-.53-2.51,10.44,10.44,0,0,1,.91,2.38A10.47,10.47,0,0,1,283.71,153.64Z" style="fill:#263238"></path><path d="M233.34,122a8.67,8.67,0,0,0-4-7.55c-5-3.56-12.38-10.8-12.38-10.8-1.65-3.74-1-10.47-.83-11.39s.53-3.17,4.23-2.25c0,0,.38-1.56,3-1.28s2.83,1.57,2.83,1.57a13.85,13.85,0,0,1,3,.74c1,.47,2.47,2.46,2.37,3.67a6.61,6.61,0,0,1,3.32,1.23c1,1,2.41,2.09,2.41,3.95s-1.8,2.57-3.24,2.47c0,0,5.15,1.77,6.12,2s9.17,3.92,7.87,8.79-1.23,3.92-1,6.61-1,9-1,9Z" style="fill:#ffbe9d"></path><path d="M246.51,144.69a2,2,0,0,1,0-.54c0-.41,0-.92.07-1.54.06-1.34.12-3.28.16-5.68.09-4.79.09-11.41,0-18.72v-1a27.31,27.31,0,0,0,1.08-5,5.86,5.86,0,0,0-1.59-4.22,10.18,10.18,0,0,0-3.54-2.3c-1.24-.53-2.44-.92-3.53-1.32-2.18-.78-3.92-1.47-5.09-2-.59-.27-1-.5-1.33-.67a2,2,0,0,1-.44-.27s.66.27,1.85.76,2.94,1.13,5.13,1.86c1.09.37,2.3.75,3.58,1.27a10.47,10.47,0,0,1,3.72,2.37,6.32,6.32,0,0,1,1.74,4.56,26.37,26.37,0,0,1-1.07,5.12v.82c.11,7.32.05,14-.13,18.74-.09,2.4-.21,4.34-.33,5.68-.05.67-.12,1.19-.16,1.54A2.1,2.1,0,0,1,246.51,144.69Z" style="fill:#eb996e"></path><path d="M234.32,102.52c-.14,0-.41-.74-.62-1.73s-.25-1.8-.11-1.83.42.74.62,1.73S234.47,102.5,234.32,102.52Z" style="fill:#eb996e"></path><path d="M228.33,100.79a2.4,2.4,0,0,1-.5-.69,4.05,4.05,0,0,1-.67-2.25,3.37,3.37,0,0,1,2.11-2.74,6.39,6.39,0,0,1,4.26-.08,5.64,5.64,0,0,1,3.37,2.57,4.13,4.13,0,0,1,.37,3.46,2.3,2.3,0,0,1-1.77,1.52c-.57.08-.86-.11-.85-.13a3.68,3.68,0,0,0,.81-.07,2.13,2.13,0,0,0,1.46-1.45,3.81,3.81,0,0,0-.43-3.09,5.35,5.35,0,0,0-3.11-2.32,6.16,6.16,0,0,0-3.92,0,3,3,0,0,0-1.93,2.33A4.14,4.14,0,0,0,228,100,3.3,3.3,0,0,1,228.33,100.79Z" style="fill:#eb996e"></path><path d="M223,98.78s-.15-.21-.32-.64a10.83,10.83,0,0,1-.57-1.86,5.75,5.75,0,0,1,.07-2.93,4.38,4.38,0,0,1,2.46-2.63,4.73,4.73,0,0,1,3.59-.13,5.47,5.47,0,0,1,3.25,3.51,1.58,1.58,0,0,1,.1.72,9.66,9.66,0,0,0-1.29-2.23A5.28,5.28,0,0,0,228.07,91a4.41,4.41,0,0,0-3.22.16,4,4,0,0,0-2.21,2.3,5.72,5.72,0,0,0-.17,2.72C222.73,97.79,223.09,98.75,223,98.78Z" style="fill:#eb996e"></path><path d="M219.59,97.73c-.07,0-.26-.42-.48-1.15a9.76,9.76,0,0,1-.46-3,5.35,5.35,0,0,1,.89-2.92c.47-.65.92-.88,1-.83s-.3.38-.64,1a6.11,6.11,0,0,0-.69,2.74,14.93,14.93,0,0,0,.3,2.89C219.6,97.24,219.66,97.71,219.59,97.73Z" style="fill:#eb996e"></path><path d="M234.39,119.71a31.77,31.77,0,0,0,4.45,1.07,30.88,30.88,0,0,0,4.58-.13,9.71,9.71,0,0,1-9-.94Z" style="fill:#eb996e"></path></g></svg>